<ttFont>
    <TTGlyph name=".notdef" xMin="50" yMin="0" xMax="464" yMax="500">
      <contour>
        <pt x="50" y="0" on="1"/>
        <pt x="50" y="500" on="1"/>
        <pt x="464" y="500" on="1"/>
        <pt x="464" y="0" on="1"/>
      </contour>
      <contour>
        <pt x="112" y="438" on="1"/>
        <pt x="112" y="62" on="1"/>
        <pt x="402" y="62" on="1"/>
        <pt x="402" y="438" on="1"/>
      </contour>
    </TTGlyph>
    <TTGlyph name="A" xMin="-5" yMin="-10" xMax="704" yMax="728">
      <contour>
        <pt x="283" y="632" on="1"/>
        <pt x="302" y="720" on="1"/>
        <pt x="351" y="728" on="1"/>
        <pt x="491" y="358" on="1"/>
        <pt x="620" y="50" on="1"/>
        <pt x="704" y="30" on="1"/>
        <pt x="699" y="-10" on="1"/>
        <pt x="577" y="0" on="1"/>
        <pt x="425" y="-10" on="1"/>
        <pt x="427" y="30" on="1"/>
        <pt x="509" y="50" on="1"/>
        <pt x="439" y="240" on="1"/>
        <pt x="318" y="244" on="1"/>
        <pt x="203" y="240" on="1"/>
        <pt x="138" y="50" on="1"/>
        <pt x="214" y="30" on="1"/>
        <pt x="209" y="-10" on="1"/>
        <pt x="87" y="0" on="1"/>
        <pt x="-5" y="-10" on="1"/>
        <pt x="-3" y="30" on="1"/>
        <pt x="75" y="50" on="1"/>
        <pt x="193" y="357" on="1"/>
      </contour>
      <contour>
        <pt x="312" y="597" on="1"/>
        <pt x="221" y="295" on="1"/>
        <pt x="318" y="291" on="1"/>
        <pt x="419" y="295" on="1"/>
        <pt x="355" y="455" on="1"/>
        <pt x="314" y="597" on="1"/>
      </contour>
    </TTGlyph>
    <TTGlyph name="AE" xMin="-9" yMin="-10" xMax="867" yMax="710">
      <contour>
        <pt x="514" y="330" on="1"/>
        <pt x="522" y="38" on="1"/>
        <pt x="791" y="45" on="1"/>
        <pt x="821" y="178" on="1"/>
        <pt x="856" y="169" on="1"/>
        <pt x="860" y="45" on="1"/>
        <pt x="867" y="-10" on="1"/>
        <pt x="746" y="0" on="1"/>
        <pt x="472" y="0" on="1"/>
        <pt x="335" y="-10" on="1"/>
        <pt x="337" y="25" on="1"/>
        <pt x="417" y="50" on="1"/>
        <pt x="423" y="244" on="1"/>
        <pt x="372" y="248" on="1"/>
        <pt x="228" y="240" on="1"/>
        <pt x="143" y="50" on="1"/>
        <pt x="220" y="30" on="1"/>
        <pt x="215" y="-5" on="1"/>
        <pt x="83" y="0" on="1"/>
        <pt x="-9" y="-5" on="1"/>
        <pt x="-7" y="30" on="1"/>
        <pt x="73" y="50" on="1"/>
        <pt x="375" y="700" on="1"/>
        <pt x="735" y="700" on="1"/>
        <pt x="832" y="710" on="1"/>
        <pt x="823" y="661" on="1"/>
        <pt x="821" y="530" on="1"/>
        <pt x="785" y="522" on="1"/>
        <pt x="759" y="655" on="1"/>
        <pt x="522" y="663" on="1"/>
        <pt x="514" y="380" on="1"/>
        <pt x="689" y="388" on="1"/>
        <pt x="708" y="483" on="1"/>
        <pt x="748" y="470" on="1"/>
        <pt x="738" y="356" on="1"/>
        <pt x="748" y="235" on="1"/>
        <pt x="708" y="241" on="1"/>
        <pt x="689" y="340" on="1"/>
      </contour>
      <contour>
        <pt x="365" y="290" on="1"/>
        <pt x="425" y="292" on="1"/>
        <pt x="427" y="357" on="1"/>
        <pt x="420" y="558" on="1"/>
        <pt x="423" y="650" on="1"/>
        <pt x="416" y="655" on="1"/>
        <pt x="248" y="295" on="1"/>
      </contour>
    </TTGlyph>
    <TTGlyph name="Aacute" xMin="-5" yMin="-10" xMax="704" yMax="912">
      <component glyphName="A" x="0" y="0" flags="0x204"/>
      <component glyphName="acute.case" x="259" y="-50" flags="0x4"/>
    </TTGlyph>
    <TTGlyph name="Acircumflex" xMin="-5" yMin="-10" xMax="704" yMax="927">
      <component glyphName="A" x="0" y="0" flags="0x204"/>
      <component glyphName="circumflex.case" x="161" y="-50" flags="0x4"/>
    </TTGlyph>
    <TTGlyph name="Adieresis" xMin="-5" yMin="-10" xMax="704" yMax="900">
      <component glyphName="A" x="0" y="0" flags="0x204"/>
      <component glyphName="dieresis.case" x="144" y="-50" flags="0x4"/>
    </TTGlyph>
    <TTGlyph name="Agrave" xMin="-5" yMin="-10" xMax="704" yMax="912">
      <component glyphName="A" x="0" y="0" flags="0x204"/>
      <component glyphName="grave.case" x="162" y="-50" flags="0x4"/>
    </TTGlyph>
    <TTGlyph name="Aring" xMin="-5" yMin="-10" xMax="704" yMax="958">
      <component glyphName="A" x="0" y="0" flags="0x204"/>
      <component glyphName="ring" x="183" y="200" flags="0x4"/>
    </TTGlyph>
    <TTGlyph name="Atilde" xMin="-5" yMin="-10" xMax="704" yMax="893">
      <component glyphName="A" x="0" y="0" flags="0x204"/>
      <component glyphName="tilde.case" x="154" y="-50" flags="0x4"/>
    </TTGlyph>
    <TTGlyph name="B" xMin="35" yMin="-10" xMax="594" yMax="709">
      <contour>
        <pt x="484" y="135" on="1"/>
        <pt x="470" y="283" on="1"/>
        <pt x="402" y="331" on="1"/>
        <pt x="332" y="342" on="1"/>
        <pt x="212" y="342" on="1"/>
        <pt x="222" y="45" on="1"/>
        <pt x="337" y="40" on="1"/>
        <pt x="408" y="55" on="1"/>
      </contour>
      <contour>
        <pt x="332" y="392" on="1"/>
        <pt x="436" y="447" on="1"/>
        <pt x="447" y="556" on="1"/>
        <pt x="396" y="639" on="1"/>
        <pt x="336" y="655" on="1"/>
        <pt x="219" y="652" on="1"/>
        <pt x="212" y="387" on="1"/>
      </contour>
      <contour>
        <pt x="337" y="700" on="1"/>
        <pt x="453" y="685" on="1"/>
        <pt x="547" y="590" on="1"/>
        <pt x="547" y="496" on="1"/>
        <pt x="493" y="415" on="1"/>
        <pt x="399" y="376" on="1"/>
        <pt x="399" y="374" on="1"/>
        <pt x="501" y="352" on="1"/>
        <pt x="575" y="276" on="1"/>
        <pt x="594" y="204" on="1"/>
        <pt x="556" y="71" on="1"/>
        <pt x="456" y="13" on="1"/>
        <pt x="333" y="-5" on="1"/>
        <pt x="172" y="0" on="1"/>
        <pt x="35" y="-10" on="1"/>
        <pt x="37" y="25" on="1"/>
        <pt x="117" y="50" on="1"/>
        <pt x="127" y="357" on="1"/>
        <pt x="117" y="650" on="1"/>
        <pt x="35" y="674" on="1"/>
        <pt x="40" y="709" on="1"/>
        <pt x="167" y="700" on="1"/>
      </contour>
    </TTGlyph>
    <TTGlyph name="C" xMin="44" yMin="-20" xMax="629" yMax="721">
      <contour>
        <pt x="614" y="70" on="1"/>
        <pt x="514" y="2" on="1"/>
        <pt x="324" y="-20" on="1"/>
        <pt x="135" y="70" on="1"/>
        <pt x="64" y="199" on="1"/>
        <pt x="44" y="328" on="1"/>
        <pt x="44" y="430" on="1"/>
        <pt x="98" y="561" on="1"/>
        <pt x="227" y="683" on="1"/>
        <pt x="364" y="721" on="1"/>
        <pt x="476" y="721" on="1"/>
        <pt x="629" y="682" on="1"/>
        <pt x="611" y="631" on="1"/>
        <pt x="597" y="510" on="1"/>
        <pt x="559" y="507" on="1"/>
        <pt x="536" y="647" on="1"/>
        <pt x="462" y="666" on="1"/>
        <pt x="342" y="666" on="1"/>
        <pt x="192" y="538" on="1"/>
        <pt x="159" y="374" on="1"/>
        <pt x="173" y="222" on="1"/>
        <pt x="231" y="115" on="1"/>
        <pt x="335" y="33" on="1"/>
        <pt x="498" y="47" on="1"/>
        <pt x="591" y="103" on="1"/>
      </contour>
    </TTGlyph>
    <TTGlyph name="Ccedilla" xMin="44" yMin="-223" xMax="629" yMax="721">
      <contour>
        <pt x="441" y="-44" on="1"/>
        <pt x="487" y="-92" on="1"/>
        <pt x="485" y="-149" on="1"/>
        <pt x="435" y="-211" on="1"/>
        <pt x="344" y="-223" on="1"/>
        <pt x="272" y="-210" on="1"/>
        <pt x="287" y="-181" on="1"/>
        <pt x="358" y="-194" on="1"/>
        <pt x="414" y="-171" on="1"/>
        <pt x="421" y="-123" on="1"/>
        <pt x="390" y="-94" on="1"/>
        <pt x="331" y="-85" on="1"/>
        <pt x="324" y="-20" on="1"/>
        <pt x="135" y="70" on="1"/>
        <pt x="64" y="199" on="1"/>
        <pt x="44" y="328" on="1"/>
        <pt x="44" y="430" on="1"/>
        <pt x="98" y="561" on="1"/>
        <pt x="227" y="683" on="1"/>
        <pt x="364" y="721" on="1"/>
        <pt x="476" y="721" on="1"/>
        <pt x="629" y="682" on="1"/>
        <pt x="611" y="631" on="1"/>
        <pt x="597" y="510" on="1"/>
        <pt x="559" y="507" on="1"/>
        <pt x="536" y="647" on="1"/>
        <pt x="462" y="666" on="1"/>
        <pt x="342" y="666" on="1"/>
        <pt x="192" y="538" on="1"/>
        <pt x="159" y="374" on="1"/>
        <pt x="173" y="222" on="1"/>
        <pt x="231" y="115" on="1"/>
        <pt x="335" y="33" on="1"/>
        <pt x="498" y="47" on="1"/>
        <pt x="591" y="103" on="1"/>
        <pt x="614" y="70" on="1"/>
        <pt x="514" y="2" on="1"/>
        <pt x="369" y="-15" on="1"/>
        <pt x="372" y="-36" on="1"/>
      </contour>
    </TTGlyph>
    <TTGlyph name="D" xMin="35" yMin="-8" xMax="693" yMax="709">
      <contour>
        <pt x="172" y="0" on="1"/>
        <pt x="35" y="-5" on="1"/>
        <pt x="37" y="30" on="1"/>
        <pt x="117" y="50" on="1"/>
        <pt x="127" y="332" on="1"/>
        <pt x="117" y="650" on="1"/>
        <pt x="40" y="670" on="1"/>
        <pt x="45" y="705" on="1"/>
        <pt x="167" y="700" on="1"/>
        <pt x="347" y="709" on="1"/>
        <pt x="467" y="682" on="1"/>
        <pt x="622" y="596" on="1"/>
        <pt x="682" y="473" on="1"/>
        <pt x="693" y="350" on="1"/>
        <pt x="640" y="126" on="1"/>
        <pt x="472" y="15" on="1"/>
        <pt x="347" y="-8" on="1"/>
      </contour>
      <contour>
        <pt x="348" y="45" on="1"/>
        <pt x="467" y="79" on="1"/>
        <pt x="548" y="157" on="1"/>
        <pt x="579" y="350" on="1"/>
        <pt x="560" y="522" on="1"/>
        <pt x="465" y="623" on="1"/>
        <pt x="349" y="655" on="1"/>
        <pt x="222" y="655" on="1"/>
        <pt x="213" y="531" on="1"/>
        <pt x="222" y="45" on="1"/>
      </contour>
    </TTGlyph>
    <TTGlyph name="E" xMin="35" yMin="-10" xMax="587" yMax="710">
      <contour>
        <pt x="214" y="330" on="1"/>
        <pt x="222" y="38" on="1"/>
        <pt x="511" y="45" on="1"/>
        <pt x="541" y="178" on="1"/>
        <pt x="576" y="169" on="1"/>
        <pt x="580" y="45" on="1"/>
        <pt x="587" y="-10" on="1"/>
        <pt x="466" y="0" on="1"/>
        <pt x="172" y="0" on="1"/>
        <pt x="35" y="-10" on="1"/>
        <pt x="37" y="25" on="1"/>
        <pt x="117" y="50" on="1"/>
        <pt x="127" y="357" on="1"/>
        <pt x="117" y="650" on="1"/>
        <pt x="36" y="674" on="1"/>
        <pt x="41" y="709" on="1"/>
        <pt x="167" y="700" on="1"/>
        <pt x="455" y="700" on="1"/>
        <pt x="552" y="710" on="1"/>
        <pt x="543" y="661" on="1"/>
        <pt x="541" y="530" on="1"/>
        <pt x="505" y="522" on="1"/>
        <pt x="479" y="655" on="1"/>
        <pt x="222" y="663" on="1"/>
        <pt x="214" y="382" on="1"/>
        <pt x="409" y="388" on="1"/>
        <pt x="428" y="483" on="1"/>
        <pt x="468" y="470" on="1"/>
        <pt x="458" y="356" on="1"/>
        <pt x="468" y="235" on="1"/>
        <pt x="428" y="241" on="1"/>
        <pt x="409" y="340" on="1"/>
      </contour>
    </TTGlyph>
    <TTGlyph name="Eacute" xMin="35" yMin="-10" xMax="587" yMax="912">
      <component glyphName="E" x="0" y="0" flags="0x204"/>
      <component glyphName="acute.case" x="238" y="-50" flags="0x4"/>
    </TTGlyph>
    <TTGlyph name="Ecircumflex" xMin="35" yMin="-10" xMax="587" yMax="927">
      <component glyphName="E" x="0" y="0" flags="0x204"/>
      <component glyphName="circumflex.case" x="160" y="-50" flags="0x4"/>
    </TTGlyph>
    <TTGlyph name="Edieresis" xMin="35" yMin="-10" xMax="587" yMax="900">
      <component glyphName="E" x="0" y="0" flags="0x204"/>
      <component glyphName="dieresis.case" x="153" y="-50" flags="0x4"/>
    </TTGlyph>
    <TTGlyph name="Egrave" xMin="35" yMin="-10" xMax="587" yMax="912">
      <component glyphName="E" x="0" y="0" flags="0x204"/>
      <component glyphName="grave.case" x="161" y="-50" flags="0x4"/>
    </TTGlyph>
    <TTGlyph name="Eth" xMin="32" yMin="-8" xMax="693" yMax="709">
      <contour>
        <pt x="172" y="0" on="1"/>
        <pt x="35" y="-5" on="1"/>
        <pt x="37" y="30" on="1"/>
        <pt x="117" y="50" on="1"/>
        <pt x="127" y="332" on="1"/>
        <pt x="126" y="343" on="1"/>
        <pt x="32" y="340" on="1"/>
        <pt x="43" y="395" on="1"/>
        <pt x="125" y="393" on="1"/>
        <pt x="117" y="650" on="1"/>
        <pt x="40" y="670" on="1"/>
        <pt x="45" y="705" on="1"/>
        <pt x="167" y="700" on="1"/>
        <pt x="347" y="709" on="1"/>
        <pt x="467" y="682" on="1"/>
        <pt x="622" y="596" on="1"/>
        <pt x="682" y="473" on="1"/>
        <pt x="693" y="350" on="1"/>
        <pt x="640" y="126" on="1"/>
        <pt x="472" y="15" on="1"/>
        <pt x="347" y="-8" on="1"/>
      </contour>
      <contour>
        <pt x="348" y="45" on="1"/>
        <pt x="467" y="79" on="1"/>
        <pt x="548" y="157" on="1"/>
        <pt x="579" y="350" on="1"/>
        <pt x="560" y="522" on="1"/>
        <pt x="465" y="623" on="1"/>
        <pt x="349" y="655" on="1"/>
        <pt x="222" y="655" on="1"/>
        <pt x="213" y="531" on="1"/>
        <pt x="215" y="391" on="1"/>
        <pt x="406" y="395" on="1"/>
        <pt x="395" y="340" on="1"/>
        <pt x="234" y="347" on="1"/>
        <pt x="216" y="346" on="1"/>
        <pt x="222" y="45" on="1"/>
      </contour>
    </TTGlyph>
    <TTGlyph name="Euro" xMin="57" yMin="-20" xMax="699" yMax="721">
      <contour>
        <pt x="694" y="70" on="1"/>
        <pt x="594" y="2" on="1"/>
        <pt x="404" y="-20" on="1"/>
        <pt x="215" y="70" on="1"/>
        <pt x="144" y="199" on="1"/>
        <pt x="135" y="258" on="1"/>
        <pt x="57" y="256" on="1"/>
        <pt x="67" y="306" on="1"/>
        <pt x="127" y="304" on="1"/>
        <pt x="124" y="328" on="1"/>
        <pt x="124" y="378" on="1"/>
        <pt x="57" y="376" on="1"/>
        <pt x="67" y="426" on="1"/>
        <pt x="124" y="424" on="1"/>
        <pt x="124" y="430" on="1"/>
        <pt x="178" y="561" on="1"/>
        <pt x="307" y="683" on="1"/>
        <pt x="444" y="721" on="1"/>
        <pt x="546" y="721" on="1"/>
        <pt x="699" y="682" on="1"/>
        <pt x="681" y="631" on="1"/>
        <pt x="627" y="510" on="1"/>
        <pt x="589" y="507" on="1"/>
        <pt x="606" y="647" on="1"/>
        <pt x="532" y="666" on="1"/>
        <pt x="422" y="666" on="1"/>
        <pt x="272" y="538" on="1"/>
        <pt x="248" y="421" on="1"/>
        <pt x="274" y="421" on="1"/>
        <pt x="442" y="426" on="1"/>
        <pt x="432" y="376" on="1"/>
        <pt x="240" y="379" on="1"/>
        <pt x="239" y="374" on="1"/>
        <pt x="245" y="301" on="1"/>
        <pt x="274" y="301" on="1"/>
        <pt x="402" y="306" on="1"/>
        <pt x="392" y="256" on="1"/>
        <pt x="249" y="259" on="1"/>
        <pt x="253" y="222" on="1"/>
        <pt x="311" y="115" on="1"/>
        <pt x="415" y="33" on="1"/>
        <pt x="578" y="47" on="1"/>
        <pt x="671" y="103" on="1"/>
      </contour>
    </TTGlyph>
    <TTGlyph name="F" xMin="35" yMin="-10" xMax="543" yMax="710">
      <contour>
        <pt x="543" y="710" on="1"/>
        <pt x="533" y="661" on="1"/>
        <pt x="532" y="530" on="1"/>
        <pt x="496" y="522" on="1"/>
        <pt x="470" y="655" on="1"/>
        <pt x="222" y="663" on="1"/>
        <pt x="212" y="392" on="1"/>
        <pt x="379" y="397" on="1"/>
        <pt x="399" y="493" on="1"/>
        <pt x="439" y="478" on="1"/>
        <pt x="429" y="364" on="1"/>
        <pt x="439" y="243" on="1"/>
        <pt x="399" y="251" on="1"/>
        <pt x="380" y="350" on="1"/>
        <pt x="212" y="340" on="1"/>
        <pt x="222" y="49" on="1"/>
        <pt x="315" y="30" on="1"/>
        <pt x="310" y="-5" on="1"/>
        <pt x="167" y="0" on="1"/>
        <pt x="35" y="-10" on="1"/>
        <pt x="37" y="25" on="1"/>
        <pt x="117" y="50" on="1"/>
        <pt x="127" y="357" on="1"/>
        <pt x="117" y="650" on="1"/>
        <pt x="36" y="674" on="1"/>
        <pt x="41" y="709" on="1"/>
        <pt x="167" y="700" on="1"/>
        <pt x="446" y="700" on="1"/>
      </contour>
    </TTGlyph>
    <TTGlyph name="G" xMin="44" yMin="-20" xMax="697" yMax="721">
      <contour>
        <pt x="521" y="60" on="1"/>
        <pt x="515" y="250" on="1"/>
        <pt x="438" y="270" on="1"/>
        <pt x="443" y="310" on="1"/>
        <pt x="569" y="300" on="1"/>
        <pt x="692" y="310" on="1"/>
        <pt x="697" y="270" on="1"/>
        <pt x="620" y="250" on="1"/>
        <pt x="613" y="42" on="1"/>
        <pt x="514" y="2" on="1"/>
        <pt x="324" y="-20" on="1"/>
        <pt x="135" y="70" on="1"/>
        <pt x="64" y="199" on="1"/>
        <pt x="44" y="328" on="1"/>
        <pt x="44" y="430" on="1"/>
        <pt x="98" y="561" on="1"/>
        <pt x="227" y="683" on="1"/>
        <pt x="364" y="721" on="1"/>
        <pt x="476" y="721" on="1"/>
        <pt x="629" y="682" on="1"/>
        <pt x="611" y="631" on="1"/>
        <pt x="597" y="510" on="1"/>
        <pt x="559" y="507" on="1"/>
        <pt x="536" y="647" on="1"/>
        <pt x="462" y="666" on="1"/>
        <pt x="342" y="666" on="1"/>
        <pt x="192" y="538" on="1"/>
        <pt x="159" y="374" on="1"/>
        <pt x="173" y="222" on="1"/>
        <pt x="231" y="115" on="1"/>
        <pt x="335" y="33" on="1"/>
        <pt x="498" y="47" on="1"/>
      </contour>
    </TTGlyph>
    <TTGlyph name="H" xMin="35" yMin="-7" xMax="743" yMax="710">
      <contour>
        <pt x="661" y="50" on="1"/>
        <pt x="738" y="30" on="1"/>
        <pt x="733" y="-5" on="1"/>
        <pt x="611" y="0" on="1"/>
        <pt x="474" y="-5" on="1"/>
        <pt x="476" y="30" on="1"/>
        <pt x="556" y="50" on="1"/>
        <pt x="566" y="340" on="1"/>
        <pt x="394" y="345" on="1"/>
        <pt x="211" y="340" on="1"/>
        <pt x="218" y="49" on="1"/>
        <pt x="298" y="30" on="1"/>
        <pt x="288" y="-7" on="1"/>
        <pt x="171" y="0" on="1"/>
        <pt x="35" y="-7" on="1"/>
        <pt x="41" y="30" on="1"/>
        <pt x="120" y="49" on="1"/>
        <pt x="126" y="366" on="1"/>
        <pt x="116" y="650" on="1"/>
        <pt x="39" y="670" on="1"/>
        <pt x="44" y="710" on="1"/>
        <pt x="166" y="700" on="1"/>
        <pt x="303" y="710" on="1"/>
        <pt x="301" y="670" on="1"/>
        <pt x="221" y="650" on="1"/>
        <pt x="211" y="395" on="1"/>
        <pt x="394" y="392" on="1"/>
        <pt x="566" y="395" on="1"/>
        <pt x="556" y="650" on="1"/>
        <pt x="479" y="670" on="1"/>
        <pt x="484" y="710" on="1"/>
        <pt x="606" y="700" on="1"/>
        <pt x="743" y="710" on="1"/>
        <pt x="741" y="670" on="1"/>
        <pt x="661" y="650" on="1"/>
        <pt x="651" y="366" on="1"/>
      </contour>
    </TTGlyph>
    <TTGlyph name="I" xMin="35" yMin="-10" xMax="304" yMax="710">
      <contour>
        <pt x="220" y="141" on="1"/>
        <pt x="226" y="50" on="1"/>
        <pt x="299" y="30" on="1"/>
        <pt x="294" y="-10" on="1"/>
        <pt x="172" y="0" on="1"/>
        <pt x="35" y="-10" on="1"/>
        <pt x="37" y="30" on="1"/>
        <pt x="112" y="50" on="1"/>
        <pt x="119" y="158" on="1"/>
        <pt x="123" y="364" on="1"/>
        <pt x="120" y="561" on="1"/>
        <pt x="113" y="650" on="1"/>
        <pt x="40" y="670" on="1"/>
        <pt x="45" y="710" on="1"/>
        <pt x="167" y="700" on="1"/>
        <pt x="304" y="710" on="1"/>
        <pt x="302" y="670" on="1"/>
        <pt x="226" y="650" on="1"/>
        <pt x="219" y="563" on="1"/>
        <pt x="215" y="362" on="1"/>
      </contour>
    </TTGlyph>
    <TTGlyph name="Iacute" xMin="35" yMin="-10" xMax="319" yMax="913">
      <component glyphName="I" x="0" y="0" flags="0x204"/>
      <component glyphName="acute.case" x="95" y="-49" flags="0x4"/>
    </TTGlyph>
    <TTGlyph name="Icircumflex" xMin="16" yMin="-10" xMax="326" yMax="928">
      <component glyphName="I" x="0" y="0" flags="0x204"/>
      <component glyphName="circumflex.case" x="-2" y="-49" flags="0x4"/>
    </TTGlyph>
    <TTGlyph name="Idieresis" xMin="8" yMin="-10" xMax="332" yMax="901">
      <component glyphName="I" x="0" y="0" flags="0x204"/>
      <component glyphName="dieresis.case" x="-9" y="-49" flags="0x4"/>
    </TTGlyph>
    <TTGlyph name="Igrave" xMin="15" yMin="-10" xMax="304" yMax="913">
      <component glyphName="I" x="0" y="0" flags="0x204"/>
      <component glyphName="grave.case" x="-11" y="-49" flags="0x4"/>
    </TTGlyph>
    <TTGlyph name="J" xMin="-9" yMin="-106" xMax="298" yMax="710">
      <contour>
        <pt x="117" y="538" on="1"/>
        <pt x="111" y="650" on="1"/>
        <pt x="34" y="670" on="1"/>
        <pt x="39" y="710" on="1"/>
        <pt x="161" y="700" on="1"/>
        <pt x="298" y="710" on="1"/>
        <pt x="296" y="670" on="1"/>
        <pt x="216" y="650" on="1"/>
        <pt x="209" y="398" on="1"/>
        <pt x="216" y="109" on="1"/>
        <pt x="180" y="9" on="1"/>
        <pt x="118" y="-50" on="1"/>
        <pt x="11" y="-106" on="1"/>
        <pt x="-9" y="-81" on="1"/>
        <pt x="93" y="-3" on="1"/>
        <pt x="115" y="108" on="1"/>
      </contour>
    </TTGlyph>
    <TTGlyph name="K" xMin="35" yMin="-10" xMax="677" yMax="710">
      <contour>
        <pt x="346" y="389" on="1"/>
        <pt x="581" y="59" on="1"/>
        <pt x="677" y="30" on="1"/>
        <pt x="672" y="-10" on="1"/>
        <pt x="550" y="0" on="1"/>
        <pt x="398" y="-10" on="1"/>
        <pt x="400" y="30" on="1"/>
        <pt x="475" y="49" on="1"/>
        <pt x="435" y="119" on="1"/>
        <pt x="292" y="324" on="1"/>
        <pt x="212" y="314" on="1"/>
        <pt x="217" y="50" on="1"/>
        <pt x="299" y="30" on="1"/>
        <pt x="294" y="-10" on="1"/>
        <pt x="172" y="0" on="1"/>
        <pt x="35" y="-10" on="1"/>
        <pt x="37" y="30" on="1"/>
        <pt x="120" y="50" on="1"/>
        <pt x="127" y="336" on="1"/>
        <pt x="119" y="650" on="1"/>
        <pt x="40" y="670" on="1"/>
        <pt x="45" y="710" on="1"/>
        <pt x="167" y="700" on="1"/>
        <pt x="304" y="710" on="1"/>
        <pt x="302" y="670" on="1"/>
        <pt x="218" y="650" on="1"/>
        <pt x="211" y="360" on="1"/>
        <pt x="270" y="369" on="1"/>
        <pt x="445" y="590" on="1"/>
        <pt x="478" y="654" on="1"/>
        <pt x="415" y="670" on="1"/>
        <pt x="420" y="710" on="1"/>
        <pt x="544" y="700" on="1"/>
        <pt x="648" y="710" on="1"/>
        <pt x="646" y="670" on="1"/>
        <pt x="550" y="637" on="1"/>
      </contour>
    </TTGlyph>
    <TTGlyph name="L" xMin="39" yMin="-10" xMax="538" yMax="710">
      <contour>
        <pt x="172" y="0" on="1"/>
        <pt x="39" y="-10" on="1"/>
        <pt x="41" y="30" on="1"/>
        <pt x="117" y="50" on="1"/>
        <pt x="127" y="356" on="1"/>
        <pt x="117" y="650" on="1"/>
        <pt x="40" y="670" on="1"/>
        <pt x="45" y="710" on="1"/>
        <pt x="167" y="700" on="1"/>
        <pt x="304" y="710" on="1"/>
        <pt x="302" y="670" on="1"/>
        <pt x="222" y="650" on="1"/>
        <pt x="212" y="356" on="1"/>
        <pt x="222" y="46" on="1"/>
        <pt x="466" y="65" on="1"/>
        <pt x="491" y="188" on="1"/>
        <pt x="526" y="185" on="1"/>
        <pt x="531" y="55" on="1"/>
        <pt x="538" y="0" on="1"/>
        <pt x="417" y="10" on="1"/>
      </contour>
    </TTGlyph>
    <TTGlyph name="M" xMin="21" yMin="-20" xMax="899" yMax="705">
      <contour>
        <pt x="107" y="138" on="1"/>
        <pt x="146" y="650" on="1"/>
        <pt x="64" y="670" on="1"/>
        <pt x="69" y="705" on="1"/>
        <pt x="191" y="700" on="1"/>
        <pt x="256" y="700" on="1"/>
        <pt x="256" y="680" on="1"/>
        <pt x="412" y="291" on="1"/>
        <pt x="457" y="160" on="1"/>
        <pt x="459" y="160" on="1"/>
        <pt x="499" y="284" on="1"/>
        <pt x="657" y="680" on="1"/>
        <pt x="657" y="700" on="1"/>
        <pt x="717" y="700" on="1"/>
        <pt x="854" y="705" on="1"/>
        <pt x="852" y="670" on="1"/>
        <pt x="769" y="650" on="1"/>
        <pt x="813" y="150" on="1"/>
        <pt x="831" y="48" on="1"/>
        <pt x="899" y="30" on="1"/>
        <pt x="894" y="-5" on="1"/>
        <pt x="772" y="0" on="1"/>
        <pt x="635" y="-5" on="1"/>
        <pt x="637" y="30" on="1"/>
        <pt x="709" y="47" on="1"/>
        <pt x="712" y="140" on="1"/>
        <pt x="703" y="290" on="1"/>
        <pt x="675" y="590" on="1"/>
        <pt x="670" y="590" on="1"/>
        <pt x="631" y="468" on="1"/>
        <pt x="468" y="46" on="1"/>
        <pt x="484" y="0" on="1"/>
        <pt x="436" y="-20" on="1"/>
        <pt x="417" y="27" on="1"/>
        <pt x="231" y="471" on="1"/>
        <pt x="192" y="590" on="1"/>
        <pt x="188" y="590" on="1"/>
        <pt x="167" y="267" on="1"/>
        <pt x="163" y="136" on="1"/>
        <pt x="165" y="49" on="1"/>
        <pt x="238" y="29" on="1"/>
        <pt x="233" y="-6" on="1"/>
        <pt x="128" y="0" on="1"/>
        <pt x="21" y="-5" on="1"/>
        <pt x="23" y="30" on="1"/>
        <pt x="92" y="50" on="1"/>
      </contour>
    </TTGlyph>
    <TTGlyph name="N" xMin="36" yMin="-30" xMax="728" yMax="710">
      <contour>
        <pt x="618" y="700" on="1"/>
        <pt x="728" y="710" on="1"/>
        <pt x="726" y="670" on="1"/>
        <pt x="649" y="653" on="1"/>
        <pt x="644" y="577" on="1"/>
        <pt x="652" y="-20" on="1"/>
        <pt x="622" y="-30" on="1"/>
        <pt x="605" y="0" on="1"/>
        <pt x="364" y="307" on="1"/>
        <pt x="210" y="501" on="1"/>
        <pt x="170" y="577" on="1"/>
        <pt x="168" y="577" on="1"/>
        <pt x="171" y="492" on="1"/>
        <pt x="171" y="132" on="1"/>
        <pt x="172" y="47" on="1"/>
        <pt x="248" y="29" on="1"/>
        <pt x="243" y="-10" on="1"/>
        <pt x="138" y="0" on="1"/>
        <pt x="36" y="-10" on="1"/>
        <pt x="38" y="30" on="1"/>
        <pt x="106" y="46" on="1"/>
        <pt x="114" y="132" on="1"/>
        <pt x="121" y="650" on="1"/>
        <pt x="39" y="670" on="1"/>
        <pt x="44" y="710" on="1"/>
        <pt x="166" y="700" on="1"/>
        <pt x="216" y="700" on="1"/>
        <pt x="244" y="638" on="1"/>
        <pt x="509" y="285" on="1"/>
        <pt x="593" y="149" on="1"/>
        <pt x="595" y="149" on="1"/>
        <pt x="594" y="245" on="1"/>
        <pt x="591" y="574" on="1"/>
        <pt x="586" y="653" on="1"/>
        <pt x="513" y="670" on="1"/>
        <pt x="518" y="710" on="1"/>
      </contour>
    </TTGlyph>
    <TTGlyph name="Ntilde" xMin="36" yMin="-30" xMax="728" yMax="893">
      <component glyphName="N" x="0" y="0" flags="0x204"/>
      <component glyphName="tilde.case" x="224" y="-50" flags="0x4"/>
    </TTGlyph>
    <TTGlyph name="O" xMin="44" yMin="-24" xMax="710" yMax="715">
      <contour>
        <pt x="465" y="715" on="1"/>
        <pt x="616" y="631" on="1"/>
        <pt x="689" y="509" on="1"/>
        <pt x="710" y="344" on="1"/>
        <pt x="659" y="136" on="1"/>
        <pt x="527" y="10" on="1"/>
        <pt x="375" y="-24" on="1"/>
        <pt x="213" y="12" on="1"/>
        <pt x="89" y="140" on="1"/>
        <pt x="56" y="234" on="1"/>
        <pt x="44" y="418" on="1"/>
        <pt x="87" y="549" on="1"/>
        <pt x="159" y="650" on="1"/>
        <pt x="307" y="715" on="1"/>
      </contour>
      <contour>
        <pt x="376" y="26" on="1"/>
        <pt x="495" y="46" on="1"/>
        <pt x="581" y="204" on="1"/>
        <pt x="601" y="342" on="1"/>
        <pt x="586" y="474" on="1"/>
        <pt x="537" y="589" on="1"/>
        <pt x="431" y="670" on="1"/>
        <pt x="302" y="661" on="1"/>
        <pt x="211" y="581" on="1"/>
        <pt x="185" y="520" on="1"/>
        <pt x="162" y="434" on="1"/>
        <pt x="166" y="236" on="1"/>
        <pt x="246" y="84" on="1"/>
      </contour>
    </TTGlyph>
    <TTGlyph name="OE" xMin="44" yMin="-24" xMax="1055" yMax="715">
      <contour>
        <pt x="465" y="715" on="1"/>
        <pt x="583" y="637" on="1"/>
        <pt x="579" y="704" on="1"/>
        <pt x="631" y="700" on="1"/>
        <pt x="923" y="700" on="1"/>
        <pt x="1020" y="710" on="1"/>
        <pt x="1011" y="661" on="1"/>
        <pt x="1009" y="530" on="1"/>
        <pt x="973" y="522" on="1"/>
        <pt x="947" y="655" on="1"/>
        <pt x="686" y="663" on="1"/>
        <pt x="678" y="379" on="1"/>
        <pt x="877" y="388" on="1"/>
        <pt x="896" y="483" on="1"/>
        <pt x="936" y="470" on="1"/>
        <pt x="926" y="356" on="1"/>
        <pt x="936" y="235" on="1"/>
        <pt x="896" y="241" on="1"/>
        <pt x="877" y="340" on="1"/>
        <pt x="678" y="330" on="1"/>
        <pt x="686" y="38" on="1"/>
        <pt x="979" y="45" on="1"/>
        <pt x="1009" y="178" on="1"/>
        <pt x="1044" y="169" on="1"/>
        <pt x="1048" y="45" on="1"/>
        <pt x="1055" y="-10" on="1"/>
        <pt x="934" y="0" on="1"/>
        <pt x="636" y="0" on="1"/>
        <pt x="579" y="-3" on="1"/>
        <pt x="584" y="80" on="1"/>
        <pt x="527" y="10" on="1"/>
        <pt x="375" y="-24" on="1"/>
        <pt x="213" y="12" on="1"/>
        <pt x="89" y="140" on="1"/>
        <pt x="56" y="234" on="1"/>
        <pt x="44" y="418" on="1"/>
        <pt x="87" y="549" on="1"/>
        <pt x="159" y="650" on="1"/>
        <pt x="307" y="715" on="1"/>
      </contour>
      <contour>
        <pt x="376" y="26" on="1"/>
        <pt x="495" y="46" on="1"/>
        <pt x="581" y="204" on="1"/>
        <pt x="601" y="342" on="1"/>
        <pt x="586" y="464" on="1"/>
        <pt x="537" y="589" on="1"/>
        <pt x="430" y="666" on="1"/>
        <pt x="306" y="665" on="1"/>
        <pt x="211" y="581" on="1"/>
        <pt x="185" y="520" on="1"/>
        <pt x="162" y="434" on="1"/>
        <pt x="166" y="236" on="1"/>
        <pt x="246" y="84" on="1"/>
      </contour>
    </TTGlyph>
    <TTGlyph name="Oacute" xMin="44" yMin="-24" xMax="710" yMax="912">
      <component glyphName="O" x="0" y="0" flags="0x204"/>
      <component glyphName="acute.case" x="289" y="-50" flags="0x4"/>
    </TTGlyph>
    <TTGlyph name="Ocircumflex" xMin="44" yMin="-24" xMax="710" yMax="927">
      <component glyphName="O" x="0" y="0" flags="0x204"/>
      <component glyphName="circumflex.case" x="211" y="-50" flags="0x4"/>
    </TTGlyph>
    <TTGlyph name="Odieresis" xMin="44" yMin="-24" xMax="710" yMax="900">
      <component glyphName="O" x="0" y="0" flags="0x204"/>
      <component glyphName="dieresis.case" x="194" y="-50" flags="0x4"/>
    </TTGlyph>
    <TTGlyph name="Ograve" xMin="44" yMin="-24" xMax="710" yMax="912">
      <component glyphName="O" x="0" y="0" flags="0x204"/>
      <component glyphName="grave.case" x="212" y="-50" flags="0x4"/>
    </TTGlyph>
    <TTGlyph name="Oslash" xMin="44" yMin="-50" xMax="710" yMax="765">
      <contour>
        <pt x="465" y="715" on="1"/>
        <pt x="530" y="679" on="1"/>
        <pt x="579" y="765" on="1"/>
        <pt x="638" y="755" on="1"/>
        <pt x="579" y="651" on="1"/>
        <pt x="616" y="631" on="1"/>
        <pt x="689" y="509" on="1"/>
        <pt x="710" y="344" on="1"/>
        <pt x="659" y="136" on="1"/>
        <pt x="527" y="10" on="1"/>
        <pt x="375" y="-24" on="1"/>
        <pt x="216" y="11" on="1"/>
        <pt x="181" y="-50" on="1"/>
        <pt x="120" y="-40" on="1"/>
        <pt x="173" y="53" on="1"/>
        <pt x="89" y="140" on="1"/>
        <pt x="56" y="234" on="1"/>
        <pt x="44" y="418" on="1"/>
        <pt x="87" y="549" on="1"/>
        <pt x="159" y="650" on="1"/>
        <pt x="307" y="715" on="1"/>
      </contour>
      <contour>
        <pt x="540" y="582" on="1"/>
        <pt x="255" y="80" on="1"/>
        <pt x="376" y="26" on="1"/>
        <pt x="495" y="46" on="1"/>
        <pt x="581" y="204" on="1"/>
        <pt x="601" y="342" on="1"/>
        <pt x="586" y="474" on="1"/>
      </contour>
      <contour>
        <pt x="166" y="236" on="1"/>
        <pt x="219" y="134" on="1"/>
        <pt x="496" y="620" on="1"/>
        <pt x="431" y="670" on="1"/>
        <pt x="302" y="661" on="1"/>
        <pt x="211" y="581" on="1"/>
        <pt x="185" y="520" on="1"/>
        <pt x="162" y="434" on="1"/>
      </contour>
    </TTGlyph>
    <TTGlyph name="Otilde" xMin="44" yMin="-24" xMax="710" yMax="893">
      <component glyphName="O" x="0" y="0" flags="0x204"/>
      <component glyphName="tilde.case" x="214" y="-50" flags="0x4"/>
    </TTGlyph>
    <TTGlyph name="P" xMin="35" yMin="-10" xMax="568" yMax="711">
      <contour>
        <pt x="212" y="292" on="1"/>
        <pt x="222" y="50" on="1"/>
        <pt x="319" y="30" on="1"/>
        <pt x="314" y="-10" on="1"/>
        <pt x="172" y="0" on="1"/>
        <pt x="35" y="-10" on="1"/>
        <pt x="37" y="30" on="1"/>
        <pt x="120" y="50" on="1"/>
        <pt x="127" y="306" on="1"/>
        <pt x="122" y="650" on="1"/>
        <pt x="40" y="670" on="1"/>
        <pt x="45" y="710" on="1"/>
        <pt x="167" y="700" on="1"/>
        <pt x="301" y="711" on="1"/>
        <pt x="383" y="705" on="1"/>
        <pt x="464" y="679" on="1"/>
        <pt x="543" y="619" on="1"/>
        <pt x="568" y="516" on="1"/>
        <pt x="550" y="405" on="1"/>
        <pt x="489" y="335" on="1"/>
        <pt x="313" y="280" on="1"/>
      </contour>
      <contour>
        <pt x="219" y="655" on="1"/>
        <pt x="213" y="336" on="1"/>
        <pt x="301" y="325" on="1"/>
        <pt x="436" y="382" on="1"/>
        <pt x="465" y="495" on="1"/>
        <pt x="444" y="587" on="1"/>
        <pt x="365" y="664" on="1"/>
      </contour>
    </TTGlyph>
    <TTGlyph name="Q" xMin="44" yMin="-211" xMax="819" yMax="715">
      <contour>
        <pt x="465" y="715" on="1"/>
        <pt x="616" y="631" on="1"/>
        <pt x="689" y="509" on="1"/>
        <pt x="710" y="344" on="1"/>
        <pt x="659" y="136" on="1"/>
        <pt x="527" y="10" on="1"/>
        <pt x="415" y="-15" on="1"/>
        <pt x="517" y="-79" on="1"/>
        <pt x="614" y="-119" on="1"/>
        <pt x="726" y="-133" on="1"/>
        <pt x="807" y="-112" on="1"/>
        <pt x="819" y="-134" on="1"/>
        <pt x="744" y="-186" on="1"/>
        <pt x="671" y="-211" on="1"/>
        <pt x="578" y="-191" on="1"/>
        <pt x="486" y="-141" on="1"/>
        <pt x="339" y="-16" on="1"/>
        <pt x="213" y="12" on="1"/>
        <pt x="89" y="140" on="1"/>
        <pt x="56" y="234" on="1"/>
        <pt x="44" y="418" on="1"/>
        <pt x="87" y="549" on="1"/>
        <pt x="159" y="650" on="1"/>
        <pt x="307" y="715" on="1"/>
      </contour>
      <contour>
        <pt x="376" y="26" on="1"/>
        <pt x="495" y="46" on="1"/>
        <pt x="581" y="204" on="1"/>
        <pt x="601" y="342" on="1"/>
        <pt x="586" y="474" on="1"/>
        <pt x="537" y="589" on="1"/>
        <pt x="431" y="670" on="1"/>
        <pt x="302" y="661" on="1"/>
        <pt x="211" y="581" on="1"/>
        <pt x="185" y="520" on="1"/>
        <pt x="162" y="434" on="1"/>
        <pt x="166" y="236" on="1"/>
        <pt x="246" y="84" on="1"/>
      </contour>
    </TTGlyph>
    <TTGlyph name="R" xMin="35" yMin="-18" xMax="650" yMax="711">
      <contour>
        <pt x="212" y="318" on="1"/>
        <pt x="222" y="50" on="1"/>
        <pt x="319" y="30" on="1"/>
        <pt x="314" y="-10" on="1"/>
        <pt x="172" y="0" on="1"/>
        <pt x="35" y="-10" on="1"/>
        <pt x="37" y="30" on="1"/>
        <pt x="120" y="50" on="1"/>
        <pt x="127" y="306" on="1"/>
        <pt x="122" y="650" on="1"/>
        <pt x="40" y="670" on="1"/>
        <pt x="45" y="710" on="1"/>
        <pt x="167" y="700" on="1"/>
        <pt x="301" y="711" on="1"/>
        <pt x="383" y="705" on="1"/>
        <pt x="464" y="679" on="1"/>
        <pt x="543" y="619" on="1"/>
        <pt x="568" y="516" on="1"/>
        <pt x="550" y="405" on="1"/>
        <pt x="489" y="361" on="1"/>
        <pt x="423" y="342" on="1"/>
        <pt x="566" y="39" on="1"/>
        <pt x="644" y="39" on="1"/>
        <pt x="650" y="6" on="1"/>
        <pt x="533" y="-18" on="1"/>
        <pt x="468" y="35" on="1"/>
        <pt x="344" y="320" on="1"/>
        <pt x="313" y="312" on="1"/>
      </contour>
      <contour>
        <pt x="219" y="655" on="1"/>
        <pt x="213" y="362" on="1"/>
        <pt x="301" y="357" on="1"/>
        <pt x="436" y="408" on="1"/>
        <pt x="465" y="495" on="1"/>
        <pt x="444" y="587" on="1"/>
        <pt x="365" y="664" on="1"/>
      </contour>
    </TTGlyph>
    <TTGlyph name="S" xMin="47" yMin="-20" xMax="503" yMax="720">
      <contour>
        <pt x="366" y="63" on="1"/>
        <pt x="405" y="117" on="1"/>
        <pt x="403" y="206" on="1"/>
        <pt x="358" y="254" on="1"/>
        <pt x="104" y="395" on="1"/>
        <pt x="58" y="503" on="1"/>
        <pt x="67" y="597" on="1"/>
        <pt x="124" y="674" on="1"/>
        <pt x="263" y="720" on="1"/>
        <pt x="416" y="708" on="1"/>
        <pt x="463" y="712" on="1"/>
        <pt x="455" y="661" on="1"/>
        <pt x="456" y="530" on="1"/>
        <pt x="419" y="522" on="1"/>
        <pt x="393" y="654" on="1"/>
        <pt x="275" y="670" on="1"/>
        <pt x="174" y="632" on="1"/>
        <pt x="151" y="566" on="1"/>
        <pt x="173" y="481" on="1"/>
        <pt x="425" y="343" on="1"/>
        <pt x="499" y="266" on="1"/>
        <pt x="503" y="108" on="1"/>
        <pt x="426" y="12" on="1"/>
        <pt x="279" y="-20" on="1"/>
        <pt x="94" y="2" on="1"/>
        <pt x="47" y="9" on="1"/>
        <pt x="55" y="48" on="1"/>
        <pt x="64" y="179" on="1"/>
        <pt x="101" y="187" on="1"/>
        <pt x="117" y="55" on="1"/>
        <pt x="239" y="34" on="1"/>
      </contour>
    </TTGlyph>
    <TTGlyph name="T" xMin="7" yMin="-10" xMax="619" yMax="710">
      <contour>
        <pt x="124" y="700" on="1"/>
        <pt x="502" y="700" on="1"/>
        <pt x="619" y="710" on="1"/>
        <pt x="604" y="641" on="1"/>
        <pt x="598" y="515" on="1"/>
        <pt x="552" y="512" on="1"/>
        <pt x="536" y="655" on="1"/>
        <pt x="361" y="664" on="1"/>
        <pt x="352" y="328" on="1"/>
        <pt x="358" y="140" on="1"/>
        <pt x="363" y="50" on="1"/>
        <pt x="440" y="25" on="1"/>
        <pt x="433" y="-10" on="1"/>
        <pt x="311" y="0" on="1"/>
        <pt x="174" y="-10" on="1"/>
        <pt x="176" y="25" on="1"/>
        <pt x="258" y="49" on="1"/>
        <pt x="259" y="152" on="1"/>
        <pt x="266" y="436" on="1"/>
        <pt x="256" y="664" on="1"/>
        <pt x="90" y="655" on="1"/>
        <pt x="74" y="512" on="1"/>
        <pt x="28" y="515" on="1"/>
        <pt x="22" y="641" on="1"/>
        <pt x="7" y="710" on="1"/>
      </contour>
    </TTGlyph>
    <TTGlyph name="Thorn" xMin="35" yMin="-10" xMax="545" yMax="710">
      <contour>
        <pt x="219" y="153" on="1"/>
        <pt x="220" y="141" on="1"/>
        <pt x="226" y="50" on="1"/>
        <pt x="299" y="30" on="1"/>
        <pt x="294" y="-10" on="1"/>
        <pt x="172" y="0" on="1"/>
        <pt x="35" y="-10" on="1"/>
        <pt x="37" y="30" on="1"/>
        <pt x="112" y="50" on="1"/>
        <pt x="119" y="158" on="1"/>
        <pt x="123" y="364" on="1"/>
        <pt x="120" y="561" on="1"/>
        <pt x="113" y="650" on="1"/>
        <pt x="40" y="670" on="1"/>
        <pt x="45" y="710" on="1"/>
        <pt x="167" y="700" on="1"/>
        <pt x="304" y="710" on="1"/>
        <pt x="302" y="670" on="1"/>
        <pt x="226" y="650" on="1"/>
        <pt x="219" y="568" on="1"/>
        <pt x="278" y="576" on="1"/>
        <pt x="360" y="570" on="1"/>
        <pt x="441" y="544" on="1"/>
        <pt x="520" y="484" on="1"/>
        <pt x="545" y="381" on="1"/>
        <pt x="527" y="270" on="1"/>
        <pt x="466" y="200" on="1"/>
        <pt x="290" y="145" on="1"/>
      </contour>
      <contour>
        <pt x="218" y="197" on="1"/>
        <pt x="278" y="190" on="1"/>
        <pt x="413" y="247" on="1"/>
        <pt x="442" y="360" on="1"/>
        <pt x="421" y="452" on="1"/>
        <pt x="342" y="529" on="1"/>
        <pt x="218" y="521" on="1"/>
        <pt x="215" y="362" on="1"/>
      </contour>
    </TTGlyph>
    <TTGlyph name="U" xMin="24" yMin="-17" xMax="723" yMax="710">
      <contour>
        <pt x="645" y="588" on="1"/>
        <pt x="641" y="275" on="1"/>
        <pt x="620" y="105" on="1"/>
        <pt x="524" y="1" on="1"/>
        <pt x="447" y="-17" on="1"/>
        <pt x="331" y="-17" on="1"/>
        <pt x="194" y="12" on="1"/>
        <pt x="120" y="117" on="1"/>
        <pt x="101" y="265" on="1"/>
        <pt x="109" y="559" on="1"/>
        <pt x="104" y="650" on="1"/>
        <pt x="24" y="670" on="1"/>
        <pt x="29" y="710" on="1"/>
        <pt x="151" y="700" on="1"/>
        <pt x="288" y="710" on="1"/>
        <pt x="286" y="670" on="1"/>
        <pt x="219" y="650" on="1"/>
        <pt x="208" y="555" on="1"/>
        <pt x="200" y="326" on="1"/>
        <pt x="207" y="167" on="1"/>
        <pt x="252" y="77" on="1"/>
        <pt x="377" y="30" on="1"/>
        <pt x="491" y="48" on="1"/>
        <pt x="564" y="148" on="1"/>
        <pt x="586" y="305" on="1"/>
        <pt x="580" y="580" on="1"/>
        <pt x="573" y="654" on="1"/>
        <pt x="509" y="670" on="1"/>
        <pt x="514" y="710" on="1"/>
        <pt x="616" y="700" on="1"/>
        <pt x="723" y="710" on="1"/>
        <pt x="721" y="670" on="1"/>
        <pt x="652" y="654" on="1"/>
      </contour>
    </TTGlyph>
    <TTGlyph name="Uacute" xMin="24" yMin="-17" xMax="723" yMax="911">
      <component glyphName="U" x="0" y="0" flags="0x204"/>
      <component glyphName="acute.case" x="324" y="-51" flags="0x4"/>
    </TTGlyph>
    <TTGlyph name="Ucircumflex" xMin="24" yMin="-17" xMax="723" yMax="926">
      <component glyphName="U" x="0" y="0" flags="0x204"/>
      <component glyphName="circumflex.case" x="235" y="-51" flags="0x4"/>
    </TTGlyph>
    <TTGlyph name="Udieresis" xMin="24" yMin="-17" xMax="723" yMax="899">
      <component glyphName="U" x="0" y="0" flags="0x204"/>
      <component glyphName="dieresis.case" x="218" y="-51" flags="0x4"/>
    </TTGlyph>
    <TTGlyph name="Ugrave" xMin="24" yMin="-17" xMax="723" yMax="911">
      <component glyphName="U" x="0" y="0" flags="0x204"/>
      <component glyphName="grave.case" x="206" y="-51" flags="0x4"/>
    </TTGlyph>
    <TTGlyph name="V" xMin="-15" yMin="-29" xMax="687" yMax="710">
      <contour>
        <pt x="562" y="537" on="1"/>
        <pt x="391" y="36" on="1"/>
        <pt x="350" y="-25" on="1"/>
        <pt x="317" y="-29" on="1"/>
        <pt x="296" y="63" on="1"/>
        <pt x="193" y="341" on="1"/>
        <pt x="102" y="556" on="1"/>
        <pt x="51" y="652" on="1"/>
        <pt x="-15" y="670" on="1"/>
        <pt x="-10" y="710" on="1"/>
        <pt x="127" y="700" on="1"/>
        <pt x="260" y="710" on="1"/>
        <pt x="258" y="670" on="1"/>
        <pt x="188" y="654" on="1"/>
        <pt x="208" y="568" on="1"/>
        <pt x="327" y="259" on="1"/>
        <pt x="366" y="102" on="1"/>
        <pt x="368" y="102" on="1"/>
        <pt x="423" y="272" on="1"/>
        <pt x="524" y="573" on="1"/>
        <pt x="540" y="653" on="1"/>
        <pt x="471" y="670" on="1"/>
        <pt x="476" y="710" on="1"/>
        <pt x="579" y="700" on="1"/>
        <pt x="687" y="710" on="1"/>
        <pt x="685" y="670" on="1"/>
        <pt x="614" y="652" on="1"/>
      </contour>
    </TTGlyph>
    <TTGlyph name="W" xMin="-22" yMin="-29" xMax="995" yMax="710">
      <contour>
        <pt x="880" y="553" on="1"/>
        <pt x="741" y="36" on="1"/>
        <pt x="707" y="-25" on="1"/>
        <pt x="674" y="-29" on="1"/>
        <pt x="643" y="63" on="1"/>
        <pt x="546" y="338" on="1"/>
        <pt x="491" y="497" on="1"/>
        <pt x="342" y="36" on="1"/>
        <pt x="301" y="-25" on="1"/>
        <pt x="268" y="-29" on="1"/>
        <pt x="247" y="63" on="1"/>
        <pt x="157" y="341" on="1"/>
        <pt x="95" y="556" on="1"/>
        <pt x="55" y="652" on="1"/>
        <pt x="-22" y="670" on="1"/>
        <pt x="-17" y="710" on="1"/>
        <pt x="120" y="700" on="1"/>
        <pt x="253" y="710" on="1"/>
        <pt x="251" y="670" on="1"/>
        <pt x="181" y="654" on="1"/>
        <pt x="201" y="568" on="1"/>
        <pt x="278" y="259" on="1"/>
        <pt x="317" y="102" on="1"/>
        <pt x="319" y="102" on="1"/>
        <pt x="369" y="272" on="1"/>
        <pt x="464" y="573" on="1"/>
        <pt x="431" y="650" on="1"/>
        <pt x="352" y="670" on="1"/>
        <pt x="357" y="710" on="1"/>
        <pt x="490" y="700" on="1"/>
        <pt x="623" y="710" on="1"/>
        <pt x="621" y="670" on="1"/>
        <pt x="552" y="654" on="1"/>
        <pt x="571" y="568" on="1"/>
        <pt x="674" y="259" on="1"/>
        <pt x="712" y="105" on="1"/>
        <pt x="714" y="105" on="1"/>
        <pt x="750" y="272" on="1"/>
        <pt x="834" y="573" on="1"/>
        <pt x="848" y="653" on="1"/>
        <pt x="769" y="670" on="1"/>
        <pt x="774" y="710" on="1"/>
        <pt x="889" y="700" on="1"/>
        <pt x="995" y="710" on="1"/>
        <pt x="993" y="670" on="1"/>
        <pt x="921" y="651" on="1"/>
      </contour>
    </TTGlyph>
    <TTGlyph name="X" xMin="-8" yMin="-10" xMax="678" yMax="710">
      <contour>
        <pt x="539" y="601" on="1"/>
        <pt x="494" y="542" on="1"/>
        <pt x="385" y="375" on="1"/>
        <pt x="585" y="54" on="1"/>
        <pt x="678" y="26" on="1"/>
        <pt x="673" y="-10" on="1"/>
        <pt x="540" y="0" on="1"/>
        <pt x="388" y="-10" on="1"/>
        <pt x="390" y="26" on="1"/>
        <pt x="461" y="46" on="1"/>
        <pt x="424" y="123" on="1"/>
        <pt x="359" y="225" on="1"/>
        <pt x="314" y="306" on="1"/>
        <pt x="312" y="306" on="1"/>
        <pt x="261" y="227" on="1"/>
        <pt x="182" y="114" on="1"/>
        <pt x="148" y="49" on="1"/>
        <pt x="214" y="30" on="1"/>
        <pt x="209" y="-10" on="1"/>
        <pt x="94" y="0" on="1"/>
        <pt x="-8" y="-10" on="1"/>
        <pt x="-6" y="30" on="1"/>
        <pt x="74" y="50" on="1"/>
        <pt x="182" y="192" on="1"/>
        <pt x="282" y="349" on="1"/>
        <pt x="147" y="572" on="1"/>
        <pt x="85" y="652" on="1"/>
        <pt x="16" y="670" on="1"/>
        <pt x="21" y="710" on="1"/>
        <pt x="158" y="700" on="1"/>
        <pt x="298" y="710" on="1"/>
        <pt x="296" y="670" on="1"/>
        <pt x="225" y="653" on="1"/>
        <pt x="248" y="593" on="1"/>
        <pt x="302" y="506" on="1"/>
        <pt x="352" y="410" on="1"/>
        <pt x="354" y="410" on="1"/>
        <pt x="397" y="485" on="1"/>
        <pt x="484" y="608" on="1"/>
        <pt x="504" y="655" on="1"/>
        <pt x="441" y="670" on="1"/>
        <pt x="446" y="710" on="1"/>
        <pt x="552" y="700" on="1"/>
        <pt x="659" y="710" on="1"/>
        <pt x="657" y="670" on="1"/>
        <pt x="585" y="654" on="1"/>
      </contour>
    </TTGlyph>
    <TTGlyph name="Y" xMin="-13" yMin="-10" xMax="663" yMax="710">
      <contour>
        <pt x="382" y="130" on="1"/>
        <pt x="390" y="50" on="1"/>
        <pt x="471" y="30" on="1"/>
        <pt x="466" y="-10" on="1"/>
        <pt x="334" y="0" on="1"/>
        <pt x="200" y="-10" on="1"/>
        <pt x="202" y="30" on="1"/>
        <pt x="281" y="48" on="1"/>
        <pt x="286" y="129" on="1"/>
        <pt x="289" y="291" on="1"/>
        <pt x="117" y="582" on="1"/>
        <pt x="57" y="652" on="1"/>
        <pt x="-13" y="670" on="1"/>
        <pt x="-8" y="710" on="1"/>
        <pt x="123" y="700" on="1"/>
        <pt x="263" y="710" on="1"/>
        <pt x="261" y="670" on="1"/>
        <pt x="189" y="654" on="1"/>
        <pt x="218" y="583" on="1"/>
        <pt x="294" y="454" on="1"/>
        <pt x="345" y="358" on="1"/>
        <pt x="349" y="358" on="1"/>
        <pt x="398" y="445" on="1"/>
        <pt x="484" y="585" on="1"/>
        <pt x="510" y="658" on="1"/>
        <pt x="438" y="670" on="1"/>
        <pt x="443" y="710" on="1"/>
        <pt x="556" y="700" on="1"/>
        <pt x="663" y="710" on="1"/>
        <pt x="661" y="670" on="1"/>
        <pt x="588" y="654" on="1"/>
        <pt x="537" y="583" on="1"/>
        <pt x="375" y="316" on="1"/>
      </contour>
    </TTGlyph>
    <TTGlyph name="Yacute" xMin="-13" yMin="-10" xMax="663" yMax="912">
      <component glyphName="Y" x="0" y="0" flags="0x204"/>
      <component glyphName="acute.case" x="280" y="-50" flags="0x4"/>
    </TTGlyph>
    <TTGlyph name="Z" xMin="6" yMin="-10" xMax="588" yMax="710">
      <contour>
        <pt x="152" y="0" on="1"/>
        <pt x="11" y="-9" on="1"/>
        <pt x="6" y="31" on="1"/>
        <pt x="59" y="50" on="1"/>
        <pt x="237" y="339" on="1"/>
        <pt x="385" y="583" on="1"/>
        <pt x="434" y="655" on="1"/>
        <pt x="428" y="662" on="1"/>
        <pt x="135" y="643" on="1"/>
        <pt x="105" y="506" on="1"/>
        <pt x="63" y="515" on="1"/>
        <pt x="57" y="641" on="1"/>
        <pt x="42" y="710" on="1"/>
        <pt x="159" y="700" on="1"/>
        <pt x="445" y="700" on="1"/>
        <pt x="583" y="709" on="1"/>
        <pt x="588" y="666" on="1"/>
        <pt x="529" y="652" on="1"/>
        <pt x="429" y="480" on="1"/>
        <pt x="154" y="48" on="1"/>
        <pt x="160" y="40" on="1"/>
        <pt x="479" y="61" on="1"/>
        <pt x="504" y="190" on="1"/>
        <pt x="542" y="181" on="1"/>
        <pt x="548" y="59" on="1"/>
        <pt x="563" y="-10" on="1"/>
        <pt x="446" y="0" on="1"/>
      </contour>
    </TTGlyph>
    <TTGlyph name="a" xMin="27" yMin="-14" xMax="485" yMax="520">
      <contour>
        <pt x="151" y="56" on="1"/>
        <pt x="226" y="37" on="1"/>
        <pt x="327" y="95" on="1"/>
        <pt x="323" y="230" on="1"/>
        <pt x="236" y="230" on="1"/>
        <pt x="159" y="199" on="1"/>
        <pt x="124" y="137" on="1"/>
      </contour>
      <contour>
        <pt x="409" y="182" on="1"/>
        <pt x="416" y="41" on="1"/>
        <pt x="485" y="31" on="1"/>
        <pt x="478" y="-2" on="1"/>
        <pt x="339" y="-14" on="1"/>
        <pt x="326" y="45" on="1"/>
        <pt x="321" y="45" on="1"/>
        <pt x="222" y="-14" on="1"/>
        <pt x="118" y="-14" on="1"/>
        <pt x="48" y="37" on="1"/>
        <pt x="27" y="135" on="1"/>
        <pt x="71" y="213" on="1"/>
        <pt x="191" y="265" on="1"/>
        <pt x="323" y="270" on="1"/>
        <pt x="319" y="395" on="1"/>
        <pt x="300" y="457" on="1"/>
        <pt x="219" y="480" on="1"/>
        <pt x="122" y="457" on="1"/>
        <pt x="119" y="351" on="1"/>
        <pt x="80" y="343" on="1"/>
        <pt x="54" y="480" on="1"/>
        <pt x="169" y="514" on="1"/>
        <pt x="298" y="520" on="1"/>
        <pt x="376" y="482" on="1"/>
        <pt x="408" y="396" on="1"/>
      </contour>
    </TTGlyph>
    <TTGlyph name="aacute" xMin="27" yMin="-14" xMax="485" yMax="757">
      <component glyphName="a" x="0" y="0" flags="0x204"/>
      <component glyphName="acute" x="213" y="0" flags="0x4"/>
    </TTGlyph>
    <TTGlyph name="acircumflex" xMin="27" yMin="-14" xMax="485" yMax="753">
      <component glyphName="a" x="0" y="0" flags="0x204"/>
      <component glyphName="circumflex" x="113" y="0" flags="0x4"/>
    </TTGlyph>
    <TTGlyph name="acute" xMin="2" yMin="566" xMax="162" yMax="757">
      <contour>
        <pt x="82" y="757" on="1"/>
        <pt x="152" y="740" on="1"/>
        <pt x="162" y="717" on="1"/>
        <pt x="120" y="671" on="1"/>
        <pt x="38" y="566" on="1"/>
        <pt x="2" y="583" on="1"/>
      </contour>
    </TTGlyph>
    <TTGlyph name="acute.case" xMin="28" yMin="796" xMax="224" yMax="962">
      <contour>
        <pt x="161" y="962" on="1"/>
        <pt x="223" y="923" on="1"/>
        <pt x="224" y="897" on="1"/>
        <pt x="169" y="868" on="1"/>
        <pt x="58" y="796" on="1"/>
        <pt x="28" y="824" on="1"/>
      </contour>
    </TTGlyph>
    <TTGlyph name="adieresis" xMin="27" yMin="-14" xMax="485" yMax="712">
      <component glyphName="a" x="0" y="0" flags="0x204"/>
      <component glyphName="dieresis" x="86" y="0" flags="0x4"/>
    </TTGlyph>
    <TTGlyph name="ae" xMin="26" yMin="-20" xMax="749" yMax="521">
      <contour>
        <pt x="375" y="482" on="1"/>
        <pt x="391" y="437" on="1"/>
        <pt x="400" y="452" on="1"/>
        <pt x="505" y="510" on="1"/>
        <pt x="593" y="521" on="1"/>
        <pt x="663" y="499" on="1"/>
        <pt x="717" y="450" on="1"/>
        <pt x="748" y="361" on="1"/>
        <pt x="749" y="278" on="1"/>
        <pt x="735" y="267" on="1"/>
        <pt x="602" y="258" on="1"/>
        <pt x="429" y="269" on="1"/>
        <pt x="428" y="260" on="1"/>
        <pt x="455" y="119" on="1"/>
        <pt x="534" y="41" on="1"/>
        <pt x="626" y="31" on="1"/>
        <pt x="720" y="81" on="1"/>
        <pt x="738" y="55" on="1"/>
        <pt x="659" y="-8" on="1"/>
        <pt x="565" y="-20" on="1"/>
        <pt x="467" y="3" on="1"/>
        <pt x="382" y="74" on="1"/>
        <pt x="372" y="93" on="1"/>
        <pt x="315" y="19" on="1"/>
        <pt x="221" y="-14" on="1"/>
        <pt x="117" y="-14" on="1"/>
        <pt x="47" y="37" on="1"/>
        <pt x="26" y="135" on="1"/>
        <pt x="70" y="213" on="1"/>
        <pt x="190" y="265" on="1"/>
        <pt x="322" y="270" on="1"/>
        <pt x="318" y="395" on="1"/>
        <pt x="299" y="457" on="1"/>
        <pt x="218" y="480" on="1"/>
        <pt x="121" y="457" on="1"/>
        <pt x="118" y="351" on="1"/>
        <pt x="79" y="343" on="1"/>
        <pt x="53" y="480" on="1"/>
        <pt x="168" y="514" on="1"/>
        <pt x="297" y="520" on="1"/>
      </contour>
      <contour>
        <pt x="150" y="56" on="1"/>
        <pt x="225" y="37" on="1"/>
        <pt x="305" y="82" on="1"/>
        <pt x="322" y="145" on="1"/>
        <pt x="322" y="230" on="1"/>
        <pt x="235" y="230" on="1"/>
        <pt x="158" y="199" on="1"/>
        <pt x="123" y="137" on="1"/>
      </contour>
      <contour>
        <pt x="479" y="431" on="1"/>
        <pt x="440" y="355" on="1"/>
        <pt x="434" y="310" on="1"/>
        <pt x="586" y="308" on="1"/>
        <pt x="655" y="323" on="1"/>
        <pt x="649" y="416" on="1"/>
        <pt x="619" y="467" on="1"/>
        <pt x="555" y="476" on="1"/>
      </contour>
    </TTGlyph>
    <TTGlyph name="agrave" xMin="27" yMin="-14" xMax="485" yMax="757">
      <component glyphName="a" x="0" y="0" flags="0x204"/>
      <component glyphName="grave" x="102" y="0" flags="0x4"/>
    </TTGlyph>
    <TTGlyph name="ampersand" xMin="50" yMin="-15" xMax="725" yMax="700">
      <contour>
        <pt x="485" y="78" on="1"/>
        <pt x="388" y="14" on="1"/>
        <pt x="267" y="-15" on="1"/>
        <pt x="132" y="22" on="1"/>
        <pt x="50" y="108" on="1"/>
        <pt x="50" y="219" on="1"/>
        <pt x="106" y="318" on="1"/>
        <pt x="216" y="387" on="1"/>
        <pt x="148" y="505" on="1"/>
        <pt x="148" y="574" on="1"/>
        <pt x="191" y="656" on="1"/>
        <pt x="270" y="700" on="1"/>
        <pt x="347" y="700" on="1"/>
        <pt x="417" y="669" on="1"/>
        <pt x="467" y="606" on="1"/>
        <pt x="467" y="537" on="1"/>
        <pt x="435" y="461" on="1"/>
        <pt x="343" y="369" on="1"/>
        <pt x="413" y="271" on="1"/>
        <pt x="505" y="186" on="1"/>
        <pt x="548" y="291" on="1"/>
        <pt x="562" y="351" on="1"/>
        <pt x="494" y="367" on="1"/>
        <pt x="499" y="402" on="1"/>
        <pt x="602" y="397" on="1"/>
        <pt x="708" y="402" on="1"/>
        <pt x="703" y="367" on="1"/>
        <pt x="636" y="351" on="1"/>
        <pt x="595" y="278" on="1"/>
        <pt x="539" y="149" on="1"/>
        <pt x="628" y="56" on="1"/>
        <pt x="725" y="30" on="1"/>
        <pt x="720" y="-5" on="1"/>
        <pt x="706" y="-4" on="0"/>
        <pt x="663" y="-3" on="0"/>
        <pt x="616" y="-1" on="0"/>
        <pt x="572" y="0" on="0"/>
        <pt x="558" y="0" on="1"/>
      </contour>
      <contour>
        <pt x="201" y="75" on="1"/>
        <pt x="340" y="51" on="1"/>
        <pt x="448" y="117" on="1"/>
        <pt x="300" y="296" on="1"/>
        <pt x="242" y="353" on="1"/>
        <pt x="158" y="269" on="1"/>
        <pt x="144" y="164" on="1"/>
      </contour>
      <contour>
        <pt x="249" y="631" on="1"/>
        <pt x="228" y="575" on="1"/>
        <pt x="239" y="509" on="1"/>
        <pt x="317" y="401" on="1"/>
        <pt x="386" y="495" on="1"/>
        <pt x="391" y="577" on="1"/>
        <pt x="368" y="633" on="1"/>
        <pt x="307" y="654" on="1"/>
      </contour>
    </TTGlyph>
    <TTGlyph name="aring" xMin="27" yMin="-14" xMax="485" yMax="758">
      <component glyphName="a" x="0" y="0" flags="0x204"/>
      <component glyphName="ring" x="111" y="0" flags="0x4"/>
    </TTGlyph>
    <TTGlyph name="asciicircum" xMin="11" yMin="472" xMax="475" yMax="748">
      <contour>
        <pt x="240" y="748" on="1"/>
        <pt x="246" y="748" on="1"/>
        <pt x="283" y="707" on="1"/>
        <pt x="475" y="520" on="1"/>
        <pt x="405" y="476" on="1"/>
        <pt x="336" y="565" on="1"/>
        <pt x="244" y="669" on="1"/>
        <pt x="242" y="669" on="1"/>
        <pt x="156" y="571" on="1"/>
        <pt x="76" y="472" on="1"/>
        <pt x="11" y="520" on="1"/>
        <pt x="176" y="676" on="1"/>
      </contour>
    </TTGlyph>
    <TTGlyph name="asciitilde" xMin="32" yMin="539" xMax="459" yMax="710">
      <contour>
        <pt x="306" y="542" on="1"/>
        <pt x="168" y="648" on="1"/>
        <pt x="121" y="653" on="1"/>
        <pt x="81" y="587" on="1"/>
        <pt x="32" y="591" on="1"/>
        <pt x="71" y="688" on="1"/>
        <pt x="140" y="710" on="1"/>
        <pt x="194" y="700" on="1"/>
        <pt x="339" y="603" on="1"/>
        <pt x="386" y="610" on="1"/>
        <pt x="410" y="684" on="1"/>
        <pt x="459" y="674" on="1"/>
        <pt x="437" y="589" on="1"/>
        <pt x="377" y="539" on="1"/>
      </contour>
    </TTGlyph>
    <TTGlyph name="asterisk" xMin="53" yMin="347" xMax="378" yMax="706">
      <contour>
        <pt x="231" y="553" on="1"/>
        <pt x="346" y="637" on="1"/>
        <pt x="372" y="615" on="1"/>
        <pt x="378" y="582" on="1"/>
        <pt x="247" y="526" on="1"/>
        <pt x="377" y="468" on="1"/>
        <pt x="370" y="435" on="1"/>
        <pt x="345" y="414" on="1"/>
        <pt x="230" y="498" on="1"/>
        <pt x="245" y="358" on="1"/>
        <pt x="214" y="347" on="1"/>
        <pt x="183" y="358" on="1"/>
        <pt x="199" y="500" on="1"/>
        <pt x="84" y="416" on="1"/>
        <pt x="59" y="438" on="1"/>
        <pt x="53" y="471" on="1"/>
        <pt x="184" y="527" on="1"/>
        <pt x="54" y="585" on="1"/>
        <pt x="60" y="618" on="1"/>
        <pt x="85" y="639" on="1"/>
        <pt x="200" y="554" on="1"/>
        <pt x="185" y="695" on="1"/>
        <pt x="217" y="706" on="1"/>
        <pt x="248" y="695" on="1"/>
      </contour>
    </TTGlyph>
    <TTGlyph name="at" xMin="50" yMin="-194" xMax="782" yMax="591">
      <contour>
        <pt x="452" y="378" on="1"/>
        <pt x="403" y="356" on="1"/>
        <pt x="342" y="261" on="1"/>
        <pt x="316" y="134" on="1"/>
        <pt x="332" y="71" on="1"/>
        <pt x="369" y="52" on="1"/>
        <pt x="468" y="124" on="1"/>
        <pt x="500" y="348" on="1"/>
      </contour>
      <contour>
        <pt x="478" y="65" on="1"/>
        <pt x="477" y="65" on="1"/>
        <pt x="343" y="-15" on="1"/>
        <pt x="265" y="21" on="1"/>
        <pt x="230" y="131" on="1"/>
        <pt x="259" y="274" on="1"/>
        <pt x="362" y="399" on="1"/>
        <pt x="463" y="426" on="1"/>
        <pt x="527" y="410" on="1"/>
        <pt x="563" y="423" on="1"/>
        <pt x="583" y="398" on="1"/>
        <pt x="529" y="101" on="1"/>
        <pt x="577" y="29" on="1"/>
        <pt x="673" y="81" on="1"/>
        <pt x="709" y="236" on="1"/>
        <pt x="686" y="417" on="1"/>
        <pt x="558" y="520" on="1"/>
        <pt x="437" y="541" on="1"/>
        <pt x="332" y="521" on="1"/>
        <pt x="229" y="451" on="1"/>
        <pt x="153" y="310" on="1"/>
        <pt x="138" y="145" on="1"/>
        <pt x="169" y="10" on="1"/>
        <pt x="228" y="-57" on="1"/>
        <pt x="295" y="-106" on="1"/>
        <pt x="438" y="-139" on="1"/>
        <pt x="520" y="-126" on="1"/>
        <pt x="616" y="-91" on="1"/>
        <pt x="634" y="-128" on="1"/>
        <pt x="532" y="-175" on="1"/>
        <pt x="420" y="-194" on="1"/>
        <pt x="249" y="-155" on="1"/>
        <pt x="173" y="-99" on="1"/>
        <pt x="93" y="-15" on="1"/>
        <pt x="50" y="159" on="1"/>
        <pt x="78" y="330" on="1"/>
        <pt x="171" y="478" on="1"/>
        <pt x="317" y="570" on="1"/>
        <pt x="477" y="591" on="1"/>
        <pt x="609" y="558" on="1"/>
        <pt x="747" y="449" on="1"/>
        <pt x="782" y="236" on="1"/>
        <pt x="731" y="48" on="1"/>
        <pt x="543" y="-29" on="1"/>
      </contour>
    </TTGlyph>
    <TTGlyph name="atilde" xMin="27" yMin="-14" xMax="485" yMax="696">
      <component glyphName="a" x="0" y="0" flags="0x204"/>
      <component glyphName="tilde" x="59" y="0" flags="0x4"/>
    </TTGlyph>
    <TTGlyph name="b" xMin="-11" yMin="-20" xMax="533" yMax="756">
      <contour>
        <pt x="165" y="457" on="1"/>
        <pt x="172" y="450" on="1"/>
        <pt x="276" y="507" on="1"/>
        <pt x="385" y="510" on="1"/>
        <pt x="491" y="429" on="1"/>
        <pt x="533" y="262" on="1"/>
        <pt x="503" y="113" on="1"/>
        <pt x="431" y="22" on="1"/>
        <pt x="287" y="-20" on="1"/>
        <pt x="98" y="5" on="1"/>
        <pt x="63" y="40" on="1"/>
        <pt x="71" y="370" on="1"/>
        <pt x="70" y="597" on="1"/>
        <pt x="65" y="697" on="1"/>
        <pt x="-6" y="694" on="1"/>
        <pt x="-11" y="729" on="1"/>
        <pt x="127" y="756" on="1"/>
        <pt x="177" y="745" on="1"/>
      </contour>
      <contour>
        <pt x="163" y="153" on="1"/>
        <pt x="171" y="60" on="1"/>
        <pt x="301" y="31" on="1"/>
        <pt x="400" y="93" on="1"/>
        <pt x="429" y="203" on="1"/>
        <pt x="425" y="335" on="1"/>
        <pt x="354" y="438" on="1"/>
        <pt x="292" y="453" on="1"/>
        <pt x="165" y="402" on="1"/>
      </contour>
    </TTGlyph>
    <TTGlyph name="backslash" xMin="33" yMin="-100" xMax="433" yMax="709">
      <contour>
        <pt x="139" y="598" on="1"/>
        <pt x="433" y="-92" on="1"/>
        <pt x="362" y="-100" on="1"/>
        <pt x="300" y="70" on="1"/>
        <pt x="33" y="700" on="1"/>
        <pt x="104" y="709" on="1"/>
      </contour>
    </TTGlyph>
    <TTGlyph name="bar" xMin="71" yMin="-240" xMax="153" yMax="769">
      <contour>
        <pt x="86" y="-77" on="1"/>
        <pt x="71" y="769" on="1"/>
        <pt x="145" y="760" on="1"/>
        <pt x="139" y="558" on="1"/>
        <pt x="153" y="-240" on="1"/>
        <pt x="79" y="-231" on="1"/>
      </contour>
    </TTGlyph>
    <TTGlyph name="braceleft" xMin="3" yMin="-135" xMax="278" yMax="750">
      <contour>
        <pt x="102" y="304" on="1"/>
        <pt x="179" y="264" on="1"/>
        <pt x="207" y="176" on="1"/>
        <pt x="207" y="-23" on="1"/>
        <pt x="224" y="-74" on="1"/>
        <pt x="278" y="-94" on="1"/>
        <pt x="278" y="-135" on="1"/>
        <pt x="200" y="-123" on="1"/>
        <pt x="147" y="-90" on="1"/>
        <pt x="124" y="-12" on="1"/>
        <pt x="124" y="190" on="1"/>
        <pt x="91" y="263" on="1"/>
        <pt x="3" y="281" on="1"/>
        <pt x="3" y="334" on="1"/>
        <pt x="91" y="352" on="1"/>
        <pt x="124" y="425" on="1"/>
        <pt x="124" y="627" on="1"/>
        <pt x="146" y="698" on="1"/>
        <pt x="190" y="738" on="1"/>
        <pt x="278" y="750" on="1"/>
        <pt x="278" y="709" on="1"/>
        <pt x="224" y="689" on="1"/>
        <pt x="207" y="638" on="1"/>
        <pt x="207" y="439" on="1"/>
        <pt x="179" y="351" on="1"/>
        <pt x="102" y="311" on="1"/>
      </contour>
    </TTGlyph>
    <TTGlyph name="braceright" xMin="43" yMin="-135" xMax="318" yMax="750">
      <contour>
        <pt x="219" y="311" on="1"/>
        <pt x="142" y="351" on="1"/>
        <pt x="114" y="439" on="1"/>
        <pt x="114" y="638" on="1"/>
        <pt x="97" y="689" on="1"/>
        <pt x="43" y="709" on="1"/>
        <pt x="43" y="750" on="1"/>
        <pt x="131" y="738" on="1"/>
        <pt x="175" y="698" on="1"/>
        <pt x="197" y="627" on="1"/>
        <pt x="197" y="425" on="1"/>
        <pt x="230" y="352" on="1"/>
        <pt x="318" y="334" on="1"/>
        <pt x="318" y="281" on="1"/>
        <pt x="230" y="263" on="1"/>
        <pt x="197" y="190" on="1"/>
        <pt x="197" y="-12" on="1"/>
        <pt x="174" y="-90" on="1"/>
        <pt x="121" y="-123" on="1"/>
        <pt x="43" y="-135" on="1"/>
        <pt x="43" y="-94" on="1"/>
        <pt x="97" y="-74" on="1"/>
        <pt x="114" y="-23" on="1"/>
        <pt x="114" y="176" on="1"/>
        <pt x="142" y="264" on="1"/>
        <pt x="219" y="304" on="1"/>
      </contour>
    </TTGlyph>
    <TTGlyph name="bracketleft" xMin="83" yMin="-141" xMax="280" yMax="744">
      <contour>
        <pt x="280" y="744" on="1"/>
        <pt x="280" y="690" on="1"/>
        <pt x="161" y="695" on="1"/>
        <pt x="176" y="311" on="1"/>
        <pt x="161" y="-93" on="1"/>
        <pt x="280" y="-88" on="1"/>
        <pt x="280" y="-141" on="1"/>
        <pt x="83" y="-136" on="1"/>
        <pt x="97" y="314" on="1"/>
        <pt x="83" y="739" on="1"/>
      </contour>
    </TTGlyph>
    <TTGlyph name="bracketright" xMin="25" yMin="-141" xMax="222" yMax="744">
      <contour>
        <pt x="222" y="739" on="1"/>
        <pt x="208" y="314" on="1"/>
        <pt x="222" y="-136" on="1"/>
        <pt x="25" y="-141" on="1"/>
        <pt x="25" y="-88" on="1"/>
        <pt x="144" y="-93" on="1"/>
        <pt x="129" y="311" on="1"/>
        <pt x="144" y="695" on="1"/>
        <pt x="25" y="690" on="1"/>
        <pt x="25" y="744" on="1"/>
      </contour>
    </TTGlyph>
    <TTGlyph name="brokenbar" xMin="71" yMin="-240" xMax="153" yMax="769">
      <contour>
        <pt x="78" y="371" on="1"/>
        <pt x="71" y="769" on="1"/>
        <pt x="145" y="760" on="1"/>
        <pt x="139" y="558" on="1"/>
        <pt x="142" y="360" on="1"/>
      </contour>
      <contour>
        <pt x="145" y="192" on="1"/>
        <pt x="153" y="-240" on="1"/>
        <pt x="79" y="-231" on="1"/>
        <pt x="86" y="-77" on="1"/>
        <pt x="81" y="200" on="1"/>
      </contour>
    </TTGlyph>
    <TTGlyph name="bullet" xMin="60" yMin="235" xMax="344" yMax="510">
      <contour>
        <pt x="111" y="471" on="1"/>
        <pt x="212" y="510" on="1"/>
        <pt x="313" y="469" on="1"/>
        <pt x="344" y="359" on="1"/>
        <pt x="291" y="266" on="1"/>
        <pt x="181" y="235" on="1"/>
        <pt x="97" y="288" on="1"/>
        <pt x="60" y="389" on="1"/>
      </contour>
    </TTGlyph>
    <TTGlyph name="c" xMin="42" yMin="-20" xMax="459" yMax="520">
      <contour>
        <pt x="378" y="463" on="1"/>
        <pt x="252" y="473" on="1"/>
        <pt x="162" y="377" on="1"/>
        <pt x="136" y="273" on="1"/>
        <pt x="149" y="167" on="1"/>
        <pt x="213" y="51" on="1"/>
        <pt x="336" y="31" on="1"/>
        <pt x="430" y="81" on="1"/>
        <pt x="448" y="55" on="1"/>
        <pt x="369" y="-8" on="1"/>
        <pt x="275" y="-20" on="1"/>
        <pt x="132" y="21" on="1"/>
        <pt x="43" y="166" on="1"/>
        <pt x="42" y="333" on="1"/>
        <pt x="110" y="452" on="1"/>
        <pt x="215" y="507" on="1"/>
        <pt x="306" y="520" on="1"/>
        <pt x="459" y="500" on="1"/>
        <pt x="429" y="343" on="1"/>
        <pt x="396" y="338" on="1"/>
      </contour>
    </TTGlyph>
    <TTGlyph name="caron" xMin="0" yMin="556" xMax="251" yMax="760">
      <contour>
        <pt x="14" y="748" on="1"/>
        <pt x="61" y="760" on="1"/>
        <pt x="99" y="690" on="1"/>
        <pt x="131" y="618" on="1"/>
        <pt x="166" y="690" on="1"/>
        <pt x="202" y="754" on="1"/>
        <pt x="241" y="746" on="1"/>
        <pt x="251" y="731" on="1"/>
        <pt x="202" y="642" on="1"/>
        <pt x="157" y="561" on="1"/>
        <pt x="96" y="556" on="1"/>
        <pt x="57" y="636" on="1"/>
        <pt x="0" y="731" on="1"/>
      </contour>
    </TTGlyph>
    <TTGlyph name="caron.case" xMin="11" yMin="806" xMax="321" yMax="975">
      <contour>
        <pt x="321" y="951" on="1"/>
        <pt x="236" y="860" on="1"/>
        <pt x="199" y="806" on="1"/>
        <pt x="136" y="806" on="1"/>
        <pt x="109" y="850" on="1"/>
        <pt x="11" y="951" on="1"/>
        <pt x="14" y="967" on="1"/>
        <pt x="43" y="975" on="1"/>
        <pt x="167" y="870" on="1"/>
        <pt x="228" y="928" on="1"/>
        <pt x="283" y="975" on="1"/>
        <pt x="309" y="965" on="1"/>
      </contour>
    </TTGlyph>
    <TTGlyph name="ccedilla" xMin="42" yMin="-243" xMax="459" yMax="520">
      <contour>
        <pt x="342" y="-64" on="1"/>
        <pt x="388" y="-112" on="1"/>
        <pt x="386" y="-169" on="1"/>
        <pt x="336" y="-231" on="1"/>
        <pt x="245" y="-243" on="1"/>
        <pt x="173" y="-230" on="1"/>
        <pt x="188" y="-201" on="1"/>
        <pt x="259" y="-214" on="1"/>
        <pt x="315" y="-191" on="1"/>
        <pt x="322" y="-143" on="1"/>
        <pt x="291" y="-114" on="1"/>
        <pt x="232" y="-105" on="1"/>
        <pt x="230" y="-7" on="1"/>
        <pt x="132" y="21" on="1"/>
        <pt x="43" y="166" on="1"/>
        <pt x="42" y="333" on="1"/>
        <pt x="110" y="452" on="1"/>
        <pt x="215" y="507" on="1"/>
        <pt x="306" y="520" on="1"/>
        <pt x="459" y="500" on="1"/>
        <pt x="429" y="343" on="1"/>
        <pt x="396" y="338" on="1"/>
        <pt x="378" y="463" on="1"/>
        <pt x="252" y="473" on="1"/>
        <pt x="162" y="377" on="1"/>
        <pt x="136" y="273" on="1"/>
        <pt x="149" y="167" on="1"/>
        <pt x="213" y="51" on="1"/>
        <pt x="336" y="31" on="1"/>
        <pt x="430" y="81" on="1"/>
        <pt x="448" y="55" on="1"/>
        <pt x="369" y="-8" on="1"/>
        <pt x="275" y="-20" on="1"/>
        <pt x="267" y="-18" on="1"/>
        <pt x="273" y="-56" on="1"/>
      </contour>
    </TTGlyph>
    <TTGlyph name="cedilla" xMin="23" yMin="-234" xMax="238" yMax="7">
      <contour>
        <pt x="192" y="-55" on="1"/>
        <pt x="238" y="-103" on="1"/>
        <pt x="236" y="-160" on="1"/>
        <pt x="186" y="-222" on="1"/>
        <pt x="95" y="-234" on="1"/>
        <pt x="23" y="-221" on="1"/>
        <pt x="38" y="-192" on="1"/>
        <pt x="109" y="-205" on="1"/>
        <pt x="165" y="-182" on="1"/>
        <pt x="172" y="-134" on="1"/>
        <pt x="141" y="-105" on="1"/>
        <pt x="82" y="-96" on="1"/>
        <pt x="80" y="7" on="1"/>
        <pt x="116" y="2" on="1"/>
        <pt x="123" y="-47" on="1"/>
      </contour>
    </TTGlyph>
    <TTGlyph name="cent" xMin="49" yMin="-38" xMax="466" yMax="710">
      <contour>
        <pt x="385" y="550" on="1"/>
        <pt x="259" y="560" on="1"/>
        <pt x="169" y="464" on="1"/>
        <pt x="143" y="360" on="1"/>
        <pt x="156" y="254" on="1"/>
        <pt x="220" y="138" on="1"/>
        <pt x="343" y="118" on="1"/>
        <pt x="437" y="168" on="1"/>
        <pt x="455" y="142" on="1"/>
        <pt x="376" y="79" on="1"/>
        <pt x="324" y="72" on="1"/>
        <pt x="335" y="-36" on="1"/>
        <pt x="261" y="-38" on="1"/>
        <pt x="267" y="71" on="1"/>
        <pt x="139" y="108" on="1"/>
        <pt x="50" y="253" on="1"/>
        <pt x="49" y="420" on="1"/>
        <pt x="117" y="539" on="1"/>
        <pt x="222" y="594" on="1"/>
        <pt x="269" y="601" on="1"/>
        <pt x="261" y="710" on="1"/>
        <pt x="336" y="710" on="1"/>
        <pt x="324" y="605" on="1"/>
        <pt x="466" y="587" on="1"/>
        <pt x="436" y="430" on="1"/>
        <pt x="403" y="425" on="1"/>
      </contour>
    </TTGlyph>
    <TTGlyph name="circumflex" xMin="-2" yMin="556" xMax="255" yMax="753">
      <contour>
        <pt x="241" y="571" on="1"/>
        <pt x="199" y="559" on="1"/>
        <pt x="161" y="619" on="1"/>
        <pt x="133" y="684" on="1"/>
        <pt x="92" y="619" on="1"/>
        <pt x="47" y="556" on="1"/>
        <pt x="8" y="564" on="1"/>
        <pt x="-2" y="579" on="1"/>
        <pt x="56" y="667" on="1"/>
        <pt x="101" y="753" on="1"/>
        <pt x="162" y="753" on="1"/>
        <pt x="201" y="673" on="1"/>
        <pt x="255" y="588" on="1"/>
      </contour>
    </TTGlyph>
    <TTGlyph name="circumflex.case" xMin="18" yMin="808" xMax="328" yMax="977">
      <contour>
        <pt x="316" y="818" on="1"/>
        <pt x="290" y="808" on="1"/>
        <pt x="225" y="855" on="1"/>
        <pt x="170" y="908" on="1"/>
        <pt x="50" y="808" on="1"/>
        <pt x="21" y="816" on="1"/>
        <pt x="18" y="832" on="1"/>
        <pt x="116" y="933" on="1"/>
        <pt x="143" y="977" on="1"/>
        <pt x="206" y="977" on="1"/>
        <pt x="243" y="923" on="1"/>
        <pt x="328" y="832" on="1"/>
      </contour>
    </TTGlyph>
    <TTGlyph name="colon" xMin="45" yMin="-20" xMax="174" yMax="438">
      <contour>
        <pt x="68" y="420" on="1"/>
        <pt x="114" y="438" on="1"/>
        <pt x="160" y="419" on="1"/>
        <pt x="174" y="369" on="1"/>
        <pt x="150" y="327" on="1"/>
        <pt x="100" y="313" on="1"/>
        <pt x="62" y="337" on="1"/>
        <pt x="45" y="383" on="1"/>
      </contour>
      <contour>
        <pt x="68" y="87" on="1"/>
        <pt x="114" y="105" on="1"/>
        <pt x="160" y="86" on="1"/>
        <pt x="174" y="36" on="1"/>
        <pt x="150" y="-6" on="1"/>
        <pt x="100" y="-20" on="1"/>
        <pt x="62" y="4" on="1"/>
        <pt x="45" y="50" on="1"/>
      </contour>
    </TTGlyph>
    <TTGlyph name="comma" xMin="45" yMin="-165" xMax="192" yMax="108">
      <contour>
        <pt x="68" y="90" on="1"/>
        <pt x="114" y="108" on="1"/>
        <pt x="160" y="89" on="1"/>
        <pt x="183" y="58" on="1"/>
        <pt x="192" y="-1" on="1"/>
        <pt x="168" y="-98" on="1"/>
        <pt x="105" y="-165" on="1"/>
        <pt x="79" y="-137" on="1"/>
        <pt x="128" y="-79" on="1"/>
        <pt x="130" y="-15" on="1"/>
        <pt x="85" y="-15" on="1"/>
        <pt x="54" y="11" on="1"/>
        <pt x="45" y="53" on="1"/>
      </contour>
    </TTGlyph>
    <TTGlyph name="copyright" xMin="52" yMin="0" xMax="651" yMax="615">
      <contour>
        <pt x="352" y="500" on="1"/>
        <pt x="481" y="474" on="1"/>
        <pt x="466" y="369" on="1"/>
        <pt x="433" y="372" on="1"/>
        <pt x="421" y="458" on="1"/>
        <pt x="339" y="465" on="1"/>
        <pt x="277" y="408" on="1"/>
        <pt x="256" y="296" on="1"/>
        <pt x="275" y="206" on="1"/>
        <pt x="348" y="143" on="1"/>
        <pt x="472" y="176" on="1"/>
        <pt x="485" y="156" on="1"/>
        <pt x="424" y="112" on="1"/>
        <pt x="323" y="104" on="1"/>
        <pt x="238" y="140" on="1"/>
        <pt x="179" y="246" on="1"/>
        <pt x="179" y="360" on="1"/>
        <pt x="247" y="466" on="1"/>
      </contour>
      <contour>
        <pt x="226" y="588" on="1"/>
        <pt x="352" y="615" on="1"/>
        <pt x="481" y="586" on="1"/>
        <pt x="579" y="510" on="1"/>
        <pt x="633" y="414" on="1"/>
        <pt x="651" y="306" on="1"/>
        <pt x="629" y="190" on="1"/>
        <pt x="562" y="87" on="1"/>
        <pt x="464" y="22" on="1"/>
        <pt x="352" y="0" on="1"/>
        <pt x="214" y="33" on="1"/>
        <pt x="125" y="105" on="1"/>
        <pt x="71" y="196" on="1"/>
        <pt x="52" y="306" on="1"/>
        <pt x="73" y="421" on="1"/>
        <pt x="135" y="521" on="1"/>
      </contour>
      <contour>
        <pt x="239" y="551" on="1"/>
        <pt x="170" y="495" on="1"/>
        <pt x="114" y="410" on="1"/>
        <pt x="97" y="307" on="1"/>
        <pt x="110" y="220" on="1"/>
        <pt x="150" y="139" on="1"/>
        <pt x="235" y="66" on="1"/>
        <pt x="353" y="38" on="1"/>
        <pt x="450" y="57" on="1"/>
        <pt x="535" y="116" on="1"/>
        <pt x="589" y="206" on="1"/>
        <pt x="606" y="307" on="1"/>
        <pt x="591" y="405" on="1"/>
        <pt x="544" y="489" on="1"/>
        <pt x="465" y="551" on="1"/>
        <pt x="353" y="577" on="1"/>
      </contour>
    </TTGlyph>
    <TTGlyph name="currency" xMin="65" yMin="137" xMax="501" yMax="573">
      <contour>
        <pt x="430" y="458" on="1"/>
        <pt x="469" y="360" on="1"/>
        <pt x="422" y="255" on="1"/>
        <pt x="500" y="190" on="1"/>
        <pt x="449" y="137" on="1"/>
        <pt x="379" y="214" on="1"/>
        <pt x="284" y="175" on="1"/>
        <pt x="184" y="216" on="1"/>
        <pt x="118" y="138" on="1"/>
        <pt x="65" y="189" on="1"/>
        <pt x="141" y="258" on="1"/>
        <pt x="101" y="359" on="1"/>
        <pt x="142" y="456" on="1"/>
        <pt x="66" y="520" on="1"/>
        <pt x="117" y="573" on="1"/>
        <pt x="183" y="498" on="1"/>
        <pt x="287" y="544" on="1"/>
        <pt x="389" y="501" on="1"/>
        <pt x="448" y="572" on="1"/>
        <pt x="501" y="521" on="1"/>
      </contour>
      <contour>
        <pt x="384" y="451" on="1"/>
        <pt x="284" y="491" on="1"/>
        <pt x="194" y="459" on="1"/>
        <pt x="157" y="360" on="1"/>
        <pt x="188" y="266" on="1"/>
        <pt x="285" y="228" on="1"/>
        <pt x="379" y="265" on="1"/>
        <pt x="413" y="360" on="1"/>
      </contour>
    </TTGlyph>
    <TTGlyph name="d" xMin="44" yMin="-20" xMax="568" yMax="756">
      <contour>
        <pt x="403" y="45" on="1"/>
        <pt x="398" y="45" on="1"/>
        <pt x="287" y="-20" on="1"/>
        <pt x="176" y="-8" on="1"/>
        <pt x="103" y="44" on="1"/>
        <pt x="45" y="163" on="1"/>
        <pt x="44" y="333" on="1"/>
        <pt x="82" y="412" on="1"/>
        <pt x="197" y="505" on="1"/>
        <pt x="308" y="520" on="1"/>
        <pt x="405" y="495" on="1"/>
        <pt x="399" y="686" on="1"/>
        <pt x="316" y="694" on="1"/>
        <pt x="321" y="729" on="1"/>
        <pt x="459" y="756" on="1"/>
        <pt x="499" y="745" on="1"/>
        <pt x="492" y="358" on="1"/>
        <pt x="499" y="41" on="1"/>
        <pt x="568" y="31" on="1"/>
        <pt x="561" y="-2" on="1"/>
        <pt x="422" y="-14" on="1"/>
      </contour>
      <contour>
        <pt x="256" y="31" on="1"/>
        <pt x="403" y="87" on="1"/>
        <pt x="405" y="440" on="1"/>
        <pt x="294" y="475" on="1"/>
        <pt x="231" y="457" on="1"/>
        <pt x="154" y="375" on="1"/>
        <pt x="140" y="260" on="1"/>
        <pt x="170" y="92" on="1"/>
      </contour>
    </TTGlyph>
    <TTGlyph name="degree" xMin="39" yMin="423" xMax="315" yMax="700">
      <contour>
        <pt x="274" y="660" on="1"/>
        <pt x="315" y="562" on="1"/>
        <pt x="278" y="467" on="1"/>
        <pt x="176" y="423" on="1"/>
        <pt x="73" y="470" on="1"/>
        <pt x="39" y="561" on="1"/>
        <pt x="75" y="655" on="1"/>
        <pt x="179" y="700" on="1"/>
      </contour>
      <contour>
        <pt x="243" y="630" on="1"/>
        <pt x="176" y="660" on="1"/>
        <pt x="115" y="634" on="1"/>
        <pt x="89" y="562" on="1"/>
        <pt x="106" y="501" on="1"/>
        <pt x="177" y="463" on="1"/>
        <pt x="239" y="490" on="1"/>
        <pt x="265" y="562" on="1"/>
      </contour>
    </TTGlyph>
    <TTGlyph name="dieresis" xMin="7" yMin="585" xMax="307" yMax="712">
      <contour>
        <pt x="30" y="691" on="1"/>
        <pt x="74" y="712" on="1"/>
        <pt x="121" y="697" on="1"/>
        <pt x="142" y="645" on="1"/>
        <pt x="115" y="603" on="1"/>
        <pt x="70" y="585" on="1"/>
        <pt x="27" y="611" on="1"/>
        <pt x="7" y="654" on="1"/>
      </contour>
      <contour>
        <pt x="195" y="691" on="1"/>
        <pt x="240" y="712" on="1"/>
        <pt x="286" y="697" on="1"/>
        <pt x="307" y="645" on="1"/>
        <pt x="280" y="603" on="1"/>
        <pt x="235" y="585" on="1"/>
        <pt x="193" y="611" on="1"/>
        <pt x="172" y="654" on="1"/>
      </contour>
    </TTGlyph>
    <TTGlyph name="dieresis.case" xMin="17" yMin="823" xMax="341" yMax="950">
      <contour>
        <pt x="40" y="929" on="1"/>
        <pt x="84" y="950" on="1"/>
        <pt x="131" y="935" on="1"/>
        <pt x="152" y="883" on="1"/>
        <pt x="125" y="841" on="1"/>
        <pt x="80" y="823" on="1"/>
        <pt x="37" y="849" on="1"/>
        <pt x="17" y="892" on="1"/>
      </contour>
      <contour>
        <pt x="230" y="929" on="1"/>
        <pt x="275" y="950" on="1"/>
        <pt x="321" y="935" on="1"/>
        <pt x="341" y="883" on="1"/>
        <pt x="315" y="841" on="1"/>
        <pt x="270" y="823" on="1"/>
        <pt x="229" y="849" on="1"/>
        <pt x="212" y="892" on="1"/>
      </contour>
    </TTGlyph>
    <TTGlyph name="divide" xMin="49" yMin="87" xMax="445" yMax="534">
      <contour>
        <pt x="185" y="288" on="1"/>
        <pt x="49" y="272" on="1"/>
        <pt x="56" y="335" on="1"/>
        <pt x="307" y="348" on="1"/>
        <pt x="445" y="363" on="1"/>
        <pt x="438" y="300" on="1"/>
      </contour>
      <contour>
        <pt x="196" y="513" on="1"/>
        <pt x="240" y="534" on="1"/>
        <pt x="288" y="519" on="1"/>
        <pt x="305" y="469" on="1"/>
        <pt x="284" y="425" on="1"/>
        <pt x="236" y="409" on="1"/>
        <pt x="196" y="429" on="1"/>
        <pt x="175" y="475" on="1"/>
      </contour>
      <contour>
        <pt x="218" y="192" on="1"/>
        <pt x="262" y="212" on="1"/>
        <pt x="310" y="197" on="1"/>
        <pt x="328" y="148" on="1"/>
        <pt x="306" y="105" on="1"/>
        <pt x="258" y="87" on="1"/>
        <pt x="218" y="109" on="1"/>
        <pt x="197" y="153" on="1"/>
      </contour>
    </TTGlyph>
    <TTGlyph name="dollar" xMin="60" yMin="-84" xMax="500" yMax="790">
      <contour>
        <pt x="366" y="72" on="1"/>
        <pt x="404" y="125" on="1"/>
        <pt x="402" y="211" on="1"/>
        <pt x="359" y="257" on="1"/>
        <pt x="104" y="391" on="1"/>
        <pt x="60" y="496" on="1"/>
        <pt x="68" y="587" on="1"/>
        <pt x="124" y="662" on="1"/>
        <pt x="257" y="707" on="1"/>
        <pt x="260" y="790" on="1"/>
        <pt x="335" y="790" on="1"/>
        <pt x="316" y="706" on="1"/>
        <pt x="415" y="698" on="1"/>
        <pt x="461" y="702" on="1"/>
        <pt x="453" y="652" on="1"/>
        <pt x="454" y="525" on="1"/>
        <pt x="418" y="517" on="1"/>
        <pt x="393" y="646" on="1"/>
        <pt x="278" y="661" on="1"/>
        <pt x="170" y="612" on="1"/>
        <pt x="153" y="557" on="1"/>
        <pt x="174" y="475" on="1"/>
        <pt x="424" y="344" on="1"/>
        <pt x="496" y="269" on="1"/>
        <pt x="500" y="116" on="1"/>
        <pt x="425" y="23" on="1"/>
        <pt x="304" y="-3" on="1"/>
        <pt x="312" y="-84" on="1"/>
        <pt x="238" y="-84" on="1"/>
        <pt x="244" y="-3" on="1"/>
        <pt x="112" y="13" on="1"/>
        <pt x="66" y="20" on="1"/>
        <pt x="74" y="58" on="1"/>
        <pt x="83" y="185" on="1"/>
        <pt x="119" y="192" on="1"/>
        <pt x="134" y="64" on="1"/>
        <pt x="243" y="44" on="1"/>
      </contour>
    </TTGlyph>
    <TTGlyph name="dotlessi" xMin="18" yMin="-5" xMax="273" yMax="510">
      <contour>
        <pt x="199" y="363" on="1"/>
        <pt x="193" y="263" on="1"/>
        <pt x="196" y="166" on="1"/>
        <pt x="200" y="50" on="1"/>
        <pt x="273" y="30" on="1"/>
        <pt x="268" y="-5" on="1"/>
        <pt x="150" y="0" on="1"/>
        <pt x="28" y="-5" on="1"/>
        <pt x="30" y="30" on="1"/>
        <pt x="96" y="50" on="1"/>
        <pt x="101" y="155" on="1"/>
        <pt x="99" y="347" on="1"/>
        <pt x="94" y="451" on="1"/>
        <pt x="23" y="448" on="1"/>
        <pt x="18" y="483" on="1"/>
        <pt x="156" y="510" on="1"/>
        <pt x="206" y="499" on="1"/>
      </contour>
    </TTGlyph>
    <TTGlyph name="e" xMin="41" yMin="-20" xMax="459" yMax="521">
      <contour>
        <pt x="139" y="269" on="1"/>
        <pt x="138" y="260" on="1"/>
        <pt x="165" y="119" on="1"/>
        <pt x="244" y="41" on="1"/>
        <pt x="336" y="31" on="1"/>
        <pt x="430" y="81" on="1"/>
        <pt x="448" y="55" on="1"/>
        <pt x="369" y="-8" on="1"/>
        <pt x="275" y="-20" on="1"/>
        <pt x="177" y="3" on="1"/>
        <pt x="92" y="74" on="1"/>
        <pt x="41" y="224" on="1"/>
        <pt x="58" y="358" on="1"/>
        <pt x="110" y="452" on="1"/>
        <pt x="215" y="510" on="1"/>
        <pt x="303" y="521" on="1"/>
        <pt x="373" y="499" on="1"/>
        <pt x="427" y="450" on="1"/>
        <pt x="458" y="361" on="1"/>
        <pt x="459" y="278" on="1"/>
        <pt x="445" y="267" on="1"/>
        <pt x="312" y="258" on="1"/>
      </contour>
      <contour>
        <pt x="189" y="431" on="1"/>
        <pt x="150" y="355" on="1"/>
        <pt x="144" y="310" on="1"/>
        <pt x="296" y="308" on="1"/>
        <pt x="365" y="323" on="1"/>
        <pt x="359" y="416" on="1"/>
        <pt x="329" y="467" on="1"/>
        <pt x="265" y="476" on="1"/>
      </contour>
    </TTGlyph>
    <TTGlyph name="eacute" xMin="41" yMin="-20" xMax="459" yMax="756">
      <component glyphName="e" x="0" y="0" flags="0x204"/>
      <component glyphName="acute" x="257" y="-1" flags="0x4"/>
    </TTGlyph>
    <TTGlyph name="ecircumflex" xMin="41" yMin="-20" xMax="459" yMax="752">
      <component glyphName="e" x="0" y="0" flags="0x204"/>
      <component glyphName="circumflex" x="147" y="-1" flags="0x4"/>
    </TTGlyph>
    <TTGlyph name="edieresis" xMin="41" yMin="-20" xMax="459" yMax="711">
      <component glyphName="e" x="0" y="0" flags="0x204"/>
      <component glyphName="dieresis" x="118" y="-1" flags="0x4"/>
    </TTGlyph>
    <TTGlyph name="egrave" xMin="41" yMin="-20" xMax="459" yMax="756">
      <component glyphName="e" x="0" y="0" flags="0x204"/>
      <component glyphName="grave" x="146" y="-1" flags="0x4"/>
    </TTGlyph>
    <TTGlyph name="eight" xMin="41" yMin="-12" xMax="505" yMax="712">
      <contour>
        <pt x="505" y="132" on="1"/>
        <pt x="435" y="29" on="1"/>
        <pt x="317" y="-12" on="1"/>
        <pt x="226" y="-12" on="1"/>
        <pt x="173" y="-1" on="1"/>
        <pt x="89" y="45" on="1"/>
        <pt x="41" y="130" on="1"/>
        <pt x="41" y="221" on="1"/>
        <pt x="112" y="314" on="1"/>
        <pt x="186" y="361" on="1"/>
        <pt x="115" y="419" on="1"/>
        <pt x="73" y="492" on="1"/>
        <pt x="84" y="602" on="1"/>
        <pt x="144" y="677" on="1"/>
        <pt x="230" y="711" on="1"/>
        <pt x="338" y="712" on="1"/>
        <pt x="439" y="653" on="1"/>
        <pt x="475" y="536" on="1"/>
        <pt x="428" y="435" on="1"/>
        <pt x="353" y="375" on="1"/>
        <pt x="441" y="319" on="1"/>
        <pt x="505" y="245" on="1"/>
      </contour>
      <contour>
        <pt x="131" y="218" on="1"/>
        <pt x="132" y="150" on="1"/>
        <pt x="163" y="66" on="1"/>
        <pt x="278" y="26" on="1"/>
        <pt x="377" y="51" on="1"/>
        <pt x="417" y="119" on="1"/>
        <pt x="414" y="201" on="1"/>
        <pt x="359" y="267" on="1"/>
        <pt x="230" y="336" on="1"/>
        <pt x="167" y="282" on="1"/>
      </contour>
      <contour>
        <pt x="360" y="639" on="1"/>
        <pt x="276" y="671" on="1"/>
        <pt x="197" y="651" on="1"/>
        <pt x="160" y="590" on="1"/>
        <pt x="161" y="517" on="1"/>
        <pt x="202" y="460" on="1"/>
        <pt x="309" y="401" on="1"/>
        <pt x="364" y="460" on="1"/>
        <pt x="385" y="543" on="1"/>
      </contour>
    </TTGlyph>
    <TTGlyph name="emdash" xMin="63" yMin="277" xMax="831" yMax="354">
      <contour>
        <pt x="198" y="288" on="1"/>
        <pt x="63" y="277" on="1"/>
        <pt x="71" y="340" on="1"/>
        <pt x="622" y="344" on="1"/>
        <pt x="831" y="354" on="1"/>
        <pt x="822" y="291" on="1"/>
      </contour>
    </TTGlyph>
    <TTGlyph name="endash" xMin="62" yMin="276" xMax="487" yMax="367">
      <contour>
        <pt x="197" y="291" on="1"/>
        <pt x="62" y="276" on="1"/>
        <pt x="68" y="339" on="1"/>
        <pt x="348" y="353" on="1"/>
        <pt x="487" y="367" on="1"/>
        <pt x="480" y="304" on="1"/>
      </contour>
    </TTGlyph>
    <TTGlyph name="equal" xMin="73" yMin="190" xMax="476" yMax="422">
      <contour>
        <pt x="208" y="356" on="1"/>
        <pt x="73" y="345" on="1"/>
        <pt x="81" y="408" on="1"/>
        <pt x="332" y="412" on="1"/>
        <pt x="471" y="422" on="1"/>
        <pt x="462" y="359" on="1"/>
      </contour>
      <contour>
        <pt x="214" y="201" on="1"/>
        <pt x="78" y="190" on="1"/>
        <pt x="87" y="253" on="1"/>
        <pt x="338" y="257" on="1"/>
        <pt x="476" y="267" on="1"/>
        <pt x="468" y="204" on="1"/>
      </contour>
    </TTGlyph>
    <TTGlyph name="eth" xMin="39" yMin="-20" xMax="528" yMax="740">
      <contour>
        <pt x="39" y="190" on="1"/>
        <pt x="39" y="300" on="1"/>
        <pt x="98" y="419" on="1"/>
        <pt x="223" y="499" on="1"/>
        <pt x="328" y="499" on="1"/>
        <pt x="417" y="464" on="1"/>
        <pt x="418" y="463" on="1"/>
        <pt x="392" y="541" on="1"/>
        <pt x="324" y="620" on="1"/>
        <pt x="228" y="558" on="1"/>
        <pt x="200" y="605" on="1"/>
        <pt x="289" y="649" on="1"/>
        <pt x="221" y="679" on="1"/>
        <pt x="173" y="694" on="1"/>
        <pt x="175" y="740" on="1"/>
        <pt x="239" y="724" on="1"/>
        <pt x="338" y="676" on="1"/>
        <pt x="441" y="739" on="1"/>
        <pt x="462" y="690" on="1"/>
        <pt x="377" y="647" on="1"/>
        <pt x="443" y="583" on="1"/>
        <pt x="510" y="432" on="1"/>
        <pt x="524" y="348" on="1"/>
        <pt x="528" y="304" on="1"/>
        <pt x="528" y="195" on="1"/>
        <pt x="498" y="85" on="1"/>
        <pt x="416" y="6" on="1"/>
        <pt x="288" y="-20" on="1"/>
        <pt x="167" y="5" on="1"/>
        <pt x="72" y="91" on="1"/>
      </contour>
      <contour>
        <pt x="162" y="377" on="1"/>
        <pt x="144" y="243" on="1"/>
        <pt x="156" y="127" on="1"/>
        <pt x="198" y="49" on="1"/>
        <pt x="292" y="19" on="1"/>
        <pt x="395" y="69" on="1"/>
        <pt x="428" y="235" on="1"/>
        <pt x="418" y="334" on="1"/>
        <pt x="375" y="417" on="1"/>
        <pt x="312" y="454" on="1"/>
        <pt x="231" y="454" on="1"/>
      </contour>
    </TTGlyph>
    <TTGlyph name="exclam" xMin="56" yMin="-19" xMax="196" yMax="719">
      <contour>
        <pt x="92" y="365" on="1"/>
        <pt x="69" y="680" on="1"/>
        <pt x="84" y="719" on="1"/>
        <pt x="172" y="719" on="1"/>
        <pt x="185" y="680" on="1"/>
        <pt x="159" y="399" on="1"/>
        <pt x="151" y="170" on="1"/>
        <pt x="105" y="170" on="1"/>
      </contour>
      <contour>
        <pt x="80" y="92" on="1"/>
        <pt x="126" y="114" on="1"/>
        <pt x="174" y="98" on="1"/>
        <pt x="196" y="44" on="1"/>
        <pt x="168" y="0" on="1"/>
        <pt x="121" y="-19" on="1"/>
        <pt x="77" y="8" on="1"/>
        <pt x="56" y="53" on="1"/>
      </contour>
    </TTGlyph>
    <TTGlyph name="exclamdown" xMin="44" yMin="-190" xMax="184" yMax="547">
      <component glyphName="exclam" x="-12" y="529" scalex="1.0" scaley="-0.999938964844" flags="0x4"/>
    </TTGlyph>
    <TTGlyph name="f" xMin="26" yMin="-5" xMax="383" yMax="755">
      <contour>
        <pt x="383" y="723" on="1"/>
        <pt x="362" y="616" on="1"/>
        <pt x="329" y="611" on="1"/>
        <pt x="316" y="699" on="1"/>
        <pt x="308" y="711" on="1"/>
        <pt x="270" y="716" on="1"/>
        <pt x="208" y="675" on="1"/>
        <pt x="195" y="580" on="1"/>
        <pt x="195" y="470" on="1"/>
        <pt x="338" y="475" on="1"/>
        <pt x="328" y="425" on="1"/>
        <pt x="195" y="430" on="1"/>
        <pt x="196" y="168" on="1"/>
        <pt x="201" y="50" on="1"/>
        <pt x="305" y="30" on="1"/>
        <pt x="300" y="-5" on="1"/>
        <pt x="148" y="0" on="1"/>
        <pt x="26" y="-5" on="1"/>
        <pt x="28" y="30" on="1"/>
        <pt x="95" y="50" on="1"/>
        <pt x="105" y="152" on="1"/>
        <pt x="101" y="430" on="1"/>
        <pt x="36" y="425" on="1"/>
        <pt x="36" y="475" on="1"/>
        <pt x="102" y="471" on="1"/>
        <pt x="108" y="620" on="1"/>
        <pt x="159" y="715" on="1"/>
        <pt x="249" y="755" on="1"/>
        <pt x="352" y="743" on="1"/>
      </contour>
    </TTGlyph>
    <TTGlyph name="five" xMin="46" yMin="-19" xMax="470" yMax="714">
      <contour>
        <pt x="451" y="130" on="1"/>
        <pt x="374" y="31" on="1"/>
        <pt x="237" y="-19" on="1"/>
        <pt x="125" y="-6" on="1"/>
        <pt x="46" y="32" on="1"/>
        <pt x="75" y="191" on="1"/>
        <pt x="111" y="186" on="1"/>
        <pt x="124" y="55" on="1"/>
        <pt x="214" y="32" on="1"/>
        <pt x="305" y="59" on="1"/>
        <pt x="359" y="132" on="1"/>
        <pt x="367" y="246" on="1"/>
        <pt x="306" y="342" on="1"/>
        <pt x="204" y="366" on="1"/>
        <pt x="109" y="353" on="1"/>
        <pt x="73" y="355" on="1"/>
        <pt x="75" y="581" on="1"/>
        <pt x="69" y="706" on="1"/>
        <pt x="154" y="700" on="1"/>
        <pt x="371" y="700" on="1"/>
        <pt x="397" y="714" on="1"/>
        <pt x="428" y="714" on="1"/>
        <pt x="410" y="600" on="1"/>
        <pt x="127" y="610" on="1"/>
        <pt x="131" y="416" on="1"/>
        <pt x="217" y="433" on="1"/>
        <pt x="355" y="410" on="1"/>
        <pt x="451" y="314" on="1"/>
        <pt x="470" y="220" on="1"/>
      </contour>
    </TTGlyph>
    <TTGlyph name="foundryicon" xMin="51" yMin="138" xMax="1007" yMax="316">
      <contour>
        <pt x="1007" y="251" on="1"/>
        <pt x="991" y="251" on="1"/>
        <pt x="992" y="249" on="0"/>
        <pt x="992" y="246" on="1"/>
        <pt x="992" y="232" on="0"/>
        <pt x="970" y="211" on="0"/>
        <pt x="947" y="211" on="1"/>
        <pt x="938" y="211" on="0"/>
        <pt x="935" y="212" on="1"/>
        <pt x="935" y="197" on="1"/>
        <pt x="953" y="197" on="1"/>
        <pt x="992" y="197" on="0"/>
        <pt x="992" y="161" on="1"/>
        <pt x="992" y="153" on="0"/>
        <pt x="988" y="142" on="0"/>
        <pt x="986" y="138" on="1"/>
        <pt x="959" y="138" on="1"/>
        <pt x="959" y="167" on="1"/>
        <pt x="913" y="167" on="1"/>
        <pt x="908" y="171" on="0"/>
        <pt x="903" y="183" on="0"/>
        <pt x="903" y="189" on="1"/>
        <pt x="903" y="207" on="0"/>
        <pt x="917" y="219" on="1"/>
        <pt x="903" y="227" on="0"/>
        <pt x="903" y="247" on="1"/>
        <pt x="903" y="263" on="0"/>
        <pt x="926" y="284" on="0"/>
        <pt x="946" y="284" on="1"/>
        <pt x="964" y="284" on="0"/>
        <pt x="977" y="274" on="1"/>
        <pt x="985" y="284" on="0"/>
        <pt x="996" y="284" on="1"/>
        <pt x="1000" y="284" on="0"/>
        <pt x="1004" y="283" on="0"/>
        <pt x="1007" y="282" on="1"/>
      </contour>
      <contour>
        <pt x="245" y="175" on="1"/>
        <pt x="239" y="153" on="0"/>
        <pt x="216" y="138" on="0"/>
        <pt x="202" y="138" on="1"/>
        <pt x="183" y="138" on="0"/>
        <pt x="176" y="145" on="1"/>
        <pt x="176" y="171" on="1"/>
        <pt x="193" y="171" on="1"/>
        <pt x="209" y="171" on="0"/>
        <pt x="214" y="182" on="1"/>
        <pt x="200" y="182" on="1"/>
        <pt x="176" y="251" on="1"/>
        <pt x="166" y="251" on="1"/>
        <pt x="166" y="282" on="1"/>
        <pt x="204" y="282" on="1"/>
        <pt x="218" y="233" on="1"/>
        <pt x="223" y="209" on="1"/>
        <pt x="234" y="251" on="1"/>
        <pt x="225" y="251" on="1"/>
        <pt x="225" y="282" on="1"/>
        <pt x="268" y="282" on="1"/>
        <pt x="268" y="251" on="1"/>
      </contour>
      <contour>
        <pt x="158" y="187" on="1"/>
        <pt x="140" y="179" on="0"/>
        <pt x="117" y="179" on="1"/>
        <pt x="86" y="179" on="0"/>
        <pt x="51" y="214" on="0"/>
        <pt x="51" y="245" on="1"/>
        <pt x="51" y="277" on="0"/>
        <pt x="85" y="316" on="0"/>
        <pt x="119" y="316" on="1"/>
        <pt x="128" y="316" on="0"/>
        <pt x="148" y="312" on="0"/>
        <pt x="158" y="309" on="1"/>
        <pt x="158" y="269" on="1"/>
        <pt x="127" y="269" on="1"/>
        <pt x="127" y="284" on="1"/>
        <pt x="124" y="285" on="0"/>
        <pt x="118" y="285" on="1"/>
        <pt x="104" y="285" on="0"/>
        <pt x="89" y="265" on="0"/>
        <pt x="89" y="249" on="1"/>
        <pt x="89" y="212" on="0"/>
        <pt x="126" y="212" on="1"/>
        <pt x="158" y="212" on="1"/>
      </contour>
      <contour>
        <pt x="748" y="179" on="1"/>
        <pt x="699" y="179" on="0"/>
        <pt x="699" y="231" on="1"/>
        <pt x="699" y="256" on="0"/>
        <pt x="726" y="284" on="0"/>
        <pt x="749" y="284" on="1"/>
        <pt x="772" y="284" on="0"/>
        <pt x="799" y="257" on="0"/>
        <pt x="799" y="232" on="1"/>
        <pt x="799" y="207" on="0"/>
        <pt x="772" y="179" on="0"/>
      </contour>
      <contour>
        <pt x="484" y="277" on="1"/>
        <pt x="493" y="280" on="0"/>
        <pt x="510" y="284" on="0"/>
        <pt x="520" y="284" on="1"/>
        <pt x="566" y="284" on="0"/>
        <pt x="566" y="246" on="1"/>
        <pt x="566" y="212" on="1"/>
        <pt x="577" y="212" on="1"/>
        <pt x="577" y="185" on="1"/>
        <pt x="569" y="180" on="0"/>
        <pt x="557" y="180" on="1"/>
        <pt x="541" y="180" on="0"/>
        <pt x="535" y="187" on="1"/>
        <pt x="526" y="179" on="0"/>
        <pt x="510" y="179" on="1"/>
        <pt x="496" y="179" on="0"/>
        <pt x="476" y="195" on="0"/>
        <pt x="476" y="210" on="1"/>
        <pt x="476" y="224" on="0"/>
        <pt x="494" y="240" on="0"/>
        <pt x="515" y="240" on="1"/>
        <pt x="531" y="240" on="1"/>
        <pt x="531" y="241" on="1"/>
        <pt x="531" y="245" on="0"/>
        <pt x="522" y="251" on="0"/>
        <pt x="509" y="251" on="1"/>
        <pt x="484" y="251" on="1"/>
      </contour>
      <contour>
        <pt x="461" y="212" on="1"/>
        <pt x="461" y="186" on="1"/>
        <pt x="453" y="182" on="0"/>
        <pt x="433" y="179" on="0"/>
        <pt x="424" y="179" on="1"/>
        <pt x="398" y="179" on="0"/>
        <pt x="371" y="206" on="0"/>
        <pt x="371" y="230" on="1"/>
        <pt x="371" y="254" on="0"/>
        <pt x="395" y="284" on="0"/>
        <pt x="420" y="284" on="1"/>
        <pt x="440" y="284" on="0"/>
        <pt x="464" y="260" on="0"/>
        <pt x="464" y="242" on="1"/>
        <pt x="464" y="238" on="0"/>
        <pt x="463" y="229" on="0"/>
        <pt x="462" y="224" on="1"/>
        <pt x="407" y="224" on="1"/>
        <pt x="411" y="212" on="0"/>
        <pt x="432" y="212" on="1"/>
      </contour>
      <contour>
        <pt x="811" y="251" on="1"/>
        <pt x="811" y="282" on="1"/>
        <pt x="845" y="282" on="1"/>
        <pt x="855" y="266" on="1"/>
        <pt x="857" y="271" on="0"/>
        <pt x="862" y="276" on="0"/>
        <pt x="865" y="279" on="1"/>
        <pt x="872" y="284" on="0"/>
        <pt x="880" y="284" on="1"/>
        <pt x="886" y="284" on="0"/>
        <pt x="892" y="282" on="1"/>
        <pt x="892" y="251" on="1"/>
        <pt x="858" y="251" on="1"/>
        <pt x="858" y="212" on="1"/>
        <pt x="875" y="212" on="1"/>
        <pt x="875" y="182" on="1"/>
        <pt x="813" y="182" on="1"/>
        <pt x="813" y="212" on="1"/>
        <pt x="822" y="212" on="1"/>
        <pt x="822" y="251" on="1"/>
      </contour>
      <contour>
        <pt x="282" y="251" on="1"/>
        <pt x="282" y="282" on="1"/>
        <pt x="316" y="282" on="1"/>
        <pt x="326" y="266" on="1"/>
        <pt x="328" y="271" on="0"/>
        <pt x="333" y="276" on="0"/>
        <pt x="336" y="279" on="1"/>
        <pt x="343" y="284" on="0"/>
        <pt x="351" y="284" on="1"/>
        <pt x="357" y="284" on="0"/>
        <pt x="363" y="282" on="1"/>
        <pt x="363" y="251" on="1"/>
        <pt x="329" y="251" on="1"/>
        <pt x="329" y="212" on="1"/>
        <pt x="346" y="212" on="1"/>
        <pt x="346" y="182" on="1"/>
        <pt x="284" y="182" on="1"/>
        <pt x="284" y="212" on="1"/>
        <pt x="294" y="212" on="1"/>
        <pt x="294" y="251" on="1"/>
      </contour>
      <contour>
        <pt x="589" y="285" on="1"/>
        <pt x="577" y="285" on="1"/>
        <pt x="577" y="316" on="1"/>
        <pt x="624" y="316" on="1"/>
        <pt x="624" y="212" on="1"/>
        <pt x="638" y="212" on="1"/>
        <pt x="638" y="184" on="1"/>
        <pt x="629" y="180" on="0"/>
        <pt x="616" y="180" on="1"/>
        <pt x="589" y="180" on="0"/>
        <pt x="589" y="208" on="1"/>
      </contour>
      <contour>
        <pt x="651" y="199" on="1"/>
        <pt x="651" y="207" on="0"/>
        <pt x="661" y="219" on="0"/>
        <pt x="671" y="219" on="1"/>
        <pt x="682" y="219" on="0"/>
        <pt x="693" y="207" on="0"/>
        <pt x="693" y="199" on="1"/>
        <pt x="693" y="191" on="0"/>
        <pt x="682" y="180" on="0"/>
        <pt x="671" y="180" on="1"/>
        <pt x="661" y="180" on="0"/>
        <pt x="651" y="191" on="0"/>
      </contour>
      <contour>
        <pt x="749" y="206" on="1"/>
        <pt x="763" y="206" on="0"/>
        <pt x="763" y="232" on="1"/>
        <pt x="763" y="256" on="0"/>
        <pt x="749" y="256" on="1"/>
        <pt x="735" y="256" on="0"/>
        <pt x="735" y="232" on="1"/>
        <pt x="735" y="206" on="0"/>
      </contour>
      <contour>
        <pt x="936" y="247" on="1"/>
        <pt x="936" y="232" on="0"/>
        <pt x="948" y="232" on="1"/>
        <pt x="958" y="232" on="0"/>
        <pt x="958" y="247" on="1"/>
        <pt x="958" y="262" on="0"/>
        <pt x="948" y="262" on="1"/>
        <pt x="936" y="262" on="0"/>
      </contour>
      <contour>
        <pt x="520" y="204" on="1"/>
        <pt x="527" y="204" on="0"/>
        <pt x="531" y="207" on="1"/>
        <pt x="531" y="222" on="1"/>
        <pt x="523" y="222" on="1"/>
        <pt x="510" y="222" on="0"/>
        <pt x="510" y="213" on="1"/>
        <pt x="510" y="204" on="0"/>
      </contour>
      <contour>
        <pt x="419" y="258" on="1"/>
        <pt x="409" y="258" on="0"/>
        <pt x="406" y="242" on="1"/>
        <pt x="431" y="242" on="1"/>
        <pt x="431" y="258" on="0"/>
      </contour>
    </TTGlyph>
    <TTGlyph name="four" xMin="29" yMin="-5" xMax="543" yMax="738">
      <contour>
        <pt x="341" y="597" on="1"/>
        <pt x="281" y="499" on="1"/>
        <pt x="178" y="345" on="1"/>
        <pt x="110" y="267" on="1"/>
        <pt x="345" y="268" on="1"/>
        <pt x="339" y="478" on="1"/>
        <pt x="344" y="597" on="1"/>
      </contour>
      <contour>
        <pt x="343" y="107" on="1"/>
        <pt x="343" y="208" on="1"/>
        <pt x="41" y="198" on="1"/>
        <pt x="29" y="242" on="1"/>
        <pt x="144" y="392" on="1"/>
        <pt x="364" y="720" on="1"/>
        <pt x="433" y="738" on="1"/>
        <pt x="444" y="702" on="1"/>
        <pt x="434" y="646" on="1"/>
        <pt x="434" y="373" on="1"/>
        <pt x="439" y="272" on="1"/>
        <pt x="543" y="278" on="1"/>
        <pt x="533" y="195" on="1"/>
        <pt x="434" y="202" on="1"/>
        <pt x="434" y="99" on="1"/>
        <pt x="439" y="50" on="1"/>
        <pt x="511" y="30" on="1"/>
        <pt x="506" y="-5" on="1"/>
        <pt x="384" y="0" on="1"/>
        <pt x="261" y="-5" on="1"/>
        <pt x="263" y="30" on="1"/>
        <pt x="336" y="47" on="1"/>
      </contour>
    </TTGlyph>
    <TTGlyph name="foursuperior" xMin="19" yMin="309" xMax="339" yMax="738">
      <contour>
        <pt x="339" y="344" on="1"/>
        <pt x="334" y="309" on="1"/>
        <pt x="231" y="314" on="1"/>
        <pt x="120" y="309" on="1"/>
        <pt x="122" y="344" on="1"/>
        <pt x="191" y="364" on="1"/>
        <pt x="191" y="424" on="1"/>
        <pt x="42" y="409" on="1"/>
        <pt x="19" y="447" on="1"/>
        <pt x="205" y="729" on="1"/>
        <pt x="243" y="738" on="1"/>
        <pt x="276" y="725" on="1"/>
        <pt x="266" y="655" on="1"/>
        <pt x="266" y="463" on="1"/>
        <pt x="333" y="468" on="1"/>
        <pt x="324" y="419" on="1"/>
        <pt x="266" y="425" on="1"/>
        <pt x="266" y="364" on="1"/>
      </contour>
      <contour>
        <pt x="191" y="468" on="1"/>
        <pt x="197" y="641" on="1"/>
        <pt x="195" y="643" on="1"/>
        <pt x="155" y="567" on="1"/>
        <pt x="124" y="520" on="1"/>
        <pt x="81" y="462" on="1"/>
      </contour>
    </TTGlyph>
    <TTGlyph name="fraction" xMin="-12" yMin="-7" xMax="345" yMax="706">
      <contour>
        <pt x="55" y="0" on="1"/>
        <pt x="-12" y="-7" on="1"/>
        <pt x="278" y="700" on="1"/>
        <pt x="345" y="706" on="1"/>
      </contour>
    </TTGlyph>
    <TTGlyph name="g" xMin="37" yMin="-227" xMax="520" yMax="574">
      <contour>
        <pt x="488" y="574" on="1"/>
        <pt x="520" y="507" on="1"/>
        <pt x="478" y="481" on="1"/>
        <pt x="395" y="470" on="1"/>
        <pt x="465" y="384" on="1"/>
        <pt x="464" y="287" on="1"/>
        <pt x="408" y="204" on="1"/>
        <pt x="286" y="164" on="1"/>
        <pt x="180" y="179" on="1"/>
        <pt x="162" y="153" on="1"/>
        <pt x="158" y="125" on="1"/>
        <pt x="186" y="107" on="1"/>
        <pt x="358" y="80" on="1"/>
        <pt x="425" y="65" on="1"/>
        <pt x="492" y="17" on="1"/>
        <pt x="500" y="-102" on="1"/>
        <pt x="454" y="-171" on="1"/>
        <pt x="342" y="-222" on="1"/>
        <pt x="184" y="-227" on="1"/>
        <pt x="115" y="-206" on="1"/>
        <pt x="58" y="-156" on="1"/>
        <pt x="37" y="-84" on="1"/>
        <pt x="67" y="3" on="1"/>
        <pt x="135" y="35" on="1"/>
        <pt x="99" y="69" on="1"/>
        <pt x="99" y="138" on="1"/>
        <pt x="144" y="191" on="1"/>
        <pt x="59" y="257" on="1"/>
        <pt x="49" y="384" on="1"/>
        <pt x="132" y="480" on="1"/>
        <pt x="259" y="510" on="1"/>
        <pt x="360" y="490" on="1"/>
      </contour>
      <contour>
        <pt x="231" y="207" on="1"/>
        <pt x="313" y="218" on="1"/>
        <pt x="366" y="275" on="1"/>
        <pt x="374" y="373" on="1"/>
        <pt x="330" y="448" on="1"/>
        <pt x="257" y="470" on="1"/>
        <pt x="161" y="430" on="1"/>
        <pt x="133" y="342" on="1"/>
        <pt x="165" y="243" on="1"/>
      </contour>
      <contour>
        <pt x="285" y="6" on="1"/>
        <pt x="169" y="22" on="1"/>
        <pt x="124" y="-27" on="1"/>
        <pt x="118" y="-101" on="1"/>
        <pt x="163" y="-166" on="1"/>
        <pt x="276" y="-183" on="1"/>
        <pt x="395" y="-138" on="1"/>
        <pt x="424" y="-41" on="1"/>
      </contour>
    </TTGlyph>
    <TTGlyph name="germandbls" xMin="25" yMin="-20" xMax="609" yMax="769">
      <contour>
        <pt x="316" y="727" on="1"/>
        <pt x="206" y="673" on="1"/>
        <pt x="194" y="580" on="1"/>
        <pt x="195" y="168" on="1"/>
        <pt x="204" y="0" on="1"/>
        <pt x="147" y="0" on="1"/>
        <pt x="25" y="-5" on="1"/>
        <pt x="27" y="30" on="1"/>
        <pt x="94" y="50" on="1"/>
        <pt x="104" y="152" on="1"/>
        <pt x="104" y="325" on="1"/>
        <pt x="100" y="430" on="1"/>
        <pt x="35" y="425" on="1"/>
        <pt x="45" y="475" on="1"/>
        <pt x="104" y="475" on="1"/>
        <pt x="100" y="560" on="1"/>
        <pt x="122" y="667" on="1"/>
        <pt x="204" y="744" on="1"/>
        <pt x="329" y="769" on="1"/>
        <pt x="456" y="730" on="1"/>
        <pt x="523" y="661" on="1"/>
        <pt x="542" y="586" on="1"/>
        <pt x="529" y="521" on="1"/>
        <pt x="474" y="486" on="1"/>
        <pt x="398" y="460" on="1"/>
        <pt x="372" y="410" on="1"/>
        <pt x="381" y="357" on="1"/>
        <pt x="563" y="241" on="1"/>
        <pt x="609" y="189" on="1"/>
        <pt x="609" y="104" on="1"/>
        <pt x="590" y="45" on="1"/>
        <pt x="541" y="-1" on="1"/>
        <pt x="432" y="-20" on="1"/>
        <pt x="356" y="-14" on="1"/>
        <pt x="286" y="9" on="1"/>
        <pt x="296" y="162" on="1"/>
        <pt x="334" y="157" on="1"/>
        <pt x="357" y="43" on="1"/>
        <pt x="425" y="26" on="1"/>
        <pt x="507" y="45" on="1"/>
        <pt x="522" y="111" on="1"/>
        <pt x="493" y="170" on="1"/>
        <pt x="323" y="270" on="1"/>
        <pt x="287" y="336" on="1"/>
        <pt x="287" y="426" on="1"/>
        <pt x="337" y="484" on="1"/>
        <pt x="469" y="543" on="1"/>
        <pt x="467" y="613" on="1"/>
        <pt x="429" y="686" on="1"/>
      </contour>
    </TTGlyph>
    <TTGlyph name="grave" xMin="2" yMin="566" xMax="162" yMax="757">
      <contour>
        <pt x="162" y="583" on="1"/>
        <pt x="126" y="566" on="1"/>
        <pt x="44" y="671" on="1"/>
        <pt x="2" y="717" on="1"/>
        <pt x="12" y="740" on="1"/>
        <pt x="82" y="757" on="1"/>
      </contour>
    </TTGlyph>
    <TTGlyph name="grave.case" xMin="26" yMin="796" xMax="222" yMax="962">
      <contour>
        <pt x="222" y="824" on="1"/>
        <pt x="192" y="796" on="1"/>
        <pt x="81" y="868" on="1"/>
        <pt x="26" y="897" on="1"/>
        <pt x="27" y="923" on="1"/>
        <pt x="89" y="962" on="1"/>
      </contour>
    </TTGlyph>
    <TTGlyph name="greater" xMin="43" yMin="31" xMax="493" yMax="573">
      <contour>
        <pt x="53" y="573" on="1"/>
        <pt x="191" y="486" on="1"/>
        <pt x="493" y="319" on="1"/>
        <pt x="493" y="269" on="1"/>
        <pt x="163" y="101" on="1"/>
        <pt x="43" y="31" on="1"/>
        <pt x="45" y="116" on="1"/>
        <pt x="158" y="163" on="1"/>
        <pt x="416" y="295" on="1"/>
        <pt x="152" y="442" on="1"/>
        <pt x="51" y="488" on="1"/>
      </contour>
    </TTGlyph>
    <TTGlyph name="guillemotleft" xMin="39" yMin="67" xMax="541" yMax="517">
      <contour>
        <pt x="39" y="301" on="1"/>
        <pt x="174" y="421" on="1"/>
        <pt x="264" y="512" on="1"/>
        <pt x="307" y="486" on="1"/>
        <pt x="201" y="374" on="1"/>
        <pt x="130" y="287" on="1"/>
        <pt x="130" y="283" on="1"/>
        <pt x="196" y="210" on="1"/>
        <pt x="321" y="95" on="1"/>
        <pt x="280" y="67" on="1"/>
        <pt x="188" y="148" on="1"/>
        <pt x="41" y="261" on="1"/>
      </contour>
      <contour>
        <pt x="249" y="309" on="1"/>
        <pt x="372" y="418" on="1"/>
        <pt x="474" y="517" on="1"/>
        <pt x="517" y="492" on="1"/>
        <pt x="407" y="373" on="1"/>
        <pt x="347" y="294" on="1"/>
        <pt x="347" y="290" on="1"/>
        <pt x="406" y="224" on="1"/>
        <pt x="541" y="96" on="1"/>
        <pt x="500" y="67" on="1"/>
        <pt x="386" y="165" on="1"/>
        <pt x="251" y="269" on="1"/>
      </contour>
    </TTGlyph>
    <TTGlyph name="guillemotright" xMin="39" yMin="67" xMax="541" yMax="517">
      <contour>
        <pt x="541" y="283" on="1"/>
        <pt x="406" y="163" on="1"/>
        <pt x="316" y="72" on="1"/>
        <pt x="273" y="98" on="1"/>
        <pt x="379" y="210" on="1"/>
        <pt x="450" y="297" on="1"/>
        <pt x="450" y="301" on="1"/>
        <pt x="384" y="374" on="1"/>
        <pt x="259" y="489" on="1"/>
        <pt x="300" y="517" on="1"/>
        <pt x="392" y="436" on="1"/>
        <pt x="539" y="323" on="1"/>
      </contour>
      <contour>
        <pt x="331" y="275" on="1"/>
        <pt x="208" y="166" on="1"/>
        <pt x="106" y="67" on="1"/>
        <pt x="63" y="92" on="1"/>
        <pt x="173" y="211" on="1"/>
        <pt x="233" y="290" on="1"/>
        <pt x="233" y="294" on="1"/>
        <pt x="174" y="360" on="1"/>
        <pt x="39" y="488" on="1"/>
        <pt x="80" y="517" on="1"/>
        <pt x="194" y="419" on="1"/>
        <pt x="329" y="315" on="1"/>
      </contour>
    </TTGlyph>
    <TTGlyph name="guilsinglleft" xMin="35" yMin="72" xMax="317" yMax="517">
      <contour>
        <pt x="35" y="306" on="1"/>
        <pt x="170" y="426" on="1"/>
        <pt x="260" y="517" on="1"/>
        <pt x="303" y="491" on="1"/>
        <pt x="197" y="379" on="1"/>
        <pt x="126" y="292" on="1"/>
        <pt x="126" y="288" on="1"/>
        <pt x="192" y="215" on="1"/>
        <pt x="317" y="100" on="1"/>
        <pt x="276" y="72" on="1"/>
        <pt x="184" y="153" on="1"/>
        <pt x="37" y="266" on="1"/>
      </contour>
    </TTGlyph>
    <TTGlyph name="guilsinglright" xMin="35" yMin="72" xMax="317" yMax="517">
      <contour>
        <pt x="317" y="283" on="1"/>
        <pt x="182" y="163" on="1"/>
        <pt x="92" y="72" on="1"/>
        <pt x="49" y="98" on="1"/>
        <pt x="155" y="210" on="1"/>
        <pt x="226" y="297" on="1"/>
        <pt x="226" y="301" on="1"/>
        <pt x="160" y="374" on="1"/>
        <pt x="35" y="489" on="1"/>
        <pt x="76" y="517" on="1"/>
        <pt x="168" y="436" on="1"/>
        <pt x="315" y="323" on="1"/>
      </contour>
    </TTGlyph>
    <TTGlyph name="h" xMin="5" yMin="-5" xMax="582" yMax="756">
      <contour>
        <pt x="188" y="609" on="1"/>
        <pt x="185" y="445" on="1"/>
        <pt x="296" y="513" on="1"/>
        <pt x="398" y="520" on="1"/>
        <pt x="490" y="457" on="1"/>
        <pt x="505" y="377" on="1"/>
        <pt x="503" y="166" on="1"/>
        <pt x="511" y="49" on="1"/>
        <pt x="582" y="30" on="1"/>
        <pt x="577" y="-5" on="1"/>
        <pt x="459" y="0" on="1"/>
        <pt x="337" y="-5" on="1"/>
        <pt x="339" y="30" on="1"/>
        <pt x="405" y="50" on="1"/>
        <pt x="412" y="155" on="1"/>
        <pt x="408" y="373" on="1"/>
        <pt x="381" y="439" on="1"/>
        <pt x="296" y="454" on="1"/>
        <pt x="184" y="397" on="1"/>
        <pt x="182" y="263" on="1"/>
        <pt x="184" y="166" on="1"/>
        <pt x="187" y="50" on="1"/>
        <pt x="260" y="30" on="1"/>
        <pt x="255" y="-5" on="1"/>
        <pt x="137" y="0" on="1"/>
        <pt x="15" y="-5" on="1"/>
        <pt x="17" y="30" on="1"/>
        <pt x="83" y="50" on="1"/>
        <pt x="92" y="155" on="1"/>
        <pt x="88" y="593" on="1"/>
        <pt x="81" y="697" on="1"/>
        <pt x="10" y="694" on="1"/>
        <pt x="5" y="729" on="1"/>
        <pt x="143" y="756" on="1"/>
        <pt x="193" y="745" on="1"/>
      </contour>
    </TTGlyph>
    <TTGlyph name="hyphen" xMin="65" yMin="278" xMax="464" yMax="356">
      <contour>
        <pt x="334" y="295" on="1"/>
        <pt x="65" y="278" on="1"/>
        <pt x="74" y="342" on="1"/>
        <pt x="227" y="343" on="1"/>
        <pt x="464" y="356" on="1"/>
        <pt x="455" y="292" on="1"/>
      </contour>
    </TTGlyph>
    <TTGlyph name="i" xMin="18" yMin="-5" xMax="273" yMax="730">
      <contour>
        <pt x="86" y="708" on="1"/>
        <pt x="132" y="730" on="1"/>
        <pt x="180" y="714" on="1"/>
        <pt x="202" y="660" on="1"/>
        <pt x="174" y="616" on="1"/>
        <pt x="127" y="597" on="1"/>
        <pt x="83" y="624" on="1"/>
        <pt x="62" y="669" on="1"/>
      </contour>
      <contour>
        <pt x="199" y="363" on="1"/>
        <pt x="193" y="263" on="1"/>
        <pt x="196" y="166" on="1"/>
        <pt x="200" y="50" on="1"/>
        <pt x="273" y="30" on="1"/>
        <pt x="268" y="-5" on="1"/>
        <pt x="150" y="0" on="1"/>
        <pt x="28" y="-5" on="1"/>
        <pt x="30" y="30" on="1"/>
        <pt x="96" y="50" on="1"/>
        <pt x="101" y="155" on="1"/>
        <pt x="99" y="347" on="1"/>
        <pt x="94" y="451" on="1"/>
        <pt x="23" y="448" on="1"/>
        <pt x="18" y="483" on="1"/>
        <pt x="156" y="510" on="1"/>
        <pt x="206" y="499" on="1"/>
      </contour>
    </TTGlyph>
    <TTGlyph name="iacute" xMin="18" yMin="-5" xMax="273" yMax="757">
      <component glyphName="dotlessi" x="0" y="0" flags="0x204"/>
      <component glyphName="acute" x="84" y="0" flags="0x4"/>
    </TTGlyph>
    <TTGlyph name="icircumflex" xMin="12" yMin="-5" xMax="273" yMax="753">
      <component glyphName="dotlessi" x="0" y="0" flags="0x204"/>
      <component glyphName="circumflex" x="14" y="0" flags="0x4"/>
    </TTGlyph>
    <TTGlyph name="idieresis" xMin="-7" yMin="-5" xMax="293" yMax="712">
      <component glyphName="dotlessi" x="0" y="0" flags="0x204"/>
      <component glyphName="dieresis" x="-14" y="0" flags="0x4"/>
    </TTGlyph>
    <TTGlyph name="igrave" xMin="15" yMin="-5" xMax="273" yMax="757">
      <component glyphName="dotlessi" x="0" y="0" flags="0x204"/>
      <component glyphName="grave" x="13" y="0" flags="0x4"/>
    </TTGlyph>
    <TTGlyph name="j" xMin="-24" yMin="-243" xMax="196" yMax="730">
      <contour>
        <pt x="188" y="0" on="1"/>
        <pt x="165" y="-104" on="1"/>
        <pt x="88" y="-184" on="1"/>
        <pt x="-5" y="-243" on="1"/>
        <pt x="-24" y="-203" on="1"/>
        <pt x="36" y="-157" on="1"/>
        <pt x="78" y="-94" on="1"/>
        <pt x="90" y="0" on="1"/>
        <pt x="91" y="155" on="1"/>
        <pt x="91" y="347" on="1"/>
        <pt x="82" y="451" on="1"/>
        <pt x="13" y="448" on="1"/>
        <pt x="8" y="483" on="1"/>
        <pt x="146" y="510" on="1"/>
        <pt x="196" y="499" on="1"/>
        <pt x="189" y="363" on="1"/>
        <pt x="185" y="263" on="1"/>
      </contour>
      <contour>
        <pt x="76" y="708" on="1"/>
        <pt x="122" y="730" on="1"/>
        <pt x="170" y="714" on="1"/>
        <pt x="192" y="660" on="1"/>
        <pt x="164" y="616" on="1"/>
        <pt x="117" y="597" on="1"/>
        <pt x="73" y="624" on="1"/>
        <pt x="52" y="669" on="1"/>
      </contour>
    </TTGlyph>
    <TTGlyph name="k" xMin="8" yMin="-5" xMax="530" yMax="756">
      <contour>
        <pt x="319" y="392" on="1"/>
        <pt x="365" y="459" on="1"/>
        <pt x="298" y="470" on="1"/>
        <pt x="303" y="505" on="1"/>
        <pt x="408" y="500" on="1"/>
        <pt x="500" y="505" on="1"/>
        <pt x="498" y="470" on="1"/>
        <pt x="428" y="448" on="1"/>
        <pt x="285" y="294" on="1"/>
        <pt x="368" y="177" on="1"/>
        <pt x="471" y="50" on="1"/>
        <pt x="530" y="30" on="1"/>
        <pt x="525" y="-5" on="1"/>
        <pt x="421" y="0" on="1"/>
        <pt x="326" y="-5" on="1"/>
        <pt x="328" y="30" on="1"/>
        <pt x="376" y="33" on="1"/>
        <pt x="349" y="83" on="1"/>
        <pt x="233" y="237" on="1"/>
        <pt x="184" y="237" on="1"/>
        <pt x="186" y="166" on="1"/>
        <pt x="188" y="50" on="1"/>
        <pt x="257" y="30" on="1"/>
        <pt x="251" y="-5" on="1"/>
        <pt x="140" y="0" on="1"/>
        <pt x="12" y="-5" on="1"/>
        <pt x="16" y="30" on="1"/>
        <pt x="86" y="47" on="1"/>
        <pt x="89" y="155" on="1"/>
        <pt x="93" y="374" on="1"/>
        <pt x="89" y="597" on="1"/>
        <pt x="84" y="697" on="1"/>
        <pt x="13" y="694" on="1"/>
        <pt x="8" y="729" on="1"/>
        <pt x="146" y="756" on="1"/>
        <pt x="196" y="745" on="1"/>
        <pt x="189" y="613" on="1"/>
        <pt x="183" y="276" on="1"/>
        <pt x="214" y="276" on="1"/>
      </contour>
    </TTGlyph>
    <TTGlyph name="l" xMin="8" yMin="-5" xMax="267" yMax="756">
      <contour>
        <pt x="189" y="613" on="1"/>
        <pt x="183" y="263" on="1"/>
        <pt x="186" y="166" on="1"/>
        <pt x="194" y="50" on="1"/>
        <pt x="267" y="30" on="1"/>
        <pt x="262" y="-5" on="1"/>
        <pt x="140" y="0" on="1"/>
        <pt x="18" y="-5" on="1"/>
        <pt x="20" y="30" on="1"/>
        <pt x="86" y="50" on="1"/>
        <pt x="91" y="155" on="1"/>
        <pt x="95" y="374" on="1"/>
        <pt x="89" y="597" on="1"/>
        <pt x="84" y="697" on="1"/>
        <pt x="13" y="694" on="1"/>
        <pt x="8" y="729" on="1"/>
        <pt x="146" y="756" on="1"/>
        <pt x="196" y="745" on="1"/>
      </contour>
    </TTGlyph>
    <TTGlyph name="less" xMin="38" yMin="35" xMax="493" yMax="577">
      <contour>
        <pt x="477" y="492" on="1"/>
        <pt x="377" y="444" on="1"/>
        <pt x="115" y="292" on="1"/>
        <pt x="375" y="165" on="1"/>
        <pt x="489" y="120" on="1"/>
        <pt x="493" y="35" on="1"/>
        <pt x="372" y="103" on="1"/>
        <pt x="39" y="265" on="1"/>
        <pt x="38" y="315" on="1"/>
        <pt x="337" y="487" on="1"/>
        <pt x="473" y="577" on="1"/>
      </contour>
    </TTGlyph>
    <TTGlyph name="logicalnot" xMin="69" yMin="158" xMax="552" yMax="363">
      <contour>
        <pt x="486" y="167" on="1"/>
        <pt x="485" y="298" on="1"/>
        <pt x="277" y="300" on="1"/>
        <pt x="69" y="284" on="1"/>
        <pt x="75" y="347" on="1"/>
        <pt x="382" y="353" on="1"/>
        <pt x="545" y="363" on="1"/>
        <pt x="552" y="158" on="1"/>
      </contour>
    </TTGlyph>
    <TTGlyph name="m" xMin="18" yMin="-5" xMax="885" yMax="520">
      <contour>
        <pt x="515" y="49" on="1"/>
        <pt x="586" y="30" on="1"/>
        <pt x="581" y="-5" on="1"/>
        <pt x="463" y="0" on="1"/>
        <pt x="341" y="-5" on="1"/>
        <pt x="343" y="30" on="1"/>
        <pt x="409" y="50" on="1"/>
        <pt x="416" y="155" on="1"/>
        <pt x="412" y="373" on="1"/>
        <pt x="385" y="439" on="1"/>
        <pt x="300" y="454" on="1"/>
        <pt x="201" y="401" on="1"/>
        <pt x="199" y="363" on="1"/>
        <pt x="193" y="263" on="1"/>
        <pt x="195" y="166" on="1"/>
        <pt x="200" y="50" on="1"/>
        <pt x="273" y="30" on="1"/>
        <pt x="268" y="-5" on="1"/>
        <pt x="150" y="0" on="1"/>
        <pt x="28" y="-5" on="1"/>
        <pt x="30" y="30" on="1"/>
        <pt x="96" y="50" on="1"/>
        <pt x="103" y="155" on="1"/>
        <pt x="99" y="347" on="1"/>
        <pt x="94" y="451" on="1"/>
        <pt x="23" y="448" on="1"/>
        <pt x="18" y="483" on="1"/>
        <pt x="156" y="510" on="1"/>
        <pt x="206" y="499" on="1"/>
        <pt x="203" y="452" on="1"/>
        <pt x="300" y="513" on="1"/>
        <pt x="402" y="520" on="1"/>
        <pt x="494" y="457" on="1"/>
        <pt x="499" y="430" on="1"/>
        <pt x="599" y="513" on="1"/>
        <pt x="701" y="520" on="1"/>
        <pt x="793" y="457" on="1"/>
        <pt x="808" y="377" on="1"/>
        <pt x="806" y="166" on="1"/>
        <pt x="814" y="49" on="1"/>
        <pt x="885" y="30" on="1"/>
        <pt x="880" y="-5" on="1"/>
        <pt x="762" y="0" on="1"/>
        <pt x="640" y="-5" on="1"/>
        <pt x="642" y="30" on="1"/>
        <pt x="708" y="50" on="1"/>
        <pt x="715" y="155" on="1"/>
        <pt x="711" y="373" on="1"/>
        <pt x="684" y="439" on="1"/>
        <pt x="599" y="454" on="1"/>
        <pt x="507" y="387" on="1"/>
        <pt x="509" y="377" on="1"/>
        <pt x="507" y="166" on="1"/>
      </contour>
    </TTGlyph>
    <TTGlyph name="macron" xMin="1" yMin="557" xMax="528" yMax="639">
      <contour>
        <pt x="183" y="568" on="1"/>
        <pt x="1" y="557" on="1"/>
        <pt x="10" y="621" on="1"/>
        <pt x="347" y="629" on="1"/>
        <pt x="528" y="639" on="1"/>
        <pt x="519" y="575" on="1"/>
      </contour>
    </TTGlyph>
    <TTGlyph name="minus" xMin="71" yMin="279" xMax="470" yMax="356">
      <contour>
        <pt x="207" y="290" on="1"/>
        <pt x="71" y="279" on="1"/>
        <pt x="80" y="342" on="1"/>
        <pt x="331" y="346" on="1"/>
        <pt x="470" y="356" on="1"/>
        <pt x="461" y="293" on="1"/>
      </contour>
    </TTGlyph>
    <TTGlyph name="mu" xMin="87" yMin="-177" xMax="592" yMax="510">
      <contour>
        <pt x="133" y="27" on="1"/>
        <pt x="174" y="-110" on="1"/>
        <pt x="182" y="-172" on="1"/>
        <pt x="107" y="-177" on="1"/>
        <pt x="105" y="-136" on="0"/>
        <pt x="103" y="-95" on="1"/>
        <pt x="101" y="-60" on="0"/>
        <pt x="96" y="21" on="0"/>
        <pt x="94" y="56" on="1"/>
        <pt x="96" y="337" on="1"/>
        <pt x="87" y="500" on="1"/>
        <pt x="148" y="510" on="1"/>
        <pt x="198" y="499" on="1"/>
        <pt x="192" y="345" on="1"/>
        <pt x="192" y="127" on="1"/>
        <pt x="219" y="61" on="1"/>
        <pt x="303" y="50" on="1"/>
        <pt x="415" y="117" on="1"/>
        <pt x="415" y="221" on="1"/>
        <pt x="414" y="346" on="1"/>
        <pt x="410" y="500" on="1"/>
        <pt x="471" y="509" on="1"/>
        <pt x="521" y="500" on="1"/>
        <pt x="514" y="362" on="1"/>
        <pt x="513" y="41" on="1"/>
        <pt x="592" y="21" on="1"/>
        <pt x="587" y="-14" on="1"/>
        <pt x="443" y="-14" on="1"/>
        <pt x="420" y="71" on="1"/>
        <pt x="419" y="71" on="1"/>
        <pt x="304" y="-13" on="1"/>
        <pt x="202" y="-20" on="1"/>
      </contour>
    </TTGlyph>
    <TTGlyph name="multiply" xMin="51" yMin="149" xMax="394" yMax="486">
      <contour>
        <pt x="232" y="353" on="1"/>
        <pt x="335" y="486" on="1"/>
        <pt x="374" y="434" on="1"/>
        <pt x="266" y="308" on="1"/>
        <pt x="394" y="204" on="1"/>
        <pt x="340" y="164" on="1"/>
        <pt x="215" y="279" on="1"/>
        <pt x="108" y="149" on="1"/>
        <pt x="69" y="201" on="1"/>
        <pt x="182" y="327" on="1"/>
        <pt x="51" y="434" on="1"/>
        <pt x="104" y="475" on="1"/>
      </contour>
    </TTGlyph>
    <TTGlyph name="n" xMin="18" yMin="-5" xMax="596" yMax="520">
      <contour>
        <pt x="525" y="49" on="1"/>
        <pt x="596" y="30" on="1"/>
        <pt x="591" y="-5" on="1"/>
        <pt x="473" y="0" on="1"/>
        <pt x="351" y="-5" on="1"/>
        <pt x="353" y="30" on="1"/>
        <pt x="419" y="50" on="1"/>
        <pt x="426" y="155" on="1"/>
        <pt x="422" y="373" on="1"/>
        <pt x="395" y="439" on="1"/>
        <pt x="310" y="454" on="1"/>
        <pt x="201" y="398" on="1"/>
        <pt x="199" y="363" on="1"/>
        <pt x="193" y="263" on="1"/>
        <pt x="195" y="166" on="1"/>
        <pt x="200" y="50" on="1"/>
        <pt x="273" y="30" on="1"/>
        <pt x="268" y="-5" on="1"/>
        <pt x="150" y="0" on="1"/>
        <pt x="28" y="-5" on="1"/>
        <pt x="30" y="30" on="1"/>
        <pt x="96" y="50" on="1"/>
        <pt x="103" y="155" on="1"/>
        <pt x="94" y="451" on="1"/>
        <pt x="23" y="448" on="1"/>
        <pt x="18" y="483" on="1"/>
        <pt x="156" y="510" on="1"/>
        <pt x="206" y="499" on="1"/>
        <pt x="203" y="448" on="1"/>
        <pt x="310" y="513" on="1"/>
        <pt x="412" y="520" on="1"/>
        <pt x="504" y="457" on="1"/>
        <pt x="519" y="377" on="1"/>
        <pt x="517" y="166" on="1"/>
      </contour>
    </TTGlyph>
    <TTGlyph name="nine" xMin="11" yMin="-18" xMax="487" yMax="720">
      <contour>
        <pt x="379" y="290" on="1"/>
        <pt x="242" y="234" on="1"/>
        <pt x="120" y="253" on="1"/>
        <pt x="48" y="307" on="1"/>
        <pt x="11" y="413" on="1"/>
        <pt x="11" y="530" on="1"/>
        <pt x="48" y="631" on="1"/>
        <pt x="157" y="711" on="1"/>
        <pt x="265" y="720" on="1"/>
        <pt x="341" y="699" on="1"/>
        <pt x="427" y="623" on="1"/>
        <pt x="467" y="535" on="1"/>
        <pt x="487" y="418" on="1"/>
        <pt x="462" y="230" on="1"/>
        <pt x="349" y="74" on="1"/>
        <pt x="231" y="4" on="1"/>
        <pt x="89" y="-18" on="1"/>
        <pt x="83" y="36" on="1"/>
        <pt x="196" y="58" on="1"/>
        <pt x="303" y="127" on="1"/>
        <pt x="373" y="245" on="1"/>
      </contour>
      <contour>
        <pt x="237" y="290" on="1"/>
        <pt x="384" y="334" on="1"/>
        <pt x="392" y="391" on="1"/>
        <pt x="385" y="488" on="1"/>
        <pt x="341" y="621" on="1"/>
        <pt x="255" y="670" on="1"/>
        <pt x="194" y="670" on="1"/>
        <pt x="123" y="616" on="1"/>
        <pt x="103" y="477" on="1"/>
        <pt x="136" y="339" on="1"/>
      </contour>
    </TTGlyph>
    <TTGlyph name="nonbreakingspace" xMin="0" yMin="0" xMax="0" yMax="0">
      <component glyphName="space" x="0" y="0" flags="0x204"/>
    </TTGlyph>
    <TTGlyph name="ntilde" xMin="18" yMin="-5" xMax="596" yMax="696">
      <component glyphName="n" x="0" y="0" flags="0x204"/>
      <component glyphName="tilde" x="148" y="0" flags="0x4"/>
    </TTGlyph>
    <TTGlyph name="numbersign" xMin="-4" yMin="0" xMax="519" yMax="705">
      <contour>
        <pt x="83" y="215" on="1"/>
        <pt x="-4" y="210" on="1"/>
        <pt x="7" y="266" on="1"/>
        <pt x="98" y="261" on="1"/>
        <pt x="150" y="419" on="1"/>
        <pt x="43" y="414" on="1"/>
        <pt x="54" y="470" on="1"/>
        <pt x="165" y="465" on="1"/>
        <pt x="177" y="501" on="0"/>
        <pt x="194" y="558" on="0"/>
        <pt x="210" y="612" on="0"/>
        <pt x="227" y="669" on="0"/>
        <pt x="238" y="705" on="1"/>
        <pt x="299" y="705" on="1"/>
        <pt x="286" y="669" on="0"/>
        <pt x="265" y="612" on="0"/>
        <pt x="245" y="558" on="0"/>
        <pt x="224" y="501" on="0"/>
        <pt x="212" y="465" on="1"/>
        <pt x="375" y="465" on="1"/>
        <pt x="387" y="501" on="0"/>
        <pt x="402" y="558" on="0"/>
        <pt x="416" y="612" on="0"/>
        <pt x="432" y="669" on="0"/>
        <pt x="443" y="705" on="1"/>
        <pt x="504" y="705" on="1"/>
        <pt x="491" y="669" on="0"/>
        <pt x="470" y="612" on="0"/>
        <pt x="450" y="558" on="0"/>
        <pt x="429" y="501" on="0"/>
        <pt x="417" y="465" on="1"/>
        <pt x="519" y="470" on="1"/>
        <pt x="508" y="414" on="1"/>
        <pt x="402" y="419" on="1"/>
        <pt x="355" y="261" on="1"/>
        <pt x="472" y="266" on="1"/>
        <pt x="461" y="210" on="1"/>
        <pt x="341" y="215" on="1"/>
        <pt x="324" y="161" on="0"/>
        <pt x="292" y="54" on="0"/>
        <pt x="276" y="0" on="1"/>
        <pt x="215" y="0" on="1"/>
        <pt x="293" y="215" on="1"/>
        <pt x="135" y="215" on="1"/>
        <pt x="118" y="161" on="0"/>
        <pt x="87" y="54" on="0"/>
        <pt x="71" y="0" on="1"/>
        <pt x="10" y="0" on="1"/>
      </contour>
      <contour>
        <pt x="175" y="347" on="1"/>
        <pt x="149" y="261" on="1"/>
        <pt x="308" y="261" on="1"/>
        <pt x="329" y="337" on="1"/>
        <pt x="360" y="419" on="1"/>
        <pt x="197" y="419" on="1"/>
      </contour>
    </TTGlyph>
    <TTGlyph name="o" xMin="39" yMin="-20" xMax="538" yMax="520">
      <contour>
        <pt x="39" y="190" on="1"/>
        <pt x="39" y="321" on="1"/>
        <pt x="98" y="440" on="1"/>
        <pt x="211" y="515" on="1"/>
        <pt x="348" y="520" on="1"/>
        <pt x="473" y="445" on="1"/>
        <pt x="538" y="325" on="1"/>
        <pt x="526" y="142" on="1"/>
        <pt x="452" y="24" on="1"/>
        <pt x="297" y="-20" on="1"/>
        <pt x="167" y="5" on="1"/>
        <pt x="72" y="91" on="1"/>
      </contour>
      <contour>
        <pt x="149" y="355" on="1"/>
        <pt x="144" y="243" on="1"/>
        <pt x="156" y="127" on="1"/>
        <pt x="199" y="52" on="1"/>
        <pt x="305" y="26" on="1"/>
        <pt x="403" y="69" on="1"/>
        <pt x="432" y="225" on="1"/>
        <pt x="422" y="355" on="1"/>
        <pt x="385" y="438" on="1"/>
        <pt x="312" y="475" on="1"/>
        <pt x="212" y="464" on="1"/>
      </contour>
    </TTGlyph>
    <TTGlyph name="oacute" xMin="39" yMin="-20" xMax="538" yMax="758">
      <component glyphName="o" x="0" y="0" flags="0x204"/>
      <component glyphName="acute" x="271" y="1" flags="0x4"/>
    </TTGlyph>
    <TTGlyph name="ocircumflex" xMin="39" yMin="-20" xMax="538" yMax="754">
      <component glyphName="o" x="0" y="0" flags="0x204"/>
      <component glyphName="circumflex" x="161" y="1" flags="0x4"/>
    </TTGlyph>
    <TTGlyph name="odieresis" xMin="39" yMin="-20" xMax="538" yMax="713">
      <component glyphName="o" x="0" y="0" flags="0x204"/>
      <component glyphName="dieresis" x="132" y="1" flags="0x4"/>
    </TTGlyph>
    <TTGlyph name="oe" xMin="39" yMin="-20" xMax="849" yMax="521">
      <contour>
        <pt x="39" y="190" on="1"/>
        <pt x="39" y="321" on="1"/>
        <pt x="98" y="440" on="1"/>
        <pt x="211" y="515" on="1"/>
        <pt x="348" y="520" on="1"/>
        <pt x="473" y="445" on="1"/>
        <pt x="484" y="424" on="1"/>
        <pt x="500" y="452" on="1"/>
        <pt x="605" y="510" on="1"/>
        <pt x="693" y="521" on="1"/>
        <pt x="763" y="499" on="1"/>
        <pt x="817" y="450" on="1"/>
        <pt x="848" y="361" on="1"/>
        <pt x="849" y="278" on="1"/>
        <pt x="835" y="267" on="1"/>
        <pt x="702" y="258" on="1"/>
        <pt x="529" y="269" on="1"/>
        <pt x="528" y="260" on="1"/>
        <pt x="555" y="119" on="1"/>
        <pt x="634" y="41" on="1"/>
        <pt x="726" y="31" on="1"/>
        <pt x="820" y="81" on="1"/>
        <pt x="838" y="55" on="1"/>
        <pt x="759" y="-8" on="1"/>
        <pt x="665" y="-20" on="1"/>
        <pt x="567" y="3" on="1"/>
        <pt x="483" y="73" on="1"/>
        <pt x="452" y="24" on="1"/>
        <pt x="297" y="-20" on="1"/>
        <pt x="167" y="5" on="1"/>
        <pt x="72" y="91" on="1"/>
      </contour>
      <contour>
        <pt x="149" y="355" on="1"/>
        <pt x="144" y="243" on="1"/>
        <pt x="156" y="127" on="1"/>
        <pt x="199" y="52" on="1"/>
        <pt x="305" y="26" on="1"/>
        <pt x="403" y="69" on="1"/>
        <pt x="432" y="232" on="1"/>
        <pt x="422" y="355" on="1"/>
        <pt x="385" y="438" on="1"/>
        <pt x="312" y="475" on="1"/>
        <pt x="212" y="464" on="1"/>
      </contour>
      <contour>
        <pt x="579" y="431" on="1"/>
        <pt x="540" y="355" on="1"/>
        <pt x="534" y="310" on="1"/>
        <pt x="686" y="308" on="1"/>
        <pt x="755" y="323" on="1"/>
        <pt x="749" y="416" on="1"/>
        <pt x="719" y="467" on="1"/>
        <pt x="655" y="476" on="1"/>
      </contour>
    </TTGlyph>
    <TTGlyph name="ograve" xMin="39" yMin="-20" xMax="538" yMax="758">
      <component glyphName="o" x="0" y="0" flags="0x204"/>
      <component glyphName="grave" x="150" y="1" flags="0x4"/>
    </TTGlyph>
    <TTGlyph name="one" xMin="29" yMin="-5" xMax="333" yMax="701">
      <contour>
        <pt x="235" y="576" on="1"/>
        <pt x="230" y="324" on="1"/>
        <pt x="232" y="137" on="1"/>
        <pt x="238" y="50" on="1"/>
        <pt x="333" y="30" on="1"/>
        <pt x="328" y="-5" on="1"/>
        <pt x="189" y="0" on="1"/>
        <pt x="47" y="-5" on="1"/>
        <pt x="49" y="30" on="1"/>
        <pt x="134" y="41" on="1"/>
        <pt x="140" y="162" on="1"/>
        <pt x="139" y="514" on="1"/>
        <pt x="132" y="621" on="1"/>
        <pt x="29" y="621" on="1"/>
        <pt x="32" y="662" on="1"/>
        <pt x="208" y="701" on="1"/>
        <pt x="245" y="690" on="1"/>
      </contour>
    </TTGlyph>
    <TTGlyph name="onehalf" xMin="38" yMin="-7" xMax="761" yMax="720">
      <component glyphName="fraction" x="225" y="0" flags="0x4"/>
      <component glyphName="onesuperior" x="-7" y="0" flags="0x4"/>
      <component glyphName="twosuperior" x="434" y="-313" flags="0x4"/>
    </TTGlyph>
    <TTGlyph name="onequarter" xMin="41" yMin="-4" xMax="759" yMax="720">
      <component glyphName="onesuperior" x="-4" y="0" flags="0x4"/>
      <component glyphName="fraction" x="229" y="3" flags="0x4"/>
      <component glyphName="foursuperior" x="420" y="-308" flags="0x4"/>
    </TTGlyph>
    <TTGlyph name="onesuperior" xMin="45" yMin="309" xMax="288" yMax="720">
      <contour>
        <pt x="205" y="452" on="1"/>
        <pt x="210" y="364" on="1"/>
        <pt x="288" y="344" on="1"/>
        <pt x="283" y="309" on="1"/>
        <pt x="165" y="314" on="1"/>
        <pt x="49" y="309" on="1"/>
        <pt x="51" y="344" on="1"/>
        <pt x="131" y="364" on="1"/>
        <pt x="136" y="456" on="1"/>
        <pt x="136" y="652" on="1"/>
        <pt x="50" y="646" on="1"/>
        <pt x="45" y="675" on="1"/>
        <pt x="175" y="720" on="1"/>
        <pt x="205" y="711" on="1"/>
      </contour>
    </TTGlyph>
    <TTGlyph name="ordfeminine" xMin="46" yMin="381" xMax="352" yMax="718">
      <contour>
        <pt x="130" y="429" on="1"/>
        <pt x="177" y="419" on="1"/>
        <pt x="235" y="456" on="1"/>
        <pt x="235" y="543" on="1"/>
        <pt x="133" y="523" on="1"/>
        <pt x="110" y="472" on="1"/>
      </contour>
      <contour>
        <pt x="307" y="427" on="1"/>
        <pt x="352" y="414" on="1"/>
        <pt x="349" y="381" on="1"/>
        <pt x="249" y="381" on="1"/>
        <pt x="237" y="419" on="1"/>
        <pt x="233" y="419" on="1"/>
        <pt x="164" y="381" on="1"/>
        <pt x="98" y="381" on="1"/>
        <pt x="46" y="432" on="1"/>
        <pt x="46" y="495" on="1"/>
        <pt x="93" y="556" on="1"/>
        <pt x="235" y="578" on="1"/>
        <pt x="235" y="651" on="1"/>
        <pt x="177" y="689" on="1"/>
        <pt x="116" y="673" on="1"/>
        <pt x="111" y="615" on="1"/>
        <pt x="75" y="612" on="1"/>
        <pt x="63" y="696" on="1"/>
        <pt x="177" y="718" on="1"/>
        <pt x="263" y="709" on="1"/>
        <pt x="307" y="655" on="1"/>
      </contour>
    </TTGlyph>
    <TTGlyph name="ordmasculine" xMin="45" yMin="375" xMax="370" yMax="723">
      <contour>
        <pt x="45" y="508" on="1"/>
        <pt x="45" y="596" on="1"/>
        <pt x="82" y="672" on="1"/>
        <pt x="175" y="723" on="1"/>
        <pt x="236" y="723" on="1"/>
        <pt x="328" y="675" on="1"/>
        <pt x="370" y="598" on="1"/>
        <pt x="370" y="511" on="1"/>
        <pt x="325" y="421" on="1"/>
        <pt x="236" y="375" on="1"/>
        <pt x="182" y="375" on="1"/>
        <pt x="84" y="427" on="1"/>
      </contour>
      <contour>
        <pt x="128" y="639" on="1"/>
        <pt x="109" y="542" on="1"/>
        <pt x="131" y="461" on="1"/>
        <pt x="189" y="413" on="1"/>
        <pt x="231" y="413" on="1"/>
        <pt x="286" y="460" on="1"/>
        <pt x="305" y="549" on="1"/>
        <pt x="283" y="639" on="1"/>
        <pt x="225" y="684" on="1"/>
        <pt x="186" y="684" on="1"/>
      </contour>
    </TTGlyph>
    <TTGlyph name="oslash" xMin="39" yMin="-51" xMax="538" yMax="572">
      <contour>
        <pt x="39" y="190" on="1"/>
        <pt x="39" y="321" on="1"/>
        <pt x="98" y="440" on="1"/>
        <pt x="211" y="515" on="1"/>
        <pt x="348" y="520" on="1"/>
        <pt x="409" y="483" on="1"/>
        <pt x="462" y="572" on="1"/>
        <pt x="518" y="561" on="1"/>
        <pt x="455" y="455" on="1"/>
        <pt x="473" y="445" on="1"/>
        <pt x="538" y="325" on="1"/>
        <pt x="526" y="142" on="1"/>
        <pt x="452" y="24" on="1"/>
        <pt x="297" y="-20" on="1"/>
        <pt x="167" y="5" on="1"/>
        <pt x="133" y="-51" on="1"/>
        <pt x="76" y="-40" on="1"/>
        <pt x="126" y="42" on="1"/>
        <pt x="72" y="91" on="1"/>
      </contour>
      <contour>
        <pt x="149" y="355" on="1"/>
        <pt x="144" y="243" on="1"/>
        <pt x="156" y="127" on="1"/>
        <pt x="169" y="103" on="1"/>
        <pt x="171" y="105" on="1"/>
        <pt x="238" y="201" on="1"/>
        <pt x="375" y="437" on="1"/>
        <pt x="378" y="441" on="1"/>
        <pt x="312" y="475" on="1"/>
        <pt x="212" y="464" on="1"/>
      </contour>
      <contour>
        <pt x="200" y="51" on="1"/>
        <pt x="305" y="26" on="1"/>
        <pt x="403" y="69" on="1"/>
        <pt x="432" y="225" on="1"/>
        <pt x="422" y="355" on="1"/>
        <pt x="407" y="387" on="1"/>
        <pt x="407" y="386" on="1"/>
        <pt x="352" y="308" on="1"/>
        <pt x="205" y="58" on="1"/>
      </contour>
    </TTGlyph>
    <TTGlyph name="otilde" xMin="39" yMin="-20" xMax="538" yMax="697">
      <component glyphName="o" x="0" y="0" flags="0x204"/>
      <component glyphName="tilde" x="107" y="1" flags="0x4"/>
    </TTGlyph>
    <TTGlyph name="p" xMin="8" yMin="-255" xMax="542" yMax="520">
      <contour>
        <pt x="185" y="455" on="1"/>
        <pt x="192" y="455" on="1"/>
        <pt x="299" y="520" on="1"/>
        <pt x="410" y="508" on="1"/>
        <pt x="483" y="456" on="1"/>
        <pt x="541" y="337" on="1"/>
        <pt x="542" y="167" on="1"/>
        <pt x="504" y="88" on="1"/>
        <pt x="389" y="-5" on="1"/>
        <pt x="278" y="-20" on="1"/>
        <pt x="183" y="5" on="1"/>
        <pt x="186" y="-84" on="1"/>
        <pt x="194" y="-200" on="1"/>
        <pt x="267" y="-220" on="1"/>
        <pt x="262" y="-255" on="1"/>
        <pt x="140" y="-250" on="1"/>
        <pt x="18" y="-255" on="1"/>
        <pt x="20" y="-220" on="1"/>
        <pt x="86" y="-200" on="1"/>
        <pt x="91" y="-95" on="1"/>
        <pt x="95" y="124" on="1"/>
        <pt x="89" y="347" on="1"/>
        <pt x="84" y="454" on="1"/>
        <pt x="13" y="451" on="1"/>
        <pt x="8" y="486" on="1"/>
        <pt x="146" y="513" on="1"/>
        <pt x="184" y="502" on="1"/>
      </contour>
      <contour>
        <pt x="184" y="60" on="1"/>
        <pt x="292" y="25" on="1"/>
        <pt x="355" y="43" on="1"/>
        <pt x="432" y="125" on="1"/>
        <pt x="446" y="240" on="1"/>
        <pt x="416" y="408" on="1"/>
        <pt x="327" y="461" on="1"/>
        <pt x="187" y="413" on="1"/>
        <pt x="189" y="363" on="1"/>
      </contour>
    </TTGlyph>
    <TTGlyph name="paragraph" xMin="46" yMin="-90" xMax="492" yMax="705">
      <contour>
        <pt x="355" y="700" on="1"/>
        <pt x="492" y="705" on="1"/>
        <pt x="490" y="670" on="1"/>
        <pt x="410" y="650" on="1"/>
        <pt x="410" y="378" on="1"/>
        <pt x="430" y="-90" on="1"/>
        <pt x="365" y="-90" on="1"/>
        <pt x="361" y="280" on="1"/>
        <pt x="345" y="650" on="1"/>
        <pt x="297" y="650" on="1"/>
        <pt x="317" y="-90" on="1"/>
        <pt x="252" y="-90" on="1"/>
        <pt x="242" y="281" on="1"/>
        <pt x="126" y="311" on="1"/>
        <pt x="46" y="407" on="1"/>
        <pt x="46" y="565" on="1"/>
        <pt x="142" y="672" on="1"/>
        <pt x="267" y="700" on="1"/>
      </contour>
    </TTGlyph>
    <TTGlyph name="parenleft" xMin="36" yMin="-220" xMax="266" yMax="790">
      <contour>
        <pt x="36" y="394" on="1"/>
        <pt x="90" y="590" on="1"/>
        <pt x="237" y="790" on="1"/>
        <pt x="266" y="768" on="1"/>
        <pt x="152" y="531" on="1"/>
        <pt x="120" y="282" on="1"/>
        <pt x="162" y="8" on="1"/>
        <pt x="266" y="-198" on="1"/>
        <pt x="237" y="-220" on="1"/>
        <pt x="113" y="-64" on="1"/>
        <pt x="36" y="152" on="1"/>
      </contour>
    </TTGlyph>
    <TTGlyph name="parenright" xMin="21" yMin="-220" xMax="251" yMax="790">
      <contour>
        <pt x="251" y="152" on="1"/>
        <pt x="174" y="-64" on="1"/>
        <pt x="50" y="-220" on="1"/>
        <pt x="21" y="-198" on="1"/>
        <pt x="125" y="8" on="1"/>
        <pt x="167" y="282" on="1"/>
        <pt x="135" y="531" on="1"/>
        <pt x="21" y="768" on="1"/>
        <pt x="50" y="790" on="1"/>
        <pt x="197" y="590" on="1"/>
        <pt x="251" y="394" on="1"/>
      </contour>
    </TTGlyph>
    <TTGlyph name="percent" xMin="34" yMin="-24" xMax="693" yMax="720">
      <contour>
        <pt x="313" y="649" on="1"/>
        <pt x="335" y="543" on="1"/>
        <pt x="304" y="434" on="1"/>
        <pt x="222" y="372" on="1"/>
        <pt x="150" y="372" on="1"/>
        <pt x="62" y="436" on="1"/>
        <pt x="34" y="543" on="1"/>
        <pt x="67" y="660" on="1"/>
        <pt x="152" y="720" on="1"/>
        <pt x="226" y="720" on="1"/>
      </contour>
      <contour>
        <pt x="128" y="657" on="1"/>
        <pt x="101" y="552" on="1"/>
        <pt x="129" y="435" on="1"/>
        <pt x="163" y="405" on="1"/>
        <pt x="208" y="405" on="1"/>
        <pt x="241" y="434" on="1"/>
        <pt x="269" y="552" on="1"/>
        <pt x="237" y="665" on="1"/>
        <pt x="208" y="687" on="1"/>
        <pt x="163" y="687" on="1"/>
      </contour>
      <contour>
        <pt x="671" y="253" on="1"/>
        <pt x="693" y="147" on="1"/>
        <pt x="662" y="38" on="1"/>
        <pt x="580" y="-24" on="1"/>
        <pt x="508" y="-24" on="1"/>
        <pt x="420" y="40" on="1"/>
        <pt x="392" y="147" on="1"/>
        <pt x="425" y="264" on="1"/>
        <pt x="510" y="324" on="1"/>
        <pt x="584" y="324" on="1"/>
      </contour>
      <contour>
        <pt x="486" y="261" on="1"/>
        <pt x="459" y="156" on="1"/>
        <pt x="487" y="39" on="1"/>
        <pt x="521" y="9" on="1"/>
        <pt x="566" y="9" on="1"/>
        <pt x="599" y="38" on="1"/>
        <pt x="627" y="156" on="1"/>
        <pt x="595" y="269" on="1"/>
        <pt x="566" y="291" on="1"/>
        <pt x="521" y="291" on="1"/>
      </contour>
      <contour>
        <pt x="255" y="0" on="1"/>
        <pt x="188" y="-7" on="1"/>
        <pt x="478" y="700" on="1"/>
        <pt x="545" y="706" on="1"/>
      </contour>
    </TTGlyph>
    <TTGlyph name="period" xMin="45" yMin="-17" xMax="174" yMax="108">
      <contour>
        <pt x="68" y="90" on="1"/>
        <pt x="114" y="108" on="1"/>
        <pt x="160" y="89" on="1"/>
        <pt x="174" y="39" on="1"/>
        <pt x="150" y="-3" on="1"/>
        <pt x="100" y="-17" on="1"/>
        <pt x="62" y="7" on="1"/>
        <pt x="45" y="53" on="1"/>
      </contour>
    </TTGlyph>
    <TTGlyph name="periodcentered" xMin="58" yMin="243" xMax="187" yMax="368">
      <contour>
        <pt x="81" y="350" on="1"/>
        <pt x="127" y="368" on="1"/>
        <pt x="173" y="349" on="1"/>
        <pt x="187" y="299" on="1"/>
        <pt x="163" y="257" on="1"/>
        <pt x="113" y="243" on="1"/>
        <pt x="75" y="267" on="1"/>
        <pt x="58" y="313" on="1"/>
      </contour>
    </TTGlyph>
    <TTGlyph name="plus" xMin="41" yMin="114" xMax="440" yMax="520">
      <contour>
        <pt x="271" y="350" on="1"/>
        <pt x="440" y="356" on="1"/>
        <pt x="431" y="292" on="1"/>
        <pt x="273" y="286" on="1"/>
        <pt x="279" y="114" on="1"/>
        <pt x="213" y="123" on="1"/>
        <pt x="207" y="284" on="1"/>
        <pt x="41" y="278" on="1"/>
        <pt x="50" y="342" on="1"/>
        <pt x="205" y="348" on="1"/>
        <pt x="199" y="520" on="1"/>
        <pt x="265" y="511" on="1"/>
      </contour>
    </TTGlyph>
    <TTGlyph name="plusminus" xMin="55" yMin="39" xMax="461" yMax="523">
      <contour>
        <pt x="285" y="353" on="1"/>
        <pt x="454" y="359" on="1"/>
        <pt x="445" y="295" on="1"/>
        <pt x="287" y="289" on="1"/>
        <pt x="292" y="139" on="1"/>
        <pt x="226" y="148" on="1"/>
        <pt x="221" y="287" on="1"/>
        <pt x="55" y="281" on="1"/>
        <pt x="64" y="345" on="1"/>
        <pt x="219" y="351" on="1"/>
        <pt x="213" y="523" on="1"/>
        <pt x="279" y="514" on="1"/>
      </contour>
      <contour>
        <pt x="198" y="50" on="1"/>
        <pt x="62" y="39" on="1"/>
        <pt x="71" y="102" on="1"/>
        <pt x="322" y="106" on="1"/>
        <pt x="461" y="116" on="1"/>
        <pt x="452" y="53" on="1"/>
      </contour>
    </TTGlyph>
    <TTGlyph name="q" xMin="46" yMin="-255" xMax="570" yMax="520">
      <contour>
        <pt x="404" y="45" on="1"/>
        <pt x="396" y="45" on="1"/>
        <pt x="289" y="-20" on="1"/>
        <pt x="178" y="-8" on="1"/>
        <pt x="105" y="44" on="1"/>
        <pt x="47" y="163" on="1"/>
        <pt x="46" y="333" on="1"/>
        <pt x="84" y="412" on="1"/>
        <pt x="199" y="505" on="1"/>
        <pt x="310" y="520" on="1"/>
        <pt x="414" y="493" on="1"/>
        <pt x="414" y="492" on="1"/>
        <pt x="504" y="469" on="1"/>
        <pt x="499" y="347" on="1"/>
        <pt x="493" y="124" on="1"/>
        <pt x="497" y="-95" on="1"/>
        <pt x="502" y="-200" on="1"/>
        <pt x="568" y="-220" on="1"/>
        <pt x="570" y="-255" on="1"/>
        <pt x="448" y="-250" on="1"/>
        <pt x="326" y="-255" on="1"/>
        <pt x="321" y="-220" on="1"/>
        <pt x="394" y="-200" on="1"/>
        <pt x="402" y="-84" on="1"/>
        <pt x="405" y="13" on="1"/>
      </contour>
      <contour>
        <pt x="402" y="441" on="1"/>
        <pt x="296" y="475" on="1"/>
        <pt x="233" y="457" on="1"/>
        <pt x="156" y="375" on="1"/>
        <pt x="142" y="260" on="1"/>
        <pt x="172" y="92" on="1"/>
        <pt x="261" y="39" on="1"/>
        <pt x="403" y="87" on="1"/>
        <pt x="399" y="363" on="1"/>
      </contour>
    </TTGlyph>
    <TTGlyph name="question" xMin="43" yMin="-19" xMax="381" yMax="705">
      <contour>
        <pt x="164" y="164" on="1"/>
        <pt x="120" y="275" on="1"/>
        <pt x="142" y="351" on="1"/>
        <pt x="271" y="502" on="1"/>
        <pt x="292" y="576" on="1"/>
        <pt x="277" y="634" on="1"/>
        <pt x="233" y="664" on="1"/>
        <pt x="165" y="667" on="1"/>
        <pt x="112" y="646" on="1"/>
        <pt x="90" y="529" on="1"/>
        <pt x="56" y="528" on="1"/>
        <pt x="43" y="663" on="1"/>
        <pt x="124" y="696" on="1"/>
        <pt x="213" y="705" on="1"/>
        <pt x="272" y="700" on="1"/>
        <pt x="335" y="675" on="1"/>
        <pt x="381" y="618" on="1"/>
        <pt x="381" y="544" on="1"/>
        <pt x="361" y="490" on="1"/>
        <pt x="221" y="348" on="1"/>
        <pt x="190" y="301" on="1"/>
        <pt x="182" y="249" on="1"/>
        <pt x="197" y="174" on="1"/>
      </contour>
      <contour>
        <pt x="150" y="92" on="1"/>
        <pt x="196" y="114" on="1"/>
        <pt x="244" y="98" on="1"/>
        <pt x="266" y="44" on="1"/>
        <pt x="238" y="0" on="1"/>
        <pt x="191" y="-19" on="1"/>
        <pt x="147" y="8" on="1"/>
        <pt x="126" y="53" on="1"/>
      </contour>
    </TTGlyph>
    <TTGlyph name="questiondown" xMin="43" yMin="-189" xMax="381" yMax="534">
      <component glyphName="question" x="424" y="516" scale="-0.999938964844" flags="0x4"/>
    </TTGlyph>
    <TTGlyph name="quotedbl" xMin="46" yMin="438" xMax="303" yMax="724">
      <contour>
        <pt x="232" y="438" on="1"/>
        <pt x="203" y="707" on="1"/>
        <pt x="253" y="724" on="1"/>
        <pt x="303" y="707" on="1"/>
        <pt x="272" y="438" on="1"/>
      </contour>
      <contour>
        <pt x="75" y="438" on="1"/>
        <pt x="46" y="707" on="1"/>
        <pt x="96" y="724" on="1"/>
        <pt x="146" y="707" on="1"/>
        <pt x="115" y="438" on="1"/>
      </contour>
    </TTGlyph>
    <TTGlyph name="quotedblbase" xMin="45" yMin="-165" xMax="372" yMax="108">
      <contour>
        <pt x="68" y="90" on="1"/>
        <pt x="114" y="108" on="1"/>
        <pt x="160" y="89" on="1"/>
        <pt x="183" y="58" on="1"/>
        <pt x="192" y="-1" on="1"/>
        <pt x="168" y="-98" on="1"/>
        <pt x="105" y="-165" on="1"/>
        <pt x="79" y="-137" on="1"/>
        <pt x="128" y="-79" on="1"/>
        <pt x="130" y="-15" on="1"/>
        <pt x="85" y="-15" on="1"/>
        <pt x="54" y="11" on="1"/>
        <pt x="45" y="53" on="1"/>
      </contour>
      <contour>
        <pt x="248" y="90" on="1"/>
        <pt x="294" y="108" on="1"/>
        <pt x="340" y="89" on="1"/>
        <pt x="363" y="58" on="1"/>
        <pt x="372" y="-1" on="1"/>
        <pt x="348" y="-98" on="1"/>
        <pt x="285" y="-165" on="1"/>
        <pt x="259" y="-137" on="1"/>
        <pt x="308" y="-79" on="1"/>
        <pt x="310" y="-15" on="1"/>
        <pt x="265" y="-15" on="1"/>
        <pt x="234" y="11" on="1"/>
        <pt x="225" y="53" on="1"/>
      </contour>
    </TTGlyph>
    <TTGlyph name="quotedblleft" xMin="52" yMin="497" xMax="379" yMax="770">
      <contour>
        <pt x="356" y="515" on="1"/>
        <pt x="310" y="497" on="1"/>
        <pt x="264" y="516" on="1"/>
        <pt x="241" y="547" on="1"/>
        <pt x="232" y="606" on="1"/>
        <pt x="256" y="703" on="1"/>
        <pt x="319" y="770" on="1"/>
        <pt x="345" y="742" on="1"/>
        <pt x="296" y="684" on="1"/>
        <pt x="294" y="620" on="1"/>
        <pt x="339" y="620" on="1"/>
        <pt x="370" y="594" on="1"/>
        <pt x="379" y="552" on="1"/>
      </contour>
      <contour>
        <pt x="176" y="515" on="1"/>
        <pt x="130" y="497" on="1"/>
        <pt x="84" y="516" on="1"/>
        <pt x="61" y="547" on="1"/>
        <pt x="52" y="606" on="1"/>
        <pt x="76" y="703" on="1"/>
        <pt x="139" y="770" on="1"/>
        <pt x="165" y="742" on="1"/>
        <pt x="116" y="684" on="1"/>
        <pt x="114" y="620" on="1"/>
        <pt x="159" y="620" on="1"/>
        <pt x="190" y="594" on="1"/>
        <pt x="199" y="552" on="1"/>
      </contour>
    </TTGlyph>
    <TTGlyph name="quotedblright" xMin="45" yMin="485" xMax="372" yMax="758">
      <contour>
        <pt x="68" y="740" on="1"/>
        <pt x="114" y="758" on="1"/>
        <pt x="160" y="739" on="1"/>
        <pt x="183" y="708" on="1"/>
        <pt x="192" y="649" on="1"/>
        <pt x="168" y="552" on="1"/>
        <pt x="105" y="485" on="1"/>
        <pt x="79" y="513" on="1"/>
        <pt x="128" y="571" on="1"/>
        <pt x="130" y="635" on="1"/>
        <pt x="85" y="635" on="1"/>
        <pt x="54" y="661" on="1"/>
        <pt x="45" y="703" on="1"/>
      </contour>
      <contour>
        <pt x="248" y="740" on="1"/>
        <pt x="294" y="758" on="1"/>
        <pt x="340" y="739" on="1"/>
        <pt x="363" y="708" on="1"/>
        <pt x="372" y="649" on="1"/>
        <pt x="348" y="552" on="1"/>
        <pt x="285" y="485" on="1"/>
        <pt x="259" y="513" on="1"/>
        <pt x="308" y="571" on="1"/>
        <pt x="310" y="635" on="1"/>
        <pt x="265" y="635" on="1"/>
        <pt x="234" y="661" on="1"/>
        <pt x="225" y="703" on="1"/>
      </contour>
    </TTGlyph>
    <TTGlyph name="quoteleft" xMin="29" yMin="475" xMax="193" yMax="758">
      <contour>
        <pt x="106" y="475" on="1"/>
        <pt x="45" y="503" on="1"/>
        <pt x="29" y="552" on="1"/>
        <pt x="40" y="628" on="1"/>
        <pt x="88" y="703" on="1"/>
        <pt x="193" y="758" on="1"/>
        <pt x="193" y="716" on="1"/>
        <pt x="113" y="677" on="1"/>
        <pt x="94" y="604" on="1"/>
        <pt x="120" y="604" on="1"/>
        <pt x="160" y="577" on="1"/>
        <pt x="176" y="529" on="1"/>
        <pt x="153" y="494" on="1"/>
      </contour>
    </TTGlyph>
    <TTGlyph name="quoteright" xMin="29" yMin="475" xMax="193" yMax="758">
      <contour>
        <pt x="116" y="758" on="1"/>
        <pt x="177" y="730" on="1"/>
        <pt x="193" y="681" on="1"/>
        <pt x="182" y="605" on="1"/>
        <pt x="134" y="530" on="1"/>
        <pt x="29" y="475" on="1"/>
        <pt x="29" y="517" on="1"/>
        <pt x="109" y="556" on="1"/>
        <pt x="128" y="629" on="1"/>
        <pt x="102" y="629" on="1"/>
        <pt x="62" y="656" on="1"/>
        <pt x="46" y="704" on="1"/>
        <pt x="69" y="739" on="1"/>
      </contour>
    </TTGlyph>
    <TTGlyph name="quotesinglbase" xMin="29" yMin="-154" xMax="193" yMax="129">
      <contour>
        <pt x="116" y="129" on="1"/>
        <pt x="177" y="101" on="1"/>
        <pt x="193" y="52" on="1"/>
        <pt x="182" y="-24" on="1"/>
        <pt x="134" y="-99" on="1"/>
        <pt x="29" y="-154" on="1"/>
        <pt x="29" y="-112" on="1"/>
        <pt x="109" y="-73" on="1"/>
        <pt x="128" y="0" on="1"/>
        <pt x="102" y="0" on="1"/>
        <pt x="62" y="27" on="1"/>
        <pt x="46" y="75" on="1"/>
        <pt x="69" y="110" on="1"/>
      </contour>
    </TTGlyph>
    <TTGlyph name="quotesingle" xMin="46" yMin="438" xMax="146" yMax="724">
      <contour>
        <pt x="75" y="438" on="1"/>
        <pt x="46" y="707" on="1"/>
        <pt x="96" y="724" on="1"/>
        <pt x="146" y="707" on="1"/>
        <pt x="115" y="438" on="1"/>
      </contour>
    </TTGlyph>
    <TTGlyph name="r" xMin="18" yMin="-5" xMax="411" yMax="519">
      <contour>
        <pt x="202" y="418" on="1"/>
        <pt x="206" y="418" on="1"/>
        <pt x="268" y="489" on="1"/>
        <pt x="336" y="519" on="1"/>
        <pt x="411" y="500" on="1"/>
        <pt x="394" y="351" on="1"/>
        <pt x="359" y="358" on="1"/>
        <pt x="334" y="461" on="1"/>
        <pt x="269" y="440" on="1"/>
        <pt x="198" y="357" on="1"/>
        <pt x="193" y="263" on="1"/>
        <pt x="196" y="166" on="1"/>
        <pt x="200" y="50" on="1"/>
        <pt x="300" y="30" on="1"/>
        <pt x="295" y="-5" on="1"/>
        <pt x="150" y="0" on="1"/>
        <pt x="28" y="-5" on="1"/>
        <pt x="30" y="30" on="1"/>
        <pt x="96" y="50" on="1"/>
        <pt x="101" y="155" on="1"/>
        <pt x="99" y="347" on="1"/>
        <pt x="94" y="451" on="1"/>
        <pt x="23" y="448" on="1"/>
        <pt x="18" y="483" on="1"/>
        <pt x="156" y="510" on="1"/>
        <pt x="206" y="499" on="1"/>
      </contour>
    </TTGlyph>
    <TTGlyph name="registered" xMin="53" yMin="0" xMax="652" yMax="615">
      <contour>
        <pt x="227" y="588" on="1"/>
        <pt x="353" y="615" on="1"/>
        <pt x="482" y="586" on="1"/>
        <pt x="580" y="510" on="1"/>
        <pt x="634" y="414" on="1"/>
        <pt x="652" y="306" on="1"/>
        <pt x="630" y="190" on="1"/>
        <pt x="563" y="87" on="1"/>
        <pt x="465" y="22" on="1"/>
        <pt x="353" y="0" on="1"/>
        <pt x="215" y="33" on="1"/>
        <pt x="126" y="105" on="1"/>
        <pt x="72" y="196" on="1"/>
        <pt x="53" y="306" on="1"/>
        <pt x="74" y="421" on="1"/>
        <pt x="136" y="521" on="1"/>
      </contour>
      <contour>
        <pt x="240" y="551" on="1"/>
        <pt x="171" y="495" on="1"/>
        <pt x="115" y="410" on="1"/>
        <pt x="98" y="307" on="1"/>
        <pt x="111" y="220" on="1"/>
        <pt x="151" y="139" on="1"/>
        <pt x="236" y="66" on="1"/>
        <pt x="354" y="38" on="1"/>
        <pt x="451" y="57" on="1"/>
        <pt x="536" y="116" on="1"/>
        <pt x="590" y="206" on="1"/>
        <pt x="607" y="307" on="1"/>
        <pt x="592" y="405" on="1"/>
        <pt x="545" y="489" on="1"/>
        <pt x="466" y="551" on="1"/>
        <pt x="354" y="577" on="1"/>
      </contour>
      <contour>
        <pt x="265" y="310" on="1"/>
        <pt x="260" y="445" on="1"/>
        <pt x="223" y="455" on="1"/>
        <pt x="225" y="477" on="1"/>
        <pt x="290" y="475" on="1"/>
        <pt x="373" y="478" on="1"/>
        <pt x="433" y="457" on="1"/>
        <pt x="470" y="412" on="1"/>
        <pt x="470" y="362" on="1"/>
        <pt x="444" y="320" on="1"/>
        <pt x="403" y="300" on="1"/>
        <pt x="473" y="163" on="1"/>
        <pt x="510" y="159" on="1"/>
        <pt x="509" y="139" on="1"/>
        <pt x="462" y="133" on="1"/>
        <pt x="424" y="157" on="1"/>
        <pt x="362" y="291" on="1"/>
        <pt x="306" y="290" on="1"/>
        <pt x="310" y="167" on="1"/>
        <pt x="347" y="157" on="1"/>
        <pt x="345" y="137" on="1"/>
        <pt x="286" y="139" on="1"/>
        <pt x="219" y="137" on="1"/>
        <pt x="220" y="157" on="1"/>
        <pt x="260" y="167" on="1"/>
      </contour>
      <contour>
        <pt x="399" y="430" on="1"/>
        <pt x="359" y="452" on="1"/>
        <pt x="310" y="445" on="1"/>
        <pt x="306" y="318" on="1"/>
        <pt x="353" y="315" on="1"/>
        <pt x="396" y="329" on="1"/>
        <pt x="415" y="381" on="1"/>
      </contour>
    </TTGlyph>
    <TTGlyph name="ring" xMin="24" yMin="556" xMax="236" yMax="758">
      <contour>
        <pt x="95" y="630" on="1"/>
        <pt x="127" y="615" on="1"/>
        <pt x="164" y="627" on="1"/>
        <pt x="178" y="657" on="1"/>
        <pt x="165" y="692" on="1"/>
        <pt x="134" y="704" on="1"/>
        <pt x="97" y="691" on="1"/>
        <pt x="83" y="663" on="1"/>
      </contour>
      <contour>
        <pt x="63" y="736" on="1"/>
        <pt x="137" y="758" on="1"/>
        <pt x="210" y="728" on="1"/>
        <pt x="236" y="643" on="1"/>
        <pt x="196" y="583" on="1"/>
        <pt x="123" y="556" on="1"/>
        <pt x="54" y="592" on="1"/>
        <pt x="24" y="665" on="1"/>
      </contour>
    </TTGlyph>
    <TTGlyph name="s" xMin="31" yMin="-20" xMax="395" yMax="520">
      <contour>
        <pt x="107" y="39" on="1"/>
        <pt x="190" y="26" on="1"/>
        <pt x="283" y="39" on="1"/>
        <pt x="305" y="107" on="1"/>
        <pt x="278" y="159" on="1"/>
        <pt x="92" y="272" on="1"/>
        <pt x="52" y="335" on="1"/>
        <pt x="50" y="441" on="1"/>
        <pt x="121" y="501" on="1"/>
        <pt x="226" y="520" on="1"/>
        <pt x="373" y="490" on="1"/>
        <pt x="352" y="343" on="1"/>
        <pt x="310" y="357" on="1"/>
        <pt x="291" y="461" on="1"/>
        <pt x="222" y="474" on="1"/>
        <pt x="147" y="457" on="1"/>
        <pt x="128" y="402" on="1"/>
        <pt x="152" y="343" on="1"/>
        <pt x="344" y="233" on="1"/>
        <pt x="391" y="174" on="1"/>
        <pt x="395" y="80" on="1"/>
        <pt x="327" y="0" on="1"/>
        <pt x="207" y="-20" on="1"/>
        <pt x="124" y="-16" on="1"/>
        <pt x="31" y="20" on="1"/>
        <pt x="56" y="164" on="1"/>
        <pt x="99" y="150" on="1"/>
      </contour>
    </TTGlyph>
    <TTGlyph name="section" xMin="52" yMin="-142" xMax="456" yMax="775">
      <contour>
        <pt x="195" y="548" on="1"/>
        <pt x="378" y="444" on="1"/>
        <pt x="440" y="378" on="1"/>
        <pt x="451" y="276" on="1"/>
        <pt x="372" y="173" on="1"/>
        <pt x="436" y="116" on="1"/>
        <pt x="456" y="6" on="1"/>
        <pt x="388" y="-97" on="1"/>
        <pt x="310" y="-130" on="1"/>
        <pt x="218" y="-142" on="1"/>
        <pt x="69" y="-104" on="1"/>
        <pt x="87" y="54" on="1"/>
        <pt x="132" y="49" on="1"/>
        <pt x="145" y="-77" on="1"/>
        <pt x="244" y="-100" on="1"/>
        <pt x="335" y="-68" on="1"/>
        <pt x="359" y="13" on="1"/>
        <pt x="341" y="73" on="1"/>
        <pt x="72" y="236" on="1"/>
        <pt x="52" y="380" on="1"/>
        <pt x="133" y="473" on="1"/>
        <pt x="62" y="571" on="1"/>
        <pt x="80" y="676" on="1"/>
        <pt x="152" y="751" on="1"/>
        <pt x="276" y="775" on="1"/>
        <pt x="399" y="754" on="1"/>
        <pt x="430" y="716" on="1"/>
        <pt x="412" y="584" on="1"/>
        <pt x="367" y="588" on="1"/>
        <pt x="356" y="719" on="1"/>
        <pt x="272" y="734" on="1"/>
        <pt x="188" y="699" on="1"/>
        <pt x="156" y="614" on="1"/>
      </contour>
      <contour>
        <pt x="141" y="383" on="1"/>
        <pt x="162" y="287" on="1"/>
        <pt x="323" y="199" on="1"/>
        <pt x="368" y="293" on="1"/>
        <pt x="335" y="364" on="1"/>
        <pt x="173" y="451" on="1"/>
      </contour>
    </TTGlyph>
    <TTGlyph name="semicolon" xMin="45" yMin="-165" xMax="192" yMax="438">
      <contour>
        <pt x="68" y="420" on="1"/>
        <pt x="114" y="438" on="1"/>
        <pt x="160" y="419" on="1"/>
        <pt x="174" y="369" on="1"/>
        <pt x="150" y="327" on="1"/>
        <pt x="100" y="313" on="1"/>
        <pt x="62" y="337" on="1"/>
        <pt x="45" y="383" on="1"/>
      </contour>
      <contour>
        <pt x="68" y="90" on="1"/>
        <pt x="114" y="108" on="1"/>
        <pt x="160" y="89" on="1"/>
        <pt x="183" y="58" on="1"/>
        <pt x="192" y="-1" on="1"/>
        <pt x="168" y="-98" on="1"/>
        <pt x="105" y="-165" on="1"/>
        <pt x="79" y="-137" on="1"/>
        <pt x="128" y="-79" on="1"/>
        <pt x="130" y="-15" on="1"/>
        <pt x="85" y="-15" on="1"/>
        <pt x="54" y="11" on="1"/>
        <pt x="45" y="53" on="1"/>
      </contour>
    </TTGlyph>
    <TTGlyph name="seven" xMin="17" yMin="-20" xMax="476" yMax="710">
      <contour>
        <pt x="102" y="628" on="1"/>
        <pt x="81" y="520" on="1"/>
        <pt x="42" y="520" on="1"/>
        <pt x="32" y="625" on="1"/>
        <pt x="17" y="710" on="1"/>
        <pt x="105" y="700" on="1"/>
        <pt x="388" y="700" on="1"/>
        <pt x="476" y="710" on="1"/>
        <pt x="469" y="660" on="1"/>
        <pt x="269" y="152" on="1"/>
        <pt x="229" y="0" on="1"/>
        <pt x="215" y="-20" on="1"/>
        <pt x="99" y="0" on="1"/>
        <pt x="284" y="371" on="1"/>
        <pt x="389" y="639" on="1"/>
        <pt x="386" y="642" on="1"/>
      </contour>
    </TTGlyph>
    <TTGlyph name="six" xMin="40" yMin="-18" xMax="516" yMax="720">
      <contour>
        <pt x="148" y="411" on="1"/>
        <pt x="285" y="468" on="1"/>
        <pt x="407" y="449" on="1"/>
        <pt x="479" y="395" on="1"/>
        <pt x="516" y="289" on="1"/>
        <pt x="516" y="172" on="1"/>
        <pt x="479" y="71" on="1"/>
        <pt x="370" y="-9" on="1"/>
        <pt x="262" y="-18" on="1"/>
        <pt x="186" y="3" on="1"/>
        <pt x="100" y="79" on="1"/>
        <pt x="60" y="167" on="1"/>
        <pt x="40" y="284" on="1"/>
        <pt x="65" y="472" on="1"/>
        <pt x="178" y="628" on="1"/>
        <pt x="296" y="698" on="1"/>
        <pt x="438" y="720" on="1"/>
        <pt x="444" y="666" on="1"/>
        <pt x="331" y="644" on="1"/>
        <pt x="224" y="575" on="1"/>
        <pt x="154" y="457" on="1"/>
      </contour>
      <contour>
        <pt x="142" y="368" on="1"/>
        <pt x="135" y="311" on="1"/>
        <pt x="142" y="214" on="1"/>
        <pt x="186" y="81" on="1"/>
        <pt x="272" y="32" on="1"/>
        <pt x="333" y="32" on="1"/>
        <pt x="404" y="86" on="1"/>
        <pt x="424" y="225" on="1"/>
        <pt x="391" y="363" on="1"/>
        <pt x="290" y="412" on="1"/>
      </contour>
    </TTGlyph>
    <TTGlyph name="slash" xMin="31" yMin="-100" xMax="437" yMax="707">
      <contour>
        <pt x="301" y="538" on="1"/>
        <pt x="357" y="700" on="1"/>
        <pt x="437" y="707" on="1"/>
        <pt x="166" y="65" on="1"/>
        <pt x="112" y="-92" on="1"/>
        <pt x="31" y="-100" on="1"/>
      </contour>
    </TTGlyph>
    <TTGlyph name="sterling" xMin="46" yMin="-6" xMax="518" yMax="717">
      <contour>
        <pt x="439" y="55" on="1"/>
        <pt x="466" y="178" on="1"/>
        <pt x="502" y="185" on="1"/>
        <pt x="518" y="-6" on="1"/>
        <pt x="457" y="0" on="1"/>
        <pt x="179" y="0" on="1"/>
        <pt x="46" y="-5" on="1"/>
        <pt x="48" y="30" on="1"/>
        <pt x="124" y="50" on="1"/>
        <pt x="130" y="308" on="1"/>
        <pt x="74" y="304" on="1"/>
        <pt x="84" y="354" on="1"/>
        <pt x="130" y="350" on="1"/>
        <pt x="136" y="560" on="1"/>
        <pt x="205" y="685" on="1"/>
        <pt x="351" y="717" on="1"/>
        <pt x="488" y="685" on="1"/>
        <pt x="478" y="548" on="1"/>
        <pt x="452" y="542" on="1"/>
        <pt x="426" y="660" on="1"/>
        <pt x="359" y="678" on="1"/>
        <pt x="267" y="654" on="1"/>
        <pt x="229" y="575" on="1"/>
        <pt x="223" y="350" on="1"/>
        <pt x="389" y="354" on="1"/>
        <pt x="379" y="304" on="1"/>
        <pt x="223" y="307" on="1"/>
        <pt x="229" y="45" on="1"/>
      </contour>
    </TTGlyph>
    <TTGlyph name="t" xMin="15" yMin="-20" xMax="317" yMax="605">
      <contour>
        <pt x="261" y="-10" on="1"/>
        <pt x="193" y="-20" on="1"/>
        <pt x="122" y="4" on="1"/>
        <pt x="90" y="84" on="1"/>
        <pt x="95" y="270" on="1"/>
        <pt x="90" y="438" on="1"/>
        <pt x="21" y="448" on="1"/>
        <pt x="15" y="483" on="1"/>
        <pt x="94" y="504" on="1"/>
        <pt x="130" y="605" on="1"/>
        <pt x="181" y="605" on="1"/>
        <pt x="178" y="493" on="1"/>
        <pt x="299" y="489" on="1"/>
        <pt x="293" y="445" on="1"/>
        <pt x="188" y="438" on="1"/>
        <pt x="184" y="392" on="1"/>
        <pt x="188" y="89" on="1"/>
        <pt x="208" y="29" on="1"/>
        <pt x="302" y="54" on="1"/>
        <pt x="317" y="24" on="1"/>
      </contour>
    </TTGlyph>
    <TTGlyph name="thorn" xMin="-12" yMin="-255" xMax="526" yMax="752">
      <contour>
        <pt x="169" y="602" on="1"/>
        <pt x="167" y="455" on="1"/>
        <pt x="176" y="455" on="1"/>
        <pt x="283" y="521" on="1"/>
        <pt x="394" y="508" on="1"/>
        <pt x="467" y="456" on="1"/>
        <pt x="525" y="337" on="1"/>
        <pt x="526" y="167" on="1"/>
        <pt x="488" y="88" on="1"/>
        <pt x="373" y="-5" on="1"/>
        <pt x="262" y="-20" on="1"/>
        <pt x="163" y="6" on="1"/>
        <pt x="166" y="-84" on="1"/>
        <pt x="174" y="-200" on="1"/>
        <pt x="257" y="-220" on="1"/>
        <pt x="252" y="-255" on="1"/>
        <pt x="120" y="-250" on="1"/>
        <pt x="-2" y="-255" on="1"/>
        <pt x="0" y="-220" on="1"/>
        <pt x="66" y="-200" on="1"/>
        <pt x="71" y="-95" on="1"/>
        <pt x="75" y="124" on="1"/>
        <pt x="69" y="586" on="1"/>
        <pt x="64" y="693" on="1"/>
        <pt x="-7" y="690" on="1"/>
        <pt x="-12" y="725" on="1"/>
        <pt x="126" y="752" on="1"/>
        <pt x="164" y="741" on="1"/>
      </contour>
      <contour>
        <pt x="167" y="412" on="1"/>
        <pt x="163" y="61" on="1"/>
        <pt x="276" y="25" on="1"/>
        <pt x="339" y="43" on="1"/>
        <pt x="416" y="125" on="1"/>
        <pt x="430" y="240" on="1"/>
        <pt x="400" y="408" on="1"/>
        <pt x="306" y="461" on="1"/>
      </contour>
    </TTGlyph>
    <TTGlyph name="three" xMin="45" yMin="-16" xMax="460" yMax="720">
      <contour>
        <pt x="449" y="102" on="1"/>
        <pt x="354" y="13" on="1"/>
        <pt x="213" y="-16" on="1"/>
        <pt x="131" y="-8" on="1"/>
        <pt x="45" y="21" on="1"/>
        <pt x="70" y="185" on="1"/>
        <pt x="106" y="180" on="1"/>
        <pt x="123" y="51" on="1"/>
        <pt x="205" y="33" on="1"/>
        <pt x="317" y="62" on="1"/>
        <pt x="362" y="178" on="1"/>
        <pt x="338" y="272" on="1"/>
        <pt x="260" y="331" on="1"/>
        <pt x="179" y="343" on="1"/>
        <pt x="179" y="383" on="1"/>
        <pt x="256" y="400" on="1"/>
        <pt x="318" y="458" on="1"/>
        <pt x="337" y="558" on="1"/>
        <pt x="310" y="629" on="1"/>
        <pt x="236" y="665" on="1"/>
        <pt x="135" y="643" on="1"/>
        <pt x="116" y="520" on="1"/>
        <pt x="80" y="515" on="1"/>
        <pt x="57" y="673" on="1"/>
        <pt x="210" y="720" on="1"/>
        <pt x="330" y="704" on="1"/>
        <pt x="418" y="630" on="1"/>
        <pt x="429" y="543" on="1"/>
        <pt x="407" y="468" on="1"/>
        <pt x="363" y="406" on="1"/>
        <pt x="280" y="372" on="1"/>
        <pt x="280" y="368" on="1"/>
        <pt x="397" y="335" on="1"/>
        <pt x="460" y="243" on="1"/>
      </contour>
    </TTGlyph>
    <TTGlyph name="threequarters" xMin="52" yMin="-4" xMax="794" yMax="727">
      <component glyphName="fraction" x="264" y="3" flags="0x4"/>
      <component glyphName="threesuperior" x="-3" y="0" flags="0x4"/>
      <component glyphName="foursuperior" x="455" y="-308" flags="0x4"/>
    </TTGlyph>
    <TTGlyph name="threesuperior" xMin="55" yMin="304" xMax="339" yMax="727">
      <contour>
        <pt x="257" y="462" on="1"/>
        <pt x="191" y="496" on="1"/>
        <pt x="150" y="501" on="1"/>
        <pt x="150" y="542" on="1"/>
        <pt x="185" y="549" on="1"/>
        <pt x="241" y="582" on="1"/>
        <pt x="241" y="656" on="1"/>
        <pt x="185" y="689" on="1"/>
        <pt x="113" y="677" on="1"/>
        <pt x="103" y="589" on="1"/>
        <pt x="69" y="597" on="1"/>
        <pt x="60" y="700" on="1"/>
        <pt x="166" y="727" on="1"/>
        <pt x="254" y="718" on="1"/>
        <pt x="318" y="666" on="1"/>
        <pt x="318" y="599" on="1"/>
        <pt x="287" y="556" on="1"/>
        <pt x="226" y="530" on="1"/>
        <pt x="226" y="528" on="1"/>
        <pt x="298" y="505" on="1"/>
        <pt x="339" y="460" on="1"/>
        <pt x="339" y="380" on="1"/>
        <pt x="293" y="332" on="1"/>
        <pt x="183" y="304" on="1"/>
        <pt x="55" y="331" on="1"/>
        <pt x="64" y="434" on="1"/>
        <pt x="91" y="443" on="1"/>
        <pt x="106" y="356" on="1"/>
        <pt x="206" y="343" on="1"/>
        <pt x="257" y="382" on="1"/>
      </contour>
    </TTGlyph>
    <TTGlyph name="tilde" xMin="23" yMin="590" xMax="323" yMax="696">
      <contour>
        <pt x="48" y="597" on="1"/>
        <pt x="23" y="620" on="1"/>
        <pt x="86" y="694" on="1"/>
        <pt x="146" y="696" on="1"/>
        <pt x="228" y="657" on="1"/>
        <pt x="265" y="657" on="1"/>
        <pt x="294" y="685" on="1"/>
        <pt x="323" y="675" on="1"/>
        <pt x="302" y="619" on="1"/>
        <pt x="256" y="590" on="1"/>
        <pt x="208" y="591" on="1"/>
        <pt x="127" y="627" on="1"/>
        <pt x="88" y="626" on="1"/>
      </contour>
    </TTGlyph>
    <TTGlyph name="tilde.case" xMin="23" yMin="837" xMax="323" yMax="943">
      <contour>
        <pt x="48" y="844" on="1"/>
        <pt x="23" y="867" on="1"/>
        <pt x="86" y="941" on="1"/>
        <pt x="146" y="943" on="1"/>
        <pt x="228" y="904" on="1"/>
        <pt x="265" y="904" on="1"/>
        <pt x="294" y="932" on="1"/>
        <pt x="323" y="922" on="1"/>
        <pt x="302" y="866" on="1"/>
        <pt x="256" y="837" on="1"/>
        <pt x="208" y="838" on="1"/>
        <pt x="127" y="874" on="1"/>
        <pt x="88" y="873" on="1"/>
      </contour>
    </TTGlyph>
    <TTGlyph name="two" xMin="32" yMin="-10" xMax="478" yMax="720">
      <contour>
        <pt x="410" y="72" on="1"/>
        <pt x="432" y="178" on="1"/>
        <pt x="464" y="175" on="1"/>
        <pt x="478" y="-10" on="1"/>
        <pt x="399" y="0" on="1"/>
        <pt x="83" y="0" on="1"/>
        <pt x="68" y="-10" on="1"/>
        <pt x="32" y="0" on="1"/>
        <pt x="38" y="55" on="1"/>
        <pt x="297" y="363" on="1"/>
        <pt x="354" y="540" on="1"/>
        <pt x="334" y="641" on="1"/>
        <pt x="216" y="662" on="1"/>
        <pt x="125" y="641" on="1"/>
        <pt x="112" y="516" on="1"/>
        <pt x="70" y="507" on="1"/>
        <pt x="45" y="679" on="1"/>
        <pt x="223" y="720" on="1"/>
        <pt x="381" y="695" on="1"/>
        <pt x="451" y="627" on="1"/>
        <pt x="461" y="499" on="1"/>
        <pt x="372" y="332" on="1"/>
        <pt x="119" y="65" on="1"/>
        <pt x="122" y="62" on="1"/>
      </contour>
    </TTGlyph>
    <TTGlyph name="twosuperior" xMin="45" yMin="307" xMax="327" yMax="726">
      <contour>
        <pt x="276" y="377" on="1"/>
        <pt x="295" y="459" on="1"/>
        <pt x="322" y="449" on="1"/>
        <pt x="327" y="307" on="1"/>
        <pt x="55" y="314" on="1"/>
        <pt x="45" y="377" on="1"/>
        <pt x="180" y="486" on="1"/>
        <pt x="234" y="570" on="1"/>
        <pt x="235" y="652" on="1"/>
        <pt x="173" y="690" on="1"/>
        <pt x="109" y="677" on="1"/>
        <pt x="99" y="590" on="1"/>
        <pt x="68" y="597" on="1"/>
        <pt x="59" y="700" on="1"/>
        <pt x="165" y="726" on="1"/>
        <pt x="254" y="719" on="1"/>
        <pt x="315" y="665" on="1"/>
        <pt x="315" y="576" on="1"/>
        <pt x="232" y="469" on="1"/>
        <pt x="113" y="370" on="1"/>
        <pt x="113" y="367" on="1"/>
      </contour>
    </TTGlyph>
    <TTGlyph name="u" xMin="1" yMin="-20" xMax="573" yMax="510">
      <contour>
        <pt x="183" y="345" on="1"/>
        <pt x="183" y="127" on="1"/>
        <pt x="210" y="61" on="1"/>
        <pt x="294" y="50" on="1"/>
        <pt x="403" y="115" on="1"/>
        <pt x="403" y="221" on="1"/>
        <pt x="402" y="346" on="1"/>
        <pt x="397" y="450" on="1"/>
        <pt x="326" y="447" on="1"/>
        <pt x="321" y="482" on="1"/>
        <pt x="459" y="509" on="1"/>
        <pt x="509" y="498" on="1"/>
        <pt x="502" y="362" on="1"/>
        <pt x="501" y="282" on="1"/>
        <pt x="503" y="221" on="1"/>
        <pt x="503" y="41" on="1"/>
        <pt x="573" y="21" on="1"/>
        <pt x="568" y="-14" on="1"/>
        <pt x="431" y="-14" on="1"/>
        <pt x="408" y="70" on="1"/>
        <pt x="295" y="-13" on="1"/>
        <pt x="193" y="-20" on="1"/>
        <pt x="101" y="43" on="1"/>
        <pt x="86" y="123" on="1"/>
        <pt x="87" y="337" on="1"/>
        <pt x="77" y="451" on="1"/>
        <pt x="6" y="448" on="1"/>
        <pt x="1" y="483" on="1"/>
        <pt x="139" y="510" on="1"/>
        <pt x="189" y="499" on="1"/>
      </contour>
    </TTGlyph>
    <TTGlyph name="uacute" xMin="1" yMin="-20" xMax="573" yMax="757">
      <component glyphName="u" x="0" y="0" flags="0x204"/>
      <component glyphName="acute" x="242" y="0" flags="0x4"/>
    </TTGlyph>
    <TTGlyph name="ucircumflex" xMin="1" yMin="-20" xMax="573" yMax="753">
      <component glyphName="u" x="0" y="0" flags="0x204"/>
      <component glyphName="circumflex" x="143" y="0" flags="0x4"/>
    </TTGlyph>
    <TTGlyph name="udieresis" xMin="1" yMin="-20" xMax="573" yMax="712">
      <component glyphName="u" x="0" y="0" flags="0x204"/>
      <component glyphName="dieresis" x="123" y="0" flags="0x4"/>
    </TTGlyph>
    <TTGlyph name="ugrave" xMin="1" yMin="-20" xMax="573" yMax="757">
      <component glyphName="u" x="0" y="0" flags="0x204"/>
      <component glyphName="grave" x="131" y="0" flags="0x4"/>
    </TTGlyph>
    <TTGlyph name="underscore" xMin="64" yMin="-131" xMax="591" yMax="-49">
      <contour>
        <pt x="246" y="-120" on="1"/>
        <pt x="64" y="-131" on="1"/>
        <pt x="73" y="-67" on="1"/>
        <pt x="410" y="-59" on="1"/>
        <pt x="591" y="-49" on="1"/>
        <pt x="582" y="-113" on="1"/>
      </contour>
    </TTGlyph>
    <TTGlyph name="uni00AD" xMin="64" yMin="281" xMax="293" yMax="353">
      <contour>
        <pt x="223" y="293" on="1"/>
        <pt x="64" y="281" on="1"/>
        <pt x="73" y="345" on="1"/>
        <pt x="136" y="340" on="1"/>
        <pt x="293" y="353" on="1"/>
        <pt x="284" y="289" on="1"/>
      </contour>
    </TTGlyph>
    <TTGlyph name="v" xMin="-6" yMin="-30" xMax="562" yMax="505">
      <contour>
        <pt x="106" y="364" on="1"/>
        <pt x="61" y="452" on="1"/>
        <pt x="-6" y="470" on="1"/>
        <pt x="-1" y="505" on="1"/>
        <pt x="121" y="500" on="1"/>
        <pt x="250" y="505" on="1"/>
        <pt x="248" y="470" on="1"/>
        <pt x="185" y="450" on="1"/>
        <pt x="201" y="392" on="1"/>
        <pt x="266" y="225" on="1"/>
        <pt x="306" y="79" on="1"/>
        <pt x="309" y="79" on="1"/>
        <pt x="336" y="181" on="1"/>
        <pt x="415" y="389" on="1"/>
        <pt x="431" y="453" on="1"/>
        <pt x="360" y="470" on="1"/>
        <pt x="365" y="505" on="1"/>
        <pt x="456" y="500" on="1"/>
        <pt x="562" y="505" on="1"/>
        <pt x="560" y="470" on="1"/>
        <pt x="498" y="450" on="1"/>
        <pt x="455" y="358" on="1"/>
        <pt x="332" y="29" on="1"/>
        <pt x="302" y="-23" on="1"/>
        <pt x="269" y="-30" on="1"/>
      </contour>
    </TTGlyph>
    <TTGlyph name="w" xMin="2" yMin="-30" xMax="832" yMax="505">
      <contour>
        <pt x="114" y="364" on="1"/>
        <pt x="69" y="452" on="1"/>
        <pt x="2" y="470" on="1"/>
        <pt x="7" y="505" on="1"/>
        <pt x="129" y="500" on="1"/>
        <pt x="251" y="505" on="1"/>
        <pt x="249" y="470" on="1"/>
        <pt x="181" y="450" on="1"/>
        <pt x="197" y="392" on="1"/>
        <pt x="251" y="225" on="1"/>
        <pt x="291" y="79" on="1"/>
        <pt x="294" y="79" on="1"/>
        <pt x="321" y="181" on="1"/>
        <pt x="397" y="396" on="1"/>
        <pt x="369" y="452" on="1"/>
        <pt x="302" y="470" on="1"/>
        <pt x="307" y="505" on="1"/>
        <pt x="429" y="500" on="1"/>
        <pt x="551" y="505" on="1"/>
        <pt x="549" y="470" on="1"/>
        <pt x="481" y="450" on="1"/>
        <pt x="497" y="392" on="1"/>
        <pt x="545" y="225" on="1"/>
        <pt x="585" y="79" on="1"/>
        <pt x="588" y="79" on="1"/>
        <pt x="615" y="181" on="1"/>
        <pt x="685" y="389" on="1"/>
        <pt x="701" y="453" on="1"/>
        <pt x="623" y="470" on="1"/>
        <pt x="628" y="505" on="1"/>
        <pt x="726" y="500" on="1"/>
        <pt x="832" y="505" on="1"/>
        <pt x="830" y="470" on="1"/>
        <pt x="768" y="450" on="1"/>
        <pt x="725" y="358" on="1"/>
        <pt x="618" y="29" on="1"/>
        <pt x="587" y="-23" on="1"/>
        <pt x="554" y="-30" on="1"/>
        <pt x="426" y="328" on="1"/>
        <pt x="324" y="29" on="1"/>
        <pt x="293" y="-23" on="1"/>
        <pt x="260" y="-30" on="1"/>
      </contour>
    </TTGlyph>
    <TTGlyph name="x" xMin="7" yMin="-5" xMax="546" yMax="505">
      <contour>
        <pt x="232" y="233" on="1"/>
        <pt x="121" y="396" on="1"/>
        <pt x="74" y="453" on="1"/>
        <pt x="7" y="470" on="1"/>
        <pt x="12" y="505" on="1"/>
        <pt x="134" y="500" on="1"/>
        <pt x="263" y="505" on="1"/>
        <pt x="261" y="470" on="1"/>
        <pt x="194" y="454" on="1"/>
        <pt x="210" y="416" on="1"/>
        <pt x="287" y="299" on="1"/>
        <pt x="291" y="299" on="1"/>
        <pt x="325" y="349" on="1"/>
        <pt x="374" y="410" on="1"/>
        <pt x="398" y="453" on="1"/>
        <pt x="327" y="470" on="1"/>
        <pt x="332" y="505" on="1"/>
        <pt x="441" y="500" on="1"/>
        <pt x="546" y="505" on="1"/>
        <pt x="544" y="470" on="1"/>
        <pt x="482" y="453" on="1"/>
        <pt x="435" y="405" on="1"/>
        <pt x="322" y="265" on="1"/>
        <pt x="470" y="50" on="1"/>
        <pt x="537" y="30" on="1"/>
        <pt x="532" y="-5" on="1"/>
        <pt x="420" y="0" on="1"/>
        <pt x="298" y="-5" on="1"/>
        <pt x="300" y="30" on="1"/>
        <pt x="352" y="46" on="1"/>
        <pt x="328" y="97" on="1"/>
        <pt x="279" y="165" on="1"/>
        <pt x="258" y="196" on="1"/>
        <pt x="255" y="196" on="1"/>
        <pt x="186" y="96" on="1"/>
        <pt x="156" y="47" on="1"/>
        <pt x="216" y="30" on="1"/>
        <pt x="211" y="-5" on="1"/>
        <pt x="113" y="0" on="1"/>
        <pt x="11" y="-5" on="1"/>
        <pt x="13" y="30" on="1"/>
        <pt x="85" y="50" on="1"/>
      </contour>
    </TTGlyph>
    <TTGlyph name="y" xMin="7" yMin="-270" xMax="572" yMax="505">
      <contour>
        <pt x="114" y="-270" on="1"/>
        <pt x="83" y="-225" on="1"/>
        <pt x="53" y="-143" on="1"/>
        <pt x="91" y="-129" on="1"/>
        <pt x="147" y="-212" on="1"/>
        <pt x="198" y="-163" on="1"/>
        <pt x="268" y="-3" on="1"/>
        <pt x="113" y="394" on="1"/>
        <pt x="78" y="455" on="1"/>
        <pt x="7" y="470" on="1"/>
        <pt x="12" y="505" on="1"/>
        <pt x="134" y="500" on="1"/>
        <pt x="253" y="505" on="1"/>
        <pt x="251" y="470" on="1"/>
        <pt x="193" y="453" on="1"/>
        <pt x="208" y="391" on="1"/>
        <pt x="262" y="253" on="1"/>
        <pt x="317" y="92" on="1"/>
        <pt x="320" y="92" on="1"/>
        <pt x="370" y="249" on="1"/>
        <pt x="421" y="392" on="1"/>
        <pt x="431" y="456" on="1"/>
        <pt x="375" y="470" on="1"/>
        <pt x="380" y="505" on="1"/>
        <pt x="487" y="500" on="1"/>
        <pt x="572" y="505" on="1"/>
        <pt x="570" y="470" on="1"/>
        <pt x="509" y="452" on="1"/>
        <pt x="474" y="377" on="1"/>
        <pt x="325" y="-21" on="1"/>
        <pt x="239" y="-186" on="1"/>
        <pt x="164" y="-260" on="1"/>
      </contour>
    </TTGlyph>
    <TTGlyph name="yacute" xMin="7" yMin="-270" xMax="572" yMax="757">
      <component glyphName="y" x="0" y="0" flags="0x204"/>
      <component glyphName="acute" x="297" y="0" flags="0x4"/>
    </TTGlyph>
    <TTGlyph name="ydieresis" xMin="7" yMin="-270" xMax="572" yMax="712">
      <component glyphName="y" x="0" y="0" flags="0x204"/>
      <component glyphName="dieresis" x="158" y="0" flags="0x4"/>
    </TTGlyph>
    <TTGlyph name="yen" xMin="31" yMin="-10" xMax="707" yMax="710">
      <contour>
        <pt x="420" y="288" on="1"/>
        <pt x="422" y="221" on="1"/>
        <pt x="557" y="226" on="1"/>
        <pt x="547" y="176" on="1"/>
        <pt x="424" y="181" on="1"/>
        <pt x="426" y="130" on="1"/>
        <pt x="434" y="50" on="1"/>
        <pt x="515" y="30" on="1"/>
        <pt x="510" y="-10" on="1"/>
        <pt x="378" y="0" on="1"/>
        <pt x="244" y="-10" on="1"/>
        <pt x="246" y="30" on="1"/>
        <pt x="325" y="48" on="1"/>
        <pt x="330" y="129" on="1"/>
        <pt x="329" y="184" on="1"/>
        <pt x="192" y="176" on="1"/>
        <pt x="202" y="226" on="1"/>
        <pt x="329" y="223" on="1"/>
        <pt x="329" y="289" on="1"/>
        <pt x="192" y="286" on="1"/>
        <pt x="202" y="336" on="1"/>
        <pt x="304" y="333" on="1"/>
        <pt x="161" y="582" on="1"/>
        <pt x="101" y="652" on="1"/>
        <pt x="31" y="670" on="1"/>
        <pt x="36" y="710" on="1"/>
        <pt x="167" y="700" on="1"/>
        <pt x="307" y="710" on="1"/>
        <pt x="305" y="670" on="1"/>
        <pt x="233" y="654" on="1"/>
        <pt x="262" y="583" on="1"/>
        <pt x="338" y="454" on="1"/>
        <pt x="389" y="349" on="1"/>
        <pt x="393" y="349" on="1"/>
        <pt x="442" y="445" on="1"/>
        <pt x="528" y="585" on="1"/>
        <pt x="554" y="658" on="1"/>
        <pt x="482" y="670" on="1"/>
        <pt x="487" y="710" on="1"/>
        <pt x="600" y="700" on="1"/>
        <pt x="707" y="710" on="1"/>
        <pt x="705" y="670" on="1"/>
        <pt x="632" y="654" on="1"/>
        <pt x="581" y="583" on="1"/>
        <pt x="428" y="331" on="1"/>
        <pt x="557" y="336" on="1"/>
        <pt x="547" y="286" on="1"/>
      </contour>
    </TTGlyph>
    <TTGlyph name="z" xMin="9" yMin="-9" xMax="442" yMax="512">
      <contour>
        <pt x="130" y="40" on="1"/>
        <pt x="357" y="58" on="1"/>
        <pt x="383" y="170" on="1"/>
        <pt x="416" y="167" on="1"/>
        <pt x="429" y="61" on="1"/>
        <pt x="442" y="-9" on="1"/>
        <pt x="360" y="0" on="1"/>
        <pt x="109" y="0" on="1"/>
        <pt x="9" y="-6" on="1"/>
        <pt x="9" y="28" on="1"/>
        <pt x="54" y="69" on="1"/>
        <pt x="303" y="447" on="1"/>
        <pt x="298" y="459" on="1"/>
        <pt x="116" y="448" on="1"/>
        <pt x="94" y="351" on="1"/>
        <pt x="59" y="357" on="1"/>
        <pt x="49" y="447" on="1"/>
        <pt x="41" y="512" on="1"/>
        <pt x="122" y="500" on="1"/>
        <pt x="422" y="500" on="1"/>
        <pt x="436" y="463" on="1"/>
        <pt x="404" y="437" on="1"/>
        <pt x="338" y="332" on="1"/>
        <pt x="126" y="46" on="1"/>
      </contour>
    </TTGlyph>
    <TTGlyph name="zero" xMin="51" yMin="-12" xMax="558" yMax="714">
      <contour>
        <pt x="450" y="30" on="1"/>
        <pt x="349" y="-12" on="1"/>
        <pt x="263" y="-12" on="1"/>
        <pt x="142" y="42" on="1"/>
        <pt x="69" y="170" on="1"/>
        <pt x="51" y="278" on="1"/>
        <pt x="51" y="444" on="1"/>
        <pt x="124" y="613" on="1"/>
        <pt x="239" y="710" on="1"/>
        <pt x="345" y="714" on="1"/>
        <pt x="431" y="677" on="1"/>
        <pt x="521" y="573" on="1"/>
        <pt x="558" y="372" on="1"/>
        <pt x="551" y="217" on="1"/>
        <pt x="506" y="103" on="1"/>
      </contour>
      <contour>
        <pt x="255" y="664" on="1"/>
        <pt x="192" y="571" on="1"/>
        <pt x="152" y="391" on="1"/>
        <pt x="171" y="203" on="1"/>
        <pt x="205" y="85" on="1"/>
        <pt x="269" y="29" on="1"/>
        <pt x="340" y="29" on="1"/>
        <pt x="403" y="76" on="1"/>
        <pt x="433" y="167" on="1"/>
        <pt x="453" y="348" on="1"/>
        <pt x="421" y="585" on="1"/>
        <pt x="343" y="672" on="1"/>
      </contour>
    </TTGlyph>
</ttFont>
